if (_typeface_js && _typeface_js.loadFace) _typeface_js.loadFace({"glyphs":{"ⴟ":{"x_min":50.1875,"x_max":1081.6875,"ha":1064,"o":"m 832 443 l 903 594 l 580 533 l 649 293 l 832 443 m 752 -74 l 857 -104 l 832 -225 l 667 -183 l 585 116 l 174 -192 l 160 -307 l 50 -307 l 69 -158 l 558 218 l 473 518 l 309 490 l 293 439 l 170 439 l 220 597 l 148 597 l 155 647 l 237 647 l 248 687 l 378 687 l 334 553 l 933 659 l 955 716 l 1081 716 l 943 404 l 674 191 l 752 -74 "},"ᴴ":{"x_min":-12.203125,"x_max":698.515625,"ha":686,"o":"m -12 453 l -4 493 l 68 493 l 164 979 l 91 979 l 99 1020 l 323 1020 l 315 979 l 242 979 l 204 783 l 501 783 l 539 979 l 466 979 l 474 1020 l 698 1020 l 691 979 l 618 979 l 522 493 l 595 493 l 587 453 l 363 453 l 370 493 l 444 493 l 492 737 l 194 737 l 146 493 l 219 493 l 211 453 l -12 453 "},"":{"x_min":32,"x_max":916,"ha":873,"o":"m 178 972 q 215 1058 189 1016 q 278 1132 241 1100 q 358 1183 315 1164 q 446 1202 401 1202 q 497 1194 473 1202 q 539 1171 520 1186 q 570 1135 558 1157 q 588 1085 583 1113 q 628 1140 606 1118 q 675 1176 650 1162 q 729 1196 701 1190 q 787 1203 758 1203 q 836 1190 812 1203 q 877 1155 859 1178 q 905 1097 894 1131 q 916 1021 916 1064 q 904 928 916 982 l 758 928 q 794 1007 780 975 q 808 1057 808 1040 q 794 1083 808 1074 q 750 1092 780 1092 q 703 1084 726 1092 q 661 1060 680 1076 q 628 1019 642 1044 q 606 960 613 994 l 593 906 l 508 906 l 522 967 q 530 1022 530 1000 q 511 1076 530 1059 q 461 1093 493 1093 q 421 1087 441 1093 q 383 1072 401 1082 q 352 1045 365 1061 q 334 1006 339 1028 l 264 693 q 314 738 285 716 q 375 778 344 760 q 437 807 406 796 q 492 818 468 818 q 596 798 547 818 q 680 742 644 779 q 735 652 715 706 q 756 529 756 598 q 752 476 756 505 q 743 421 748 446 q 677 244 720 322 q 577 112 634 166 q 453 28 521 57 q 312 0 385 0 q 198 18 249 0 q 109 71 146 36 q 52 157 72 106 q 32 273 32 207 q 35 321 32 297 q 43 372 38 346 l 178 972 m 210 416 q 193 332 198 370 q 189 265 189 294 q 200 188 189 218 q 231 141 211 158 q 277 117 251 123 q 334 111 303 111 q 416 129 379 111 q 481 186 452 147 q 534 285 510 224 q 577 430 557 345 l 577 429 q 591 508 586 473 q 596 570 596 544 q 562 677 596 646 q 464 708 528 708 q 389 686 427 708 q 315 626 350 665 q 251 534 279 587 q 210 417 223 481 l 210 416 "},"⟆":{"x_min":-45.421875,"x_max":510,"ha":488,"o":"m -45 -227 l -37 -178 q -5 -176 -25 -180 q 67 -159 14 -173 q 278 80 257 -106 q 245 499 290 182 q 217 929 198 820 q 378 1068 242 1068 q 510 920 510 1068 l 432 885 q 373 1017 416 1022 q 308 926 320 1011 q 347 527 299 856 q 378 66 399 184 q 59 -219 337 -163 q -7 -227 23 -227 q -45 -227 -39 -227 "},"ₑ":{"x_min":39,"x_max":437,"ha":483,"o":"m 125 195 q 119 130 119 160 q 131 68 119 92 q 215 26 154 26 q 296 50 262 26 q 352 122 331 74 l 409 122 q 327 22 379 55 q 201 -11 275 -11 q 68 47 111 -11 q 39 146 39 87 q 45 202 39 172 q 128 356 63 297 q 280 415 192 415 q 411 358 372 415 q 437 260 437 320 q 430 195 437 230 l 125 195 m 354 235 q 359 280 359 260 q 345 341 359 318 q 272 377 325 377 q 188 341 224 377 q 133 235 153 305 l 354 235 "},"ȋ":{"x_min":59.90625,"x_max":458.984375,"ha":399,"o":"m 184 72 l 290 72 l 278 0 l 59 0 l 173 649 l 66 649 l 78 722 l 297 722 l 184 72 m 456 857 l 399 857 q 371 934 399 910 q 283 959 344 959 q 186 934 222 959 q 133 857 150 910 l 74 857 q 154 1003 97 954 q 299 1052 211 1052 q 428 1003 388 1052 q 456 857 467 954 "},"‥":{"x_min":125.6875,"x_max":707.734375,"ha":833,"o":"m 555 6 q 543 70 537 32 q 578 134 550 108 q 640 161 606 161 q 693 134 674 161 q 705 70 712 108 q 671 6 699 32 q 609 -20 642 -20 q 555 6 574 -20 m 139 6 q 127 70 120 32 q 162 134 134 108 q 224 161 190 161 q 277 134 258 161 q 289 70 296 108 q 254 6 283 32 q 192 -20 226 -20 q 139 6 158 -20 "},"⇜":{"x_min":46,"x_max":976,"ha":1047,"o":"m 339 394 l 189 394 l 307 165 l 301 165 l 46 445 l 46 452 l 301 732 l 307 732 l 189 504 l 305 504 l 379 644 l 490 429 l 602 644 l 714 429 l 826 644 l 899 504 l 976 504 l 976 394 l 864 394 l 826 468 l 714 252 l 602 468 l 490 252 l 379 468 l 339 394 "},"⣌":{"x_min":174,"x_max":742,"ha":916,"o":"m 174 215 q 202 295 174 262 q 275 328 231 328 q 346 295 316 328 q 376 215 376 262 q 346 135 376 168 q 275 103 316 103 q 202 135 231 103 q 174 215 174 168 m 540 983 q 568 1063 540 1030 q 641 1096 597 1096 q 712 1063 682 1096 q 742 983 742 1030 q 712 903 742 936 q 641 871 682 871 q 568 903 597 871 q 540 983 540 936 m 174 -169 q 202 -89 174 -122 q 275 -57 231 -57 q 346 -89 316 -57 q 376 -169 376 -122 q 346 -249 376 -216 q 275 -282 316 -282 q 202 -249 231 -282 q 174 -169 174 -216 m 540 -169 q 568 -89 540 -122 q 641 -57 597 -57 q 712 -89 682 -57 q 742 -169 742 -122 q 712 -249 742 -216 q 641 -282 682 -282 q 568 -249 597 -282 q 540 -169 540 -216 "},"⡡":{"x_min":174,"x_max":742,"ha":916,"o":"m 174 983 q 202 1063 174 1030 q 275 1096 231 1096 q 346 1063 316 1096 q 376 983 376 1030 q 346 903 376 936 q 275 871 316 871 q 202 903 231 871 q 174 983 174 936 m 540 215 q 568 295 540 262 q 641 328 597 328 q 712 295 682 328 q 742 215 742 262 q 712 135 742 168 q 641 103 682 103 q 568 135 597 103 q 540 215 540 168 m 174 -169 q 202 -89 174 -122 q 275 -57 231 -57 q 346 -89 316 -57 q 376 -169 376 -122 q 346 -249 376 -216 q 275 -282 316 -282 q 202 -249 231 -282 q 174 -169 174 -216 "},"Ⅲ":{"x_min":-18.984375,"x_max":1002.328125,"ha":982,"o":"m 721 72 l 837 72 l 825 0 l -18 0 l -6 72 l 109 72 l 261 940 l 145 940 l 158 1013 l 1002 1013 l 989 940 l 873 940 l 721 72 m 505 940 l 385 940 l 233 72 l 354 72 l 505 940 m 750 940 l 629 940 l 477 72 l 598 72 l 750 940 "},"⤒":{"x_min":268.515625,"x_max":778.484375,"ha":1047,"o":"m 474 0 l 474 779 l 268 649 l 268 656 l 482 896 l 283 896 l 283 1006 l 763 1006 l 763 896 l 565 896 l 778 656 l 778 649 l 573 779 l 573 0 l 474 0 "},"Ƹ":{"x_min":21.34375,"x_max":744.625,"ha":705,"o":"m 423 578 q 248 509 316 578 q 158 306 181 440 q 179 122 137 190 q 315 55 221 55 q 474 111 411 55 q 562 277 537 167 l 631 277 l 592 57 q 446 0 518 18 q 304 -20 375 -20 q 72 64 143 -20 q 29 308 1 149 q 128 520 52 438 q 320 621 204 602 l 369 626 l 196 928 l 211 1013 l 744 1013 l 703 778 l 628 778 l 655 930 l 332 930 l 493 647 l 481 578 l 423 578 "},"ˌ":{"x_min":88.84375,"x_max":263.8125,"ha":353,"o":"m 88 -125 l 149 217 l 263 217 l 204 -125 l 88 -125 "},"დ":{"x_min":45.015625,"x_max":1004,"ha":1054,"o":"m 604 -306 l 516 -306 q 521 -272 521 -289 q 512 -224 521 -249 q 485 -178 504 -200 q 438 -139 467 -157 q 369 -112 410 -122 q 315 -101 339 -105 q 270 -98 290 -98 q 229 -101 247 -98 q 190 -115 210 -105 q 149 -145 171 -126 q 99 -193 127 -163 l 45 -104 q 86 -72 66 -86 q 128 -48 106 -58 q 176 -32 150 -38 q 233 -23 201 -26 q 174 27 204 1 q 119 88 144 54 q 79 167 95 122 q 64 272 64 211 q 75 382 64 326 q 109 490 87 438 q 164 587 131 541 q 239 665 196 632 q 332 718 281 699 q 444 738 384 738 q 501 731 478 738 q 538 713 523 725 q 564 683 553 701 q 587 643 575 666 q 694 713 641 688 q 803 738 747 738 q 951 682 899 738 q 1004 523 1004 627 q 985 390 1004 464 q 931 255 965 315 q 852 153 897 195 q 753 89 807 111 q 639 67 698 67 q 549 84 589 67 q 481 132 509 102 q 439 204 454 163 q 425 294 425 246 q 435 379 425 335 q 455 448 444 417 q 479 507 466 480 q 510 560 492 535 q 552 609 528 585 q 527 630 540 622 q 500 643 515 639 q 466 650 485 648 q 420 652 447 652 q 347 634 378 652 q 292 584 316 617 q 250 501 268 550 q 216 388 232 451 q 201 275 201 327 q 245 120 201 184 q 369 8 289 55 q 428 -23 399 -8 q 484 -53 458 -38 q 535 -85 511 -68 q 576 -123 558 -102 q 603 -171 593 -144 q 613 -233 613 -199 q 610 -267 613 -249 q 604 -306 608 -285 m 836 374 l 851 436 q 866 504 860 472 q 872 561 872 535 q 852 627 872 603 q 782 652 832 652 q 708 639 739 652 q 652 597 677 627 q 609 514 628 566 q 570 385 589 463 q 552 306 558 341 q 547 246 547 272 q 572 171 547 193 q 655 150 597 150 q 721 160 695 150 q 768 196 748 171 q 804 265 788 221 q 836 374 819 308 "},"Ԓ":{"x_min":-50.515625,"x_max":1070.5,"ha":1043,"o":"m 471 929 l 437 732 q 278 114 363 315 q 100 -20 221 -20 q 33 -8 76 -20 q -50 26 -9 3 l -30 140 l 39 140 q 39 127 39 137 q 56 89 39 116 q 119 62 74 62 q 199 116 164 62 q 278 343 233 171 q 361 732 325 522 l 397 940 l 281 940 l 294 1013 l 1070 1013 l 1057 940 l 941 940 l 782 27 q 679 -214 753 -139 q 471 -289 605 -289 q 385 -277 428 -289 q 302 -242 342 -265 l 329 -83 l 399 -83 q 410 -183 389 -150 q 485 -216 431 -216 q 595 -165 558 -216 q 658 33 633 -114 l 815 929 l 471 929 "},"ϼ":{"x_min":-24.421875,"x_max":741.28125,"ha":734,"o":"m 162 -140 l 459 -140 l 446 -213 l 149 -213 l 136 -289 l 24 -289 l 37 -213 l -24 -213 l -11 -140 l 50 -140 l 136 355 q 233 608 166 526 q 351 709 307 686 q 489 741 410 741 q 703 635 646 741 q 731 360 760 530 q 607 85 701 191 q 393 -20 513 -20 q 273 12 318 -20 q 206 112 227 44 l 162 -140 m 256 396 l 244 324 q 253 126 221 194 q 372 58 286 58 q 516 134 458 58 q 600 360 573 211 q 595 587 627 516 q 479 670 556 670 q 335 594 398 670 q 256 396 278 526 "},"ȡ":{"x_min":31.859375,"x_max":920.828125,"ha":1017,"o":"m 676 -34 q 852 37 839 -34 q 611 121 866 121 q 594 120 602 121 q 601 7 577 55 q 676 -34 621 -34 m 517 324 l 529 396 q 519 594 552 525 q 401 663 486 663 q 257 586 314 663 q 172 360 199 510 q 178 134 147 211 q 295 58 208 58 q 437 126 381 58 q 517 324 494 194 m 605 189 q 615 189 610 189 l 620 189 q 918 32 948 189 q 663 -102 892 -102 q 514 -38 565 -102 q 476 50 481 2 q 438 -55 449 9 l 431 -98 l 370 -98 l 378 -55 q 400 26 386 -10 q 378 11 389 18 q 246 -20 322 -20 q 69 85 127 -20 q 42 360 12 191 q 165 635 71 530 q 379 741 259 741 q 500 708 455 741 q 566 608 545 676 l 632 984 l 526 984 l 539 1056 l 757 1056 l 605 189 "},"◦":{"x_min":187,"x_max":550,"ha":737,"o":"m 224 517 q 265 402 224 449 q 368 356 307 356 q 471 402 429 356 q 513 517 513 449 q 471 631 513 584 q 369 678 429 678 q 265 631 307 678 q 224 517 224 584 m 187 517 q 239 659 187 601 q 369 718 292 718 q 497 659 445 718 q 550 517 550 601 q 497 374 550 432 q 368 316 444 316 q 239 374 292 316 q 187 517 187 432 "},"ņ":{"x_min":87.796875,"x_max":718.390625,"ha":805,"o":"m 324 -258 q 392 -192 371 -230 q 414 -99 414 -154 l 414 -85 l 508 -85 q 470 -204 508 -154 q 363 -291 434 -254 l 324 -258 m 87 0 l 201 649 l 93 649 l 106 722 l 326 722 l 304 593 q 404 703 348 666 q 526 741 460 741 q 672 672 633 741 q 696 562 696 631 q 685 458 696 516 l 618 72 l 718 72 l 705 0 l 492 0 l 565 419 q 578 536 578 489 q 568 601 578 577 q 473 650 547 650 q 343 586 395 650 q 270 401 291 523 l 200 0 l 87 0 "},"Ⅽ":{"x_min":58.375,"x_max":933.53125,"ha":956,"o":"m 839 268 q 667 53 774 126 q 414 -20 559 -20 q 255 13 325 -20 q 136 113 184 47 q 65 286 81 189 q 70 505 49 383 q 259 886 111 741 q 608 1031 407 1031 q 763 1009 683 1031 q 933 943 844 987 l 892 710 l 823 710 q 765 897 823 837 q 585 958 708 958 q 344 843 439 958 q 210 505 249 728 q 226 167 171 282 q 426 53 281 53 q 604 106 529 53 q 728 268 679 160 l 839 268 "},"ỳ":{"x_min":-45.03125,"x_max":719.921875,"ha":706,"o":"m 719 715 q 553 121 659 326 q 272 -268 397 -178 q 70 -309 217 -309 q 12 -303 41 -309 q -45 -287 -15 -298 l -20 -150 l 36 -150 q 35 -171 35 -160 q 46 -215 35 -199 q 101 -239 61 -239 q 302 -135 208 -239 l 148 648 l 75 648 l 87 721 l 255 721 l 399 5 q 521 235 498 168 q 606 642 606 446 l 540 642 l 553 715 l 719 715 m 379 1079 l 492 824 l 421 824 l 258 1079 l 379 1079 "},"қ":{"x_min":87.984375,"x_max":746.328125,"ha":755,"o":"m 94 648 l 106 721 l 326 721 l 269 397 q 302 427 271 397 q 350 475 334 458 l 503 648 q 633 741 584 741 q 746 716 683 741 l 725 602 l 653 602 q 609 655 653 655 q 543 606 585 655 l 393 435 q 344 384 370 410 l 370 375 q 473 337 451 350 q 537 235 527 304 l 556 111 q 603 63 563 63 q 671 160 642 63 l 724 148 l 702 54 q 688 -39 688 -3 q 688 -146 688 -76 q 638 -243 688 -216 q 501 -289 589 -271 l 501 -241 q 576 -205 545 -234 q 607 -125 607 -177 q 629 -39 607 -64 q 652 -4 652 -14 q 648 0 652 0 q 626 -9 645 0 q 580 -20 607 -20 q 467 26 499 -20 q 439 122 448 52 l 426 213 q 356 312 414 295 l 289 331 l 253 303 l 199 0 l 87 0 l 201 648 l 94 648 "},"":{"x_min":21,"x_max":843,"ha":865,"o":"m 540 376 q 560 479 554 434 q 566 559 566 524 q 557 628 566 600 q 534 674 549 656 q 496 700 519 692 q 447 708 474 708 q 377 696 412 708 q 309 652 342 684 q 248 561 277 619 q 198 409 220 503 q 180 271 180 328 q 212 152 180 193 q 308 111 244 111 q 387 129 350 111 q 453 182 424 148 q 505 266 483 216 q 540 376 527 315 m 703 346 q 646 208 687 272 q 550 99 606 145 q 427 26 494 52 q 292 0 361 0 q 174 26 225 0 q 89 98 124 53 q 38 200 55 142 q 21 320 21 258 q 23 370 21 346 q 31 417 26 394 q 72 540 46 484 q 132 640 98 596 q 206 718 166 685 q 289 773 246 751 q 375 806 332 795 q 459 818 418 818 q 516 808 490 818 q 565 780 543 798 q 603 739 587 763 q 630 687 619 716 q 662 828 646 756 q 694 969 679 900 q 699 997 698 985 q 701 1019 701 1009 q 663 1078 701 1063 q 551 1093 626 1093 l 577 1202 q 687 1188 638 1202 q 771 1148 736 1174 q 824 1083 805 1122 q 843 995 843 1045 q 840 961 843 977 q 834 929 838 945 l 703 346 "},"⥍":{"x_min":268.515625,"x_max":778.484375,"ha":1047,"o":"m 565 1037 l 573 1037 l 573 178 l 778 309 l 778 302 l 481 -32 l 474 -32 l 474 826 l 268 695 l 268 702 l 565 1037 "},"ѕ":{"x_min":14.578125,"x_max":599.125,"ha":641,"o":"m 43 208 l 108 208 q 106 170 106 188 q 256 47 106 47 q 430 170 408 47 q 432 204 432 182 q 411 251 432 225 q 303 309 390 276 l 227 340 q 123 408 148 370 q 98 491 98 446 q 100 529 98 508 q 193 684 118 628 q 377 741 268 741 q 599 682 485 741 l 571 525 l 507 525 q 510 554 510 540 q 479 638 510 603 q 376 673 448 673 q 213 562 233 673 q 211 530 211 550 q 231 485 211 509 q 328 433 251 461 l 412 402 q 530 322 498 370 q 553 255 553 288 q 450 39 553 113 q 246 -20 369 -20 q 14 39 123 -20 l 43 208 "},"Ḏ":{"x_min":-18.984375,"x_max":942.578125,"ha":1002,"o":"m 233 72 l 347 72 q 639 184 524 72 q 790 507 754 297 q 752 828 827 717 q 499 940 676 940 l 385 940 l 233 72 m -18 0 l -6 72 l 109 72 l 261 940 l 145 940 l 158 1013 l 520 1013 q 864 879 756 1013 q 931 507 972 745 q 733 134 889 268 q 343 0 578 0 l -18 0 m 164 -105 l 529 -105 l 512 -205 l 147 -205 l 164 -105 "},"ŭ":{"x_min":85.265625,"x_max":717.203125,"ha":805,"o":"m 293 1091 l 351 1091 q 378 1013 351 1037 q 466 989 405 989 q 563 1013 528 989 q 616 1091 599 1037 l 675 1091 q 595 944 652 993 q 450 896 538 896 q 322 944 361 896 q 293 1091 282 993 m 604 721 l 717 721 l 603 72 l 709 72 l 696 0 l 478 0 l 500 127 q 400 17 456 55 q 279 -20 344 -20 q 132 48 172 -20 q 109 159 109 89 q 119 262 109 204 l 186 648 l 85 648 l 98 721 l 312 721 l 239 301 q 227 185 227 231 q 236 120 227 143 q 331 72 256 72 q 461 135 409 72 q 534 320 513 199 l 604 721 "},"╲":{"x_min":-65.78125,"x_max":819.90625,"ha":752,"o":"m 819 -419 l 711 -419 l -65 1352 l 42 1352 l 819 -419 "},"◴":{"x_min":68,"x_max":1022,"ha":1090,"o":"m 131 94 q 68 359 68 217 q 131 624 68 501 q 306 819 195 748 q 545 890 417 890 q 783 819 672 890 q 957 624 893 748 q 1022 359 1022 501 q 957 94 1022 217 q 783 -99 893 -28 q 545 -171 672 -171 q 306 -99 417 -171 q 131 94 195 -28 m 509 814 q 338 751 423 805 q 147 400 147 630 l 509 400 l 509 814 m 147 323 q 335 -28 147 92 q 540 -94 438 -94 q 745 -28 642 -94 q 950 361 950 102 q 747 751 950 620 q 579 814 663 805 l 579 323 l 147 323 "},"┗":{"x_min":278,"x_max":764.609375,"ha":752,"o":"m 278 278 l 278 1351 l 473 1351 l 473 511 l 764 511 l 764 278 l 278 278 "},"ɭ":{"x_min":60.078125,"x_max":442.84375,"ha":453,"o":"m 250 984 l 142 984 l 155 1056 l 375 1056 l 179 -71 q 181 -199 163 -159 q 257 -241 201 -241 q 338 -211 307 -241 q 385 -116 369 -180 l 442 -116 l 417 -264 q 332 -297 375 -286 q 247 -309 291 -309 q 94 -245 143 -309 q 65 -71 46 -182 q 250 984 158 456 "},"⁍":{"x_min":132,"x_max":493,"ha":625,"o":"m 239 305 l 132 305 l 132 707 l 239 707 l 239 305 m 311 707 q 440 648 388 707 q 493 506 493 590 q 440 363 493 421 q 312 305 388 305 l 311 305 l 311 707 "},"ἣ":{"x_min":113.53125,"x_max":721.3125,"ha":749,"o":"m 324 1153 q 369 1135 351 1153 q 389 1061 397 1109 q 354 997 382 1023 q 298 971 330 973 q 335 863 298 914 l 287 842 q 283 846 285 844 q 225 1050 200 940 l 227 1061 q 251 1115 232 1091 q 324 1153 282 1153 m 550 1110 l 664 855 l 593 855 l 430 1110 l 550 1110 m 225 0 l 113 0 l 226 649 l 119 649 l 131 722 l 351 722 l 329 593 q 429 703 373 666 q 551 741 485 741 q 698 672 657 741 q 711 458 736 605 l 580 -289 l 467 -289 l 591 419 q 594 600 614 551 q 499 650 573 650 q 369 586 421 650 q 295 402 316 523 l 225 0 "},"╋":{"x_min":-12,"x_max":765,"ha":752,"o":"m 278 -419 l 278 279 l -12 279 l -12 512 l 278 512 l 278 1352 l 473 1352 l 473 512 l 765 512 l 765 279 l 473 279 l 473 -419 l 278 -419 "},"⊓":{"x_min":132,"x_max":916,"ha":1048,"o":"m 132 882 l 916 882 l 916 0 l 818 0 l 818 772 l 230 772 l 230 0 l 132 0 l 132 882 "},"Ɲ":{"x_min":-229.90625,"x_max":1153.5625,"ha":1093,"o":"m -229 -242 l -202 -83 l -132 -83 q -121 -182 -144 -150 q -46 -216 -100 -216 q 63 -165 25 -216 q 126 33 101 -114 l 285 940 l 162 940 l 175 1013 l 409 1013 l 815 213 l 942 940 l 820 940 l 833 1013 l 1153 1013 l 1140 940 l 1017 940 l 849 -19 l 776 -19 l 342 832 l 201 27 q 98 -214 172 -139 q -91 -289 25 -289 q -146 -277 -103 -289 q -229 -242 -189 -265 "},"⇱":{"x_min":102,"x_max":958.484375,"ha":1047,"o":"m 909 132 l 839 54 l 283 673 l 222 418 l 216 424 l 216 822 l 219 826 l 577 826 l 582 819 l 353 750 l 909 132 m 102 0 l 102 958 l 958 958 l 958 890 l 163 890 l 163 0 l 102 0 "},"⁸":{"x_min":14.703125,"x_max":483.328125,"ha":500,"o":"m 302 513 q 355 606 342 546 q 342 698 368 665 q 257 732 316 732 q 158 698 198 732 q 105 606 118 665 q 118 513 92 546 q 203 480 143 480 q 302 513 262 480 m 351 807 q 396 886 385 835 q 384 965 406 937 q 311 994 362 994 q 226 965 260 994 q 180 886 191 937 q 192 807 169 835 q 265 779 214 779 q 351 807 316 779 m 324 750 q 423 703 391 742 q 442 606 454 665 q 361 485 425 528 q 195 443 297 443 q 48 485 94 443 q 18 606 2 528 q 78 703 31 665 q 198 750 126 742 q 112 803 147 760 q 96 886 86 835 q 170 992 111 953 q 319 1031 229 1031 q 451 992 408 1031 q 479 886 494 953 q 428 803 467 827 q 324 750 373 769 "},"k":{"x_min":51.546875,"x_max":686.3125,"ha":757,"o":"m 412 450 l 592 72 l 686 72 l 673 0 l 493 0 l 316 368 l 212 277 l 164 0 l 51 0 l 223 984 l 115 984 l 128 1056 l 348 1056 l 228 368 l 550 649 l 457 649 l 469 722 l 652 722 l 640 649 l 412 450 "},"ȇ":{"x_min":52,"x_max":683,"ha":739,"o":"m 659 896 l 601 896 q 574 973 601 949 q 486 998 547 998 q 389 973 425 998 q 336 896 353 949 l 277 896 q 357 1042 300 993 q 502 1091 413 1091 q 630 1042 591 1091 q 659 896 669 993 m 182 278 q 180 228 180 252 q 201 122 180 164 q 333 47 236 47 q 439 71 404 47 q 515 169 501 113 l 597 169 q 482 22 573 82 q 292 -20 418 -20 q 99 83 167 -20 q 52 261 52 156 q 61 360 52 307 q 194 636 91 531 q 444 741 297 741 q 683 552 683 741 q 558 346 683 414 q 182 278 430 278 m 496 428 q 564 557 564 473 q 425 673 564 673 q 287 605 344 673 q 195 353 230 537 q 496 428 391 353 "},"⠽":{"x_min":174,"x_max":742,"ha":916,"o":"m 174 984 q 202 1064 174 1031 q 275 1097 231 1097 q 346 1064 316 1097 q 376 984 376 1031 q 346 904 376 937 q 275 872 316 872 q 202 904 231 872 q 174 984 174 937 m 174 215 q 202 295 174 262 q 275 328 231 328 q 346 295 316 328 q 376 215 376 262 q 346 135 376 168 q 275 103 316 103 q 202 135 231 103 q 174 215 174 168 m 540 984 q 568 1064 540 1031 q 641 1097 597 1097 q 712 1064 682 1097 q 742 984 742 1031 q 712 904 742 937 q 641 872 682 872 q 568 904 597 872 q 540 984 540 937 m 540 599 q 568 679 540 646 q 641 712 597 712 q 712 679 682 712 q 742 599 742 646 q 712 519 742 552 q 641 487 682 487 q 568 519 597 487 q 540 599 540 552 m 540 215 q 568 295 540 262 q 641 328 597 328 q 712 295 682 328 q 742 215 742 262 q 712 135 742 168 q 641 103 682 103 q 568 135 597 103 q 540 215 540 168 "},"ί":{"x_min":96.296875,"x_max":532.359375,"ha":490,"o":"m 410 1112 l 532 1112 l 280 857 l 208 857 l 410 1112 m 124 197 l 203 649 l 96 649 l 109 722 l 328 722 l 236 197 q 261 79 220 102 q 377 112 292 62 l 362 30 q 152 34 224 -48 q 124 197 105 88 "},"Ù":{"x_min":136.3125,"x_max":1087.78125,"ha":1053,"o":"m 252 940 l 136 940 l 149 1013 l 505 1013 l 492 940 l 376 940 l 284 416 q 293 145 250 222 q 477 69 337 69 q 687 145 617 69 q 792 416 758 222 l 883 940 l 767 940 l 779 1013 l 1087 1013 l 1074 940 l 958 940 l 864 402 q 728 75 824 171 q 439 -20 631 -20 q 183 76 247 -20 q 158 402 118 172 l 252 940 m 672 1288 l 752 1109 l 680 1109 l 552 1288 l 672 1288 "},"╾":{"x_min":-12,"x_max":765.0625,"ha":752,"o":"m -12 278 l -12 511 l 388 511 l 388 453 l 765 453 l 765 336 l 388 336 l 388 278 l -12 278 "},"ᵗ":{"x_min":22.21875,"x_max":297.34375,"ha":308,"o":"m 84 816 l 22 816 l 30 857 l 93 857 l 118 982 l 188 982 l 164 857 l 297 857 l 289 816 l 156 816 l 106 559 q 100 511 100 529 q 102 493 100 499 q 137 479 110 479 q 180 495 164 479 q 204 548 196 511 l 258 548 q 211 467 243 492 q 123 442 179 442 q 41 468 62 442 q 29 516 29 484 q 33 559 29 535 l 84 816 "},"ὓ":{"x_min":95.796875,"x_max":710.59375,"ha":760,"o":"m 311 1151 q 356 1134 338 1151 q 376 1061 384 1108 q 341 997 369 1023 q 285 970 317 973 q 322 863 285 914 l 274 842 q 270 846 272 844 q 212 1050 187 940 l 214 1061 q 238 1114 219 1091 q 311 1151 269 1151 m 537 1110 l 651 855 l 580 855 l 417 1110 l 537 1110 m 513 721 l 582 721 q 698 588 675 667 q 695 345 723 500 q 645 205 683 270 q 550 88 607 137 q 436 20 497 43 q 309 -3 375 -3 q 157 62 210 -3 q 131 237 110 119 l 203 648 l 95 648 l 108 721 l 328 721 l 244 237 q 247 108 228 148 q 322 66 266 66 q 482 155 398 66 q 573 356 550 227 q 589 579 605 539 q 506 680 560 648 l 513 721 "},"𝛹":{"x_min":134.28125,"x_max":1136.609375,"ha":1096,"o":"m 828 618 l 861 815 l 861 815 q 1013 1013 895 1013 l 1136 1013 l 1123 940 l 1061 940 q 985 815 1006 940 l 948 607 q 819 330 915 413 q 570 256 736 256 l 539 72 l 655 72 l 642 0 l 286 0 l 299 72 l 415 72 l 446 256 q 226 330 281 256 q 192 607 160 418 l 229 815 q 196 940 252 940 l 134 940 l 147 1013 l 269 1013 q 352 815 387 1013 l 352 815 l 318 618 q 335 391 289 455 q 460 329 367 346 l 566 940 l 450 940 l 463 1013 l 819 1013 l 807 940 l 691 940 l 584 329 q 731 391 682 346 q 828 618 798 455 "},"Ҷ":{"x_min":88.328125,"x_max":988.9375,"ha":936,"o":"m 457 0 l 470 72 l 584 72 l 649 443 l 457 443 q 210 520 276 443 q 167 728 143 598 l 204 940 l 88 940 l 100 1013 l 451 1013 l 438 940 l 326 940 l 289 728 q 308 570 270 625 q 500 516 346 516 l 662 516 l 737 940 l 621 940 l 634 1013 l 988 1013 l 976 940 l 860 940 l 708 72 l 824 72 l 773 -218 l 708 -218 q 717 -107 717 -215 q 664 0 717 0 l 457 0 "},"Ⴣ":{"x_min":147.765625,"x_max":986.046875,"ha":929,"o":"m 468 69 l 546 69 l 625 479 l 415 479 q 311 485 356 479 q 239 508 267 492 q 195 552 210 525 q 181 619 181 578 q 183 651 181 634 q 189 686 185 667 l 225 886 l 147 886 l 161 957 l 464 957 l 450 886 l 375 886 l 341 707 q 335 650 335 678 q 429 552 335 552 l 638 552 l 745 1107 l 667 1107 l 680 1178 l 986 1178 l 973 1107 l 893 1107 l 694 69 l 774 69 l 761 0 l 455 0 l 468 69 "},"┢":{"x_min":278,"x_max":764.609375,"ha":752,"o":"m 278 -419 l 278 512 l 327 512 l 327 1352 l 425 1352 l 425 512 l 764 512 l 764 279 l 473 279 l 473 -419 l 278 -419 "},"⤤":{"x_min":237,"x_max":862,"ha":1047,"o":"m 355 185 q 337 132 337 163 q 356 80 337 102 q 403 59 375 59 q 450 80 430 59 l 519 2 q 402 -52 471 -52 q 285 2 334 -52 q 237 132 237 56 q 285 263 237 208 l 724 750 l 496 818 l 500 825 l 858 825 l 862 821 l 862 423 l 856 418 l 794 672 l 355 185 "},"ჳ":{"x_min":-37,"x_max":745.828125,"ha":726,"o":"m 354 344 q 411 355 381 344 q 472 387 442 367 q 529 433 501 407 q 579 490 556 460 q 618 553 602 521 q 644 618 635 586 l 617 618 q 580 590 602 603 q 534 565 559 577 q 484 544 510 554 q 434 528 458 534 q 388 517 409 521 q 351 514 366 514 q 271 519 309 514 q 205 537 233 524 q 160 574 177 551 q 144 632 144 597 q 146 656 144 644 q 150 681 148 668 q 165 725 156 706 q 182 760 173 745 q 202 788 191 775 q 226 813 213 800 l 344 769 q 290 708 308 739 q 272 642 272 676 q 276 619 272 630 q 290 598 280 607 q 319 583 301 589 q 365 578 337 578 q 451 588 411 578 q 528 618 492 598 q 598 668 565 638 q 665 737 632 697 l 745 737 q 703 604 726 661 q 655 504 680 547 q 601 432 629 462 q 546 381 574 402 q 489 345 517 360 q 434 317 461 330 q 543 238 507 288 q 579 119 579 188 q 577 83 579 102 q 570 44 575 64 l 551 -22 q 499 -143 534 -89 q 415 -234 463 -197 q 310 -292 368 -272 q 190 -313 252 -313 q 96 -295 138 -313 q 25 -246 54 -277 q -20 -175 -4 -216 q -37 -89 -37 -134 q -28 -27 -37 -57 q 57 123 -3 67 q 210 196 118 178 l 214 153 q 185 124 201 144 q 154 78 169 104 q 127 24 139 52 q 110 -27 116 -3 q 99 -76 103 -53 q 96 -120 96 -100 q 101 -165 96 -145 q 121 -199 107 -185 q 155 -221 134 -214 q 207 -229 176 -229 q 265 -221 236 -229 q 321 -194 295 -213 q 367 -144 346 -176 q 400 -66 388 -113 l 437 75 q 446 123 443 100 q 450 165 450 145 q 425 243 450 214 q 344 273 400 273 l 286 273 l 303 344 l 354 344 "},"∝":{"x_min":135,"x_max":711,"ha":846,"o":"m 484 451 q 413 541 454 511 q 320 571 373 571 q 220 525 259 571 q 181 409 181 480 q 217 295 181 340 q 307 250 253 250 q 396 294 356 250 q 484 451 436 339 m 711 153 q 621 192 666 153 q 527 328 576 231 q 436 192 484 235 q 331 150 389 150 q 191 225 248 150 q 135 413 135 301 q 185 605 135 532 q 318 679 236 679 q 422 637 376 679 q 514 499 468 595 q 603 638 555 593 q 711 683 651 683 l 711 581 q 645 535 685 581 q 558 379 605 490 q 629 289 588 319 q 711 259 670 259 l 711 153 "},"Ẹ":{"x_min":-18.984375,"x_max":891.796875,"ha":912,"o":"m -18 0 l -6 72 l 109 72 l 261 940 l 145 940 l 158 1013 l 891 1013 l 852 787 l 777 787 l 802 929 l 383 929 l 324 590 l 622 590 l 644 716 l 720 716 l 661 380 l 585 380 l 608 507 l 309 507 l 235 83 l 663 83 l 689 225 l 763 225 l 724 0 l -18 0 m 309 -130 q 364 -107 335 -107 q 410 -130 394 -107 q 421 -186 427 -153 q 391 -243 415 -221 q 336 -266 367 -266 q 289 -243 305 -266 q 278 -186 273 -221 q 309 -130 284 -153 "},"⬇":{"x_min":269,"x_max":779,"ha":1048,"o":"m 363 1005 l 686 1005 l 686 296 l 779 296 l 779 254 l 527 -28 l 521 -28 l 269 254 l 269 296 l 363 296 l 363 1005 "},"▎":{"x_min":-12,"x_max":234,"ha":961,"o":"m -12 -347 l -12 1070 l 234 1070 l 234 -347 l -12 -347 "},"≠":{"x_min":132,"x_max":915,"ha":1047,"o":"m 132 629 l 603 629 l 759 845 l 836 776 l 729 629 l 915 629 l 915 520 l 646 520 l 527 352 l 915 352 l 915 243 l 442 243 l 284 26 l 208 95 l 314 243 l 132 243 l 132 352 l 400 352 l 518 520 l 132 520 l 132 629 "},"ƀ":{"x_min":53.640625,"x_max":721,"ha":800,"o":"m 225 984 l 118 984 l 130 1056 l 350 1056 l 323 904 l 517 904 l 502 821 l 309 821 l 272 608 q 373 708 316 676 q 505 741 430 741 q 682 635 625 741 q 721 469 721 566 q 710 360 721 418 q 586 85 680 191 q 372 -20 492 -20 q 252 12 297 -20 q 185 112 206 44 l 165 0 l 53 0 l 197 821 l 89 821 l 103 904 l 211 904 l 225 984 m 222 324 q 213 228 213 271 q 232 125 213 166 q 351 58 265 58 q 495 134 437 58 q 578 360 552 211 q 591 483 591 429 q 574 586 591 545 q 457 663 543 663 q 314 594 371 663 q 235 396 257 525 l 222 324 "},"ɼ":{"x_min":63.0625,"x_max":684.265625,"ha":597,"o":"m 684 722 l 652 542 l 587 542 q 575 622 594 596 q 509 649 556 649 q 371 585 427 649 q 295 401 316 521 l 174 -287 l 63 -287 l 226 650 l 119 650 l 131 721 l 351 721 l 328 593 q 433 704 375 668 q 565 741 491 741 q 622 736 593 741 q 684 722 652 731 "},"╤":{"x_min":-12,"x_max":765,"ha":752,"o":"m 327 -419 l 327 220 l -12 220 l -12 337 l 765 337 l 765 220 l 425 220 l 425 -419 l 327 -419 m -12 453 l -12 570 l 765 570 l 765 453 l -12 453 "},"ᵸ":{"x_min":-12.203125,"x_max":698.515625,"ha":686,"o":"m -12 453 l -4 493 l 68 493 l 164 979 l 91 979 l 99 1020 l 323 1020 l 315 979 l 242 979 l 204 783 l 501 783 l 539 979 l 466 979 l 474 1020 l 698 1020 l 691 979 l 618 979 l 522 493 l 595 493 l 587 453 l 363 453 l 370 493 l 444 493 l 492 737 l 194 737 l 146 493 l 219 493 l 211 453 l -12 453 "},"ϴ":{"x_min":58.0625,"x_max":967.265625,"ha":1025,"o":"m 815 507 l 210 507 q 227 167 170 281 q 433 53 283 53 q 680 167 583 53 q 815 507 776 281 m 827 590 q 798 843 842 752 q 591 958 741 958 q 345 843 441 958 q 227 590 268 752 l 827 590 m 421 -20 q 256 13 328 -20 q 136 113 184 47 q 65 286 81 189 q 70 505 48 382 q 141 724 91 627 q 273 897 191 821 q 427 997 345 963 q 604 1031 510 1031 q 899 886 802 1031 q 954 505 996 741 q 883 286 933 383 q 751 113 832 188 q 596 13 679 47 q 421 -20 514 -20 "},"ʔ":{"x_min":50.1875,"x_max":595.234375,"ha":670,"o":"m 170 72 l 256 565 l 327 565 q 416 607 382 565 q 472 779 448 647 q 476 948 495 908 q 402 990 457 990 q 320 959 351 990 q 273 865 288 929 l 214 865 l 240 1011 q 324 1046 282 1035 q 410 1057 366 1057 q 563 993 514 1057 q 585 779 612 930 q 487 560 558 624 q 358 506 428 506 l 282 72 l 388 72 l 376 0 l 269 0 l 158 0 l 50 0 l 63 72 l 170 72 "},"𝑠":{"x_min":14.578125,"x_max":599.125,"ha":641,"o":"m 43 208 l 108 208 q 106 170 106 188 q 256 47 106 47 q 430 170 408 47 q 432 204 432 182 q 411 251 432 225 q 303 309 390 276 l 227 340 q 123 408 148 370 q 98 491 98 446 q 100 529 98 508 q 193 684 118 628 q 377 741 268 741 q 599 682 485 741 l 571 525 l 507 525 q 510 554 510 540 q 479 638 510 603 q 376 673 448 673 q 213 562 233 673 q 211 530 211 550 q 231 485 211 509 q 328 433 251 461 l 412 402 q 530 322 498 370 q 553 255 553 288 q 450 39 553 113 q 246 -20 369 -20 q 14 39 123 -20 l 43 208 "},"ᾞ":{"x_min":120.71875,"x_max":1391.609375,"ha":1372,"o":"m 310 1152 q 370 1114 352 1152 q 375 1061 381 1091 l 374 1050 q 244 846 360 940 q 240 842 241 844 l 198 863 q 271 970 255 914 q 225 997 242 973 q 213 1061 206 1023 q 259 1135 221 1108 q 310 1152 283 1152 m 326 1231 l 298 1268 q 276 1289 285 1284 q 255 1295 267 1295 q 210 1267 229 1295 q 179 1190 191 1241 l 120 1190 q 177 1331 138 1281 q 273 1381 217 1381 q 314 1371 296 1381 q 351 1339 332 1362 l 379 1302 q 400 1281 389 1286 q 421 1276 408 1276 q 467 1303 448 1276 q 498 1381 486 1330 l 556 1381 q 499 1239 539 1289 q 404 1190 460 1190 q 363 1199 381 1190 q 326 1231 345 1209 m 262 0 l 275 72 l 391 72 l 543 940 l 427 940 l 439 1013 l 795 1013 l 782 940 l 666 940 l 605 590 l 1078 590 l 1139 940 l 1023 940 l 1036 1013 l 1391 1013 l 1379 940 l 1263 940 l 1111 72 l 1227 72 l 1214 0 l 858 0 l 871 72 l 987 72 l 1063 507 l 591 507 l 514 72 l 630 72 l 618 0 l 262 0 m 799 -277 l 753 -288 q 665 -171 639 -315 l 680 -83 l 771 -83 l 754 -180 q 775 -234 743 -243 l 809 -225 l 799 -277 "},"∸":{"x_min":132,"x_max":915,"ha":1047,"o":"m 442 687 q 465 751 442 725 q 523 778 489 778 q 581 751 557 778 q 605 687 605 724 q 581 623 605 649 q 523 597 557 597 q 465 622 488 597 q 442 687 442 648 m 132 491 l 915 491 l 915 381 l 132 381 l 132 491 "},"⇶":{"x_min":71,"x_max":1001,"ha":1047,"o":"m 71 945 l 857 945 l 782 1092 l 789 1092 l 1001 893 l 1001 886 l 789 687 l 782 687 l 857 835 l 71 835 l 71 945 m 71 63 l 857 63 l 782 210 l 789 210 l 1001 11 l 1001 4 l 789 -194 l 782 -194 l 857 -47 l 71 -47 l 71 63 m 71 504 l 857 504 l 782 651 l 789 651 l 1001 452 l 1001 445 l 789 246 l 782 246 l 857 394 l 71 394 l 71 504 "},"∕":{"x_min":-99.015625,"x_max":521.515625,"ha":421,"o":"m 423 1013 l 521 1013 l -1 -129 l -99 -129 l 423 1013 "},"Ᾰ":{"x_min":-94.59375,"x_max":839.921875,"ha":903,"o":"m 394 1287 l 452 1287 q 479 1209 452 1233 q 567 1185 506 1185 q 664 1209 629 1185 q 717 1287 700 1233 l 776 1287 q 696 1141 753 1190 q 551 1092 639 1092 q 423 1140 462 1092 q 394 1287 383 1189 m 226 367 l 561 367 l 478 848 l 226 367 m -94 0 l -82 72 l -2 72 l 486 1013 l 589 1013 l 750 72 l 839 72 l 827 0 l 496 0 l 508 72 l 610 72 l 572 294 l 188 294 l 74 72 l 173 72 l 161 0 l -94 0 "},"∺":{"x_min":132,"x_max":915,"ha":1047,"o":"m 132 686 q 155 750 132 724 q 213 777 179 777 q 270 750 246 777 q 295 686 295 723 q 270 622 295 648 q 213 596 246 596 q 155 621 178 596 q 132 686 132 647 m 155 120 q 132 184 132 146 q 155 248 132 222 q 213 275 179 275 q 270 248 246 275 q 295 184 295 222 q 270 120 295 146 q 213 94 246 94 q 155 120 178 94 m 753 686 q 776 750 753 724 q 833 777 799 777 q 891 750 867 777 q 915 686 915 723 q 891 622 915 648 q 833 596 867 596 q 776 621 799 596 q 753 686 753 647 m 776 120 q 753 184 753 146 q 776 248 753 222 q 833 275 799 275 q 891 248 867 275 q 915 184 915 222 q 891 120 915 146 q 833 94 867 94 q 776 120 799 94 m 132 490 l 915 490 l 915 380 l 132 380 l 132 490 "},"⇿":{"x_min":45.75,"x_max":1000.578125,"ha":1047,"o":"m 709 505 l 709 733 l 746 733 l 1000 453 l 1000 446 l 746 166 l 709 166 l 709 395 l 338 395 l 338 166 l 300 166 l 45 446 l 45 453 l 300 733 l 338 733 l 338 505 l 709 505 m 770 608 l 770 291 l 913 450 l 770 608 m 277 291 l 277 608 l 132 450 l 277 291 "},"Ϋ":{"x_min":61.71875,"x_max":925.015625,"ha":825,"o":"m 462 1278 q 508 1254 491 1278 q 520 1199 525 1230 q 489 1143 514 1165 q 434 1120 465 1120 q 387 1143 404 1120 q 377 1199 371 1165 q 408 1254 383 1230 q 462 1278 434 1278 m 700 1278 q 745 1254 729 1278 q 757 1199 762 1230 q 727 1143 751 1165 q 672 1120 702 1120 q 625 1143 642 1120 q 615 1199 609 1165 q 645 1254 620 1230 q 700 1278 671 1278 m 147 0 l 160 72 l 276 72 l 340 436 l 147 940 l 61 940 l 74 1013 l 413 1013 l 400 940 l 294 940 l 450 530 l 749 940 l 646 940 l 659 1013 l 925 1013 l 912 940 l 826 940 l 465 449 l 400 72 l 516 72 l 503 0 l 147 0 "},"ː":{"x_min":79.34375,"x_max":341.796875,"ha":421,"o":"m 236 0 l 79 0 l 171 182 l 208 182 l 236 0 m 184 603 l 341 603 l 249 421 l 212 421 l 184 603 "},"𝑀":{"x_min":-18.984375,"x_max":1305.46875,"ha":1280,"o":"m -18 0 l -6 72 l 109 72 l 261 940 l 139 940 l 151 1013 l 417 1013 l 611 292 l 1056 1013 l 1305 1013 l 1293 940 l 1171 940 l 1019 72 l 1135 72 l 1123 0 l 767 0 l 779 72 l 895 72 l 1032 854 l 596 149 l 510 149 l 321 854 l 184 72 l 300 72 l 288 0 l -18 0 "},"ö":{"x_min":53,"x_max":699.171875,"ha":752,"o":"m 321 47 q 471 126 411 47 q 558 360 531 206 q 571 486 571 431 q 553 594 571 551 q 430 673 520 673 q 280 594 340 673 q 193 360 220 515 q 181 235 181 290 q 198 126 181 170 q 321 47 231 47 m 309 -20 q 100 83 168 -20 q 53 261 53 156 q 62 360 53 307 q 196 637 92 533 q 442 741 300 741 q 652 637 584 741 q 699 460 699 565 q 689 360 699 413 q 555 84 659 188 q 309 -20 451 -20 m 389 1064 q 436 1040 419 1064 q 446 984 452 1017 q 417 927 440 949 q 361 905 392 905 q 315 927 331 905 q 305 984 298 949 q 335 1040 310 1017 q 389 1064 360 1064 m 627 1064 q 673 1040 656 1064 q 684 984 689 1017 q 654 927 678 949 q 599 905 629 905 q 552 927 568 905 q 542 984 536 949 q 573 1040 547 1017 q 627 1064 598 1064 "},"↲":{"x_min":290.34375,"x_max":742,"ha":1047,"o":"m 434 201 l 552 -27 l 545 -27 l 290 252 l 290 259 l 545 539 l 552 539 l 434 311 l 643 311 l 643 1005 l 742 1005 l 742 201 l 434 201 "},"▥":{"x_min":113,"x_max":1067,"ha":1180,"o":"m 113 -171 l 113 893 l 1067 893 l 1067 -171 l 113 -171 m 892 -92 l 999 -92 l 999 814 l 892 814 l 892 -92 m 714 -92 l 822 -92 l 822 814 l 714 814 l 714 -92 m 537 -92 l 644 -92 l 644 814 l 537 814 l 537 -92 m 358 -92 l 467 -92 l 467 814 l 358 814 l 358 -92 m 182 -92 l 289 -92 l 289 814 l 182 814 l 182 -92 "},"╧":{"x_min":-12,"x_max":765,"ha":752,"o":"m -12 220 l -12 337 l 765 337 l 765 220 l -12 220 m -12 453 l -12 570 l 327 570 l 327 1351 l 425 1351 l 425 570 l 765 570 l 765 453 l -12 453 "},"ẉ":{"x_min":69.84375,"x_max":1043.703125,"ha":1069,"o":"m 729 158 q 829 291 811 255 q 962 648 896 427 l 868 648 l 880 721 l 1043 721 l 1030 648 l 1030 648 q 908 274 968 396 q 725 0 821 101 l 632 0 l 565 539 l 311 0 l 221 0 l 142 648 l 69 648 l 82 721 l 249 721 l 318 158 l 583 721 l 662 721 l 729 158 m 387 -130 q 441 -107 412 -107 q 488 -130 471 -107 q 499 -186 504 -153 q 469 -243 493 -221 q 413 -266 444 -266 q 366 -243 382 -266 q 356 -186 350 -221 q 387 -130 362 -153 "},"Ȧ":{"x_min":-94.9375,"x_max":839.578125,"ha":903,"o":"m 549 1256 q 603 1280 575 1280 q 649 1256 632 1280 q 661 1201 666 1232 q 630 1145 655 1167 q 575 1122 606 1122 q 528 1145 545 1122 q 518 1201 512 1167 q 549 1256 523 1232 m 226 367 l 560 367 l 478 848 l 226 367 m -94 0 l -82 72 l -2 72 l 486 1013 l 589 1013 l 750 72 l 839 72 l 827 0 l 495 0 l 507 72 l 609 72 l 572 294 l 188 294 l 73 72 l 173 72 l 161 0 l -94 0 "},"Ḽ":{"x_min":-18.984375,"x_max":756.84375,"ha":830,"o":"m -18 0 l -6 72 l 109 72 l 261 940 l 145 940 l 158 1013 l 514 1013 l 501 940 l 385 940 l 235 83 l 651 83 l 681 253 l 756 253 l 712 0 l -18 0 m 282 -79 l 384 -79 l 482 -334 l 412 -334 l 319 -157 l 164 -333 l 93 -333 l 282 -79 "},"8":{"x_min":36.9375,"x_max":732.53125,"ha":795,"o":"m 542 276 q 523 444 561 384 q 397 505 484 505 q 250 444 309 505 q 172 276 191 384 q 191 107 153 167 q 317 47 229 47 q 463 107 404 47 q 542 276 522 167 m 602 768 q 586 912 619 860 q 477 964 553 964 q 350 912 402 964 q 283 768 299 860 q 300 623 267 675 q 408 572 333 572 q 536 623 484 572 q 602 768 587 675 m 497 538 q 643 453 598 523 q 670 276 689 384 q 551 56 646 133 q 305 -20 457 -20 q 86 56 154 -20 q 43 276 18 133 q 132 453 62 384 q 309 538 202 523 q 182 616 221 557 q 159 768 143 676 q 268 960 181 890 q 489 1031 356 1031 q 685 960 621 1031 q 727 768 748 890 q 651 616 710 676 q 497 538 592 557 "},"⁆":{"x_min":-10.84375,"x_max":488.953125,"ha":488,"o":"m 118 412 l 126 462 l 268 462 l 360 984 l 193 984 l 205 1056 l 488 1056 l 272 -183 l -10 -183 l 1 -111 l 168 -111 l 259 412 l 118 412 "},"ↂ":{"x_min":58,"x_max":1448,"ha":1508,"o":"m 759 187 q 954 496 906 221 q 966 623 966 568 q 866 804 966 779 l 759 187 m 747 118 l 738 72 l 852 72 q 1144 184 1029 72 q 1295 507 1259 297 q 1308 635 1308 576 q 1257 828 1308 754 q 1004 940 1181 940 l 890 940 l 878 874 q 1047 773 990 860 q 1095 596 1095 701 q 1085 496 1095 550 q 951 219 1055 324 q 747 118 863 131 m 742 804 q 547 496 596 770 q 535 369 535 425 q 635 187 535 213 l 742 804 m 754 874 l 766 939 l 650 939 q 360 828 473 939 q 210 507 247 717 q 198 379 198 438 q 248 184 198 260 q 498 72 323 72 l 614 72 l 623 118 q 454 219 511 131 q 406 397 406 292 q 416 496 406 443 q 550 773 446 669 q 754 874 639 860 m 848 0 l 479 0 q 136 134 244 0 q 58 383 58 231 q 69 507 58 441 q 266 879 111 745 q 657 1013 420 1013 l 1026 1013 q 1369 879 1261 1013 q 1448 632 1448 782 q 1436 507 1448 574 q 1239 134 1395 268 q 848 0 1084 0 "},"ħ":{"x_min":60.6875,"x_max":690.375,"ha":805,"o":"m 60 0 l 204 821 l 96 821 l 111 904 l 218 904 l 232 984 l 125 984 l 138 1056 l 357 1056 l 331 904 l 523 904 l 509 821 l 316 821 l 276 593 q 376 703 320 666 q 498 741 432 741 q 644 672 606 741 q 668 562 668 631 q 657 458 668 516 l 590 72 l 690 72 l 678 0 l 465 0 l 538 419 q 551 536 551 489 q 541 600 551 577 q 446 649 520 649 q 316 585 367 649 q 243 401 264 522 l 172 0 l 60 0 "},"◉":{"x_min":68,"x_max":1022,"ha":1090,"o":"m 390 63 q 235 360 235 162 q 390 658 235 559 q 545 709 467 709 q 700 658 623 709 q 855 360 855 559 q 700 63 855 162 q 545 13 623 13 q 390 63 467 13 m 341 751 q 139 361 139 621 q 341 -28 139 101 q 544 -94 443 -94 q 747 -28 646 -94 q 950 361 950 101 q 747 751 950 621 q 544 817 646 817 q 341 751 443 817 m 306 -97 q 68 361 68 56 q 306 820 68 666 q 544 897 425 897 q 783 820 664 897 q 1022 361 1022 666 q 783 -97 1022 56 q 544 -174 664 -174 q 306 -97 425 -174 "},"ᶜ":{"x_min":24,"x_max":416.03125,"ha":440,"o":"m 379 574 q 301 475 350 509 q 185 442 252 442 q 53 500 95 442 q 24 599 24 540 q 28 654 24 624 q 114 809 48 751 q 269 868 180 868 q 344 858 307 868 q 416 831 381 849 l 396 728 l 355 728 q 355 738 355 733 q 335 805 355 783 q 262 830 312 830 q 167 786 204 830 q 112 654 129 742 q 105 583 105 614 q 115 523 105 546 q 193 479 135 479 q 270 502 239 479 q 321 574 302 526 l 379 574 "},"ἵ":{"x_min":85.640625,"x_max":564.125,"ha":490,"o":"m 190 1152 q 235 1135 217 1152 q 255 1061 263 1109 q 220 998 248 1023 q 164 971 196 974 q 201 863 164 915 l 153 843 q 149 847 151 844 q 91 1050 66 941 l 93 1061 q 117 1115 98 1091 q 190 1152 148 1152 m 442 1112 l 564 1112 l 311 857 l 239 857 l 442 1112 m 124 197 l 203 649 l 96 649 l 109 722 l 328 722 l 236 197 q 261 79 220 102 q 376 112 292 62 l 362 30 q 152 34 224 -48 q 124 197 105 88 "},"⥖":{"x_min":71,"x_max":975.671875,"ha":1047,"o":"m 170 505 l 975 505 l 975 395 l 274 395 l 392 166 l 385 166 l 170 403 l 170 183 l 71 183 l 71 716 l 170 716 l 170 505 "},"˙":{"x_min":355.359375,"x_max":501.171875,"ha":625,"o":"m 387 1041 q 442 1065 413 1065 q 488 1041 472 1065 q 499 985 505 1018 q 469 928 493 950 q 414 906 445 906 q 367 928 383 906 q 356 985 351 950 q 387 1041 362 1018 "},"𝛦":{"x_min":-18.984375,"x_max":891.796875,"ha":912,"o":"m -18 0 l -6 72 l 109 72 l 261 940 l 145 940 l 158 1013 l 891 1013 l 852 787 l 777 787 l 802 929 l 383 929 l 324 590 l 622 590 l 644 716 l 720 716 l 661 380 l 585 380 l 608 507 l 309 507 l 235 83 l 663 83 l 689 225 l 763 225 l 724 0 l -18 0 "},"„":{"x_min":34.59375,"x_max":557.453125,"ha":647,"o":"m 34 -135 q 138 -24 100 -88 q 191 128 175 38 l 195 154 l 316 154 q 232 -45 290 37 q 73 -189 173 -128 l 34 -135 m 275 -135 q 379 -24 341 -88 q 433 128 417 38 l 437 154 l 557 154 q 474 -45 533 37 q 314 -189 415 -128 l 275 -135 "},"ӷ":{"x_min":90,"x_max":614,"ha":631,"o":"m 90 144 q 173 319 90 242 q 307 404 228 370 l 378 434 q 497 577 497 484 q 478 641 497 608 q 401 674 459 674 q 127 504 254 674 l 97 545 q 179 643 131 600 q 252 699 227 685 q 418 741 323 741 q 564 690 515 741 q 614 577 614 640 q 557 423 614 491 q 407 317 501 355 q 283 261 313 279 q 207 141 207 216 q 224 84 207 110 q 311 46 251 46 q 545 178 434 46 l 573 210 l 605 168 q 560 111 592 149 q 539 -12 539 52 q 539 -140 539 -76 q 489 -243 539 -216 q 351 -289 439 -271 l 351 -241 q 426 -205 395 -234 q 456 -113 456 -177 q 480 -31 456 -57 q 504 34 504 -5 q 498 54 504 52 q 286 -20 407 -20 q 141 30 193 -20 q 90 144 90 81 "},"δ":{"x_min":25.359375,"x_max":694.875,"ha":752,"o":"m 255 703 q 203 753 216 720 q 203 884 186 791 q 286 1017 218 971 q 474 1063 354 1063 q 568 1052 507 1063 q 694 1019 630 1040 l 671 885 l 604 869 q 565 960 604 929 q 470 991 527 991 q 365 957 413 991 q 308 877 315 922 q 317 791 300 813 q 414 741 355 741 q 624 637 557 741 q 661 360 692 533 q 527 84 631 188 q 281 -20 423 -20 q 72 84 140 -20 q 34 360 4 188 q 168 637 64 533 q 255 703 214 682 m 292 47 q 443 126 383 47 q 530 360 503 206 q 525 594 557 515 q 402 673 493 673 q 252 594 311 673 q 165 360 192 515 q 170 126 138 206 q 292 47 203 47 "},"ᶪ":{"x_min":3.390625,"x_max":324.84375,"ha":328,"o":"m 216 493 l 283 493 l 267 413 q 210 315 254 351 q 100 280 166 280 q 48 286 72 280 q 3 305 25 292 l 20 389 l 56 389 q 64 335 51 352 q 109 318 77 318 q 166 341 144 318 q 196 413 186 364 l 204 453 l 137 453 l 246 1004 l 178 1004 l 185 1044 l 324 1044 l 216 493 "},"˞":{"x_min":-8.8125,"x_max":507.265625,"ha":522,"o":"m 6 588 l 209 706 l 278 706 l 271 664 q 288 535 256 575 q 373 493 323 493 q 471 523 438 493 l 507 470 q 453 437 474 443 q 364 426 417 426 q 247 488 294 426 q 214 633 206 544 l -8 505 l 6 588 "},"ǥ":{"x_min":43.75,"x_max":795.296875,"ha":799,"o":"m 621 648 q 555 672 621 672 q 347 570 437 672 q 225 281 258 467 q 217 185 217 226 q 234 114 217 142 q 343 58 265 58 q 485 126 428 58 q 564 325 541 194 l 415 325 l 428 398 l 576 398 l 621 648 m 676 325 l 622 15 q 503 -224 594 -146 q 269 -309 405 -309 q 149 -296 205 -309 q 43 -257 93 -283 l 70 -106 l 128 -106 q 163 -209 128 -176 q 274 -241 198 -241 q 429 -179 372 -241 q 509 15 486 -117 l 527 112 q 425 12 482 44 q 295 -20 367 -20 q 132 60 187 -20 q 98 182 98 111 q 106 272 98 223 q 297 636 148 512 q 572 741 424 741 q 746 721 709 741 l 689 398 l 795 398 l 782 325 l 676 325 "},"‷":{"x_min":112.578125,"x_max":663.921875,"ha":650,"o":"m 297 760 l 244 760 l 112 1013 l 236 1013 l 297 760 m 663 760 l 611 760 l 478 1013 l 602 1013 l 663 760 m 480 760 l 427 760 l 295 1013 l 419 1013 l 480 760 "},"შ":{"x_min":69,"x_max":814,"ha":754,"o":"m 647 314 q 595 194 630 251 q 511 93 560 137 q 402 25 462 50 q 273 0 341 0 q 182 20 220 0 q 118 75 143 40 q 80 156 92 109 q 69 254 69 202 q 83 374 69 316 q 125 484 98 433 q 189 579 152 536 q 268 653 225 622 q 359 701 311 684 q 457 719 407 719 q 507 705 484 719 q 548 670 531 691 q 577 624 566 649 q 588 577 588 599 l 692 988 q 697 1013 697 1002 q 689 1040 697 1029 q 670 1056 682 1050 q 642 1064 658 1062 q 611 1067 627 1067 q 574 1057 588 1067 q 549 1030 560 1048 q 531 985 539 1012 q 514 922 523 958 l 493 840 l 401 840 l 421 922 q 431 967 427 947 q 435 1004 435 987 q 420 1051 435 1036 q 375 1067 406 1067 q 343 1062 360 1067 q 312 1049 327 1058 q 285 1026 297 1040 q 269 993 274 1012 q 259 949 262 967 q 256 918 256 931 q 261 892 256 901 q 277 879 267 884 l 246 827 q 209 850 224 836 q 185 879 194 863 q 172 912 176 895 q 168 947 168 930 q 173 987 168 967 q 206 1065 184 1033 q 253 1117 227 1097 q 309 1144 280 1136 q 367 1153 338 1153 q 456 1112 428 1153 q 485 1001 485 1072 q 523 1061 500 1033 q 572 1110 546 1089 q 626 1141 599 1130 q 676 1153 653 1153 q 733 1147 708 1153 q 776 1126 759 1141 q 804 1086 794 1111 q 814 1023 814 1062 q 794 894 814 971 l 647 314 m 535 377 q 547 435 543 407 q 551 485 551 462 q 518 595 551 558 q 432 633 486 633 q 356 614 388 633 q 300 563 324 596 q 258 484 275 530 q 225 381 240 437 q 206 291 213 333 q 199 215 199 250 q 204 161 199 185 q 223 121 210 138 q 256 96 236 105 q 305 88 277 88 q 376 96 344 88 q 435 135 408 105 q 486 223 462 165 q 535 377 510 280 "},"𝜗":{"x_min":63.75,"x_max":853.8125,"ha":893,"o":"m 853 564 l 843 506 l 767 506 q 616 133 723 275 q 362 -15 504 -15 q 162 133 223 -15 q 165 648 91 301 l 63 648 l 76 721 l 290 721 q 259 164 224 303 q 373 41 289 41 q 530 164 462 41 q 633 492 591 275 q 416 541 492 492 q 346 811 311 611 q 606 1072 392 1072 q 765 924 717 1072 q 777 564 811 781 l 853 564 m 646 565 q 668 893 684 814 q 598 1016 644 1016 q 459 810 495 1016 q 481 626 436 678 q 646 565 537 565 "},"⇓":{"x_min":269,"x_max":779.328125,"ha":1048,"o":"m 779 262 l 779 254 l 527 -28 l 521 -28 l 269 254 l 269 262 l 368 201 l 368 1005 l 467 1005 l 467 141 l 524 106 l 582 141 l 582 1005 l 681 1005 l 681 201 l 779 262 "},"⤞":{"x_min":71,"x_max":1001,"ha":1047,"o":"m 434 165 l 551 394 l 71 394 l 71 404 l 71 493 l 71 504 l 551 504 l 434 732 l 441 732 l 688 459 l 840 628 l 1001 451 l 1001 446 l 840 269 l 688 438 l 441 165 l 434 165 "},"р":{"x_min":53.765625,"x_max":771,"ha":799,"o":"m 285 396 l 273 324 q 264 228 264 271 q 283 125 264 166 q 401 58 316 58 q 545 134 487 58 q 629 360 603 211 q 641 483 641 429 q 624 586 641 545 q 507 663 593 663 q 365 594 421 663 q 285 396 308 525 m 217 648 l 109 648 l 122 721 l 342 721 l 322 607 q 424 708 367 676 q 555 741 481 741 q 732 635 675 741 q 771 469 771 566 q 760 360 771 418 q 636 85 730 191 q 422 -20 542 -20 q 302 12 348 -20 q 236 112 257 44 l 165 -289 l 53 -289 l 217 648 "},"Ö":{"x_min":58.0625,"x_max":967.265625,"ha":1025,"o":"m 433 53 q 679 167 583 53 q 814 505 775 281 q 797 843 853 729 q 592 958 741 958 q 345 843 441 958 q 210 505 248 729 q 227 167 170 281 q 433 53 283 53 m 421 -20 q 256 13 328 -20 q 136 113 184 47 q 65 286 81 189 q 70 505 48 382 q 141 724 91 627 q 273 897 191 821 q 427 997 345 963 q 604 1031 510 1031 q 899 886 802 1031 q 954 505 996 741 q 883 286 933 383 q 751 113 832 188 q 596 13 679 47 q 421 -20 514 -20 m 552 1278 q 598 1254 581 1278 q 609 1199 615 1230 q 579 1143 603 1165 q 524 1120 554 1120 q 477 1143 493 1120 q 467 1199 461 1165 q 497 1254 472 1230 q 552 1278 523 1278 m 790 1278 q 835 1254 818 1278 q 847 1199 852 1230 q 816 1143 840 1165 q 762 1120 792 1120 q 714 1143 731 1120 q 704 1199 698 1165 q 735 1254 710 1230 q 790 1278 760 1278 "},"⊡":{"x_min":132,"x_max":916,"ha":1048,"o":"m 132 0 l 132 871 l 916 871 l 916 0 l 132 0 m 442 435 q 465 499 442 473 q 523 526 488 526 q 581 499 557 526 q 605 435 605 472 q 581 371 605 397 q 523 345 557 345 q 465 370 488 345 q 442 435 442 396 m 817 110 l 817 761 l 231 761 l 231 110 l 817 110 "},"Θ":{"x_min":58.0625,"x_max":967.265625,"ha":1025,"o":"m 361 507 l 339 380 l 264 380 l 323 716 l 398 716 l 376 590 l 678 590 l 701 716 l 775 716 l 717 380 l 642 380 l 664 507 l 361 507 m 433 53 q 679 167 583 53 q 814 505 775 281 q 797 843 853 729 q 592 958 741 958 q 345 843 441 958 q 210 505 248 729 q 227 167 170 281 q 433 53 283 53 m 421 -20 q 256 13 328 -20 q 136 113 184 47 q 65 286 81 189 q 70 505 48 382 q 141 724 91 627 q 273 897 191 821 q 427 997 345 963 q 604 1031 510 1031 q 899 886 802 1031 q 954 505 996 741 q 883 286 933 383 q 751 113 832 188 q 596 13 679 47 q 421 -20 514 -20 "},"Ř":{"x_min":-18.984375,"x_max":895.859375,"ha":941,"o":"m 598 503 q 664 459 639 490 q 704 372 690 428 l 784 72 l 895 72 l 882 0 l 668 0 l 582 322 q 528 443 558 416 q 439 471 499 471 l 303 471 l 233 72 l 362 72 l 349 0 l -18 0 l -6 72 l 109 72 l 261 940 l 145 940 l 158 1013 l 620 1013 q 813 942 753 1013 q 850 742 873 871 q 769 578 832 638 q 598 503 705 517 m 316 544 l 495 544 q 640 592 587 544 q 710 742 693 640 q 693 892 728 844 q 565 940 657 940 l 385 940 l 316 544 m 518 1109 l 409 1288 l 480 1288 l 584 1178 l 727 1288 l 798 1288 l 625 1109 l 518 1109 "},"⡅":{"x_min":174,"x_max":376,"ha":916,"o":"m 174 983 q 202 1063 174 1030 q 275 1096 231 1096 q 346 1063 316 1096 q 376 983 376 1030 q 346 903 376 936 q 275 871 316 871 q 202 903 231 871 q 174 983 174 936 m 174 215 q 202 295 174 262 q 275 328 231 328 q 346 295 316 328 q 376 215 376 262 q 346 135 376 168 q 275 103 316 103 q 202 135 231 103 q 174 215 174 168 m 174 -169 q 202 -89 174 -122 q 275 -57 231 -57 q 346 -89 316 -57 q 376 -169 376 -122 q 346 -249 376 -216 q 275 -282 316 -282 q 202 -249 231 -282 q 174 -169 174 -216 "},"ϙ":{"x_min":76.484375,"x_max":722.421875,"ha":752,"o":"m 344 48 q 495 127 435 48 q 581 361 554 206 q 576 594 609 515 q 454 673 544 673 q 304 594 364 673 q 217 361 244 515 q 222 127 189 206 q 344 48 254 48 m 389 -15 l 341 -289 l 229 -289 l 276 -15 q 123 84 179 1 q 85 361 55 189 q 219 637 115 533 q 465 741 323 741 q 675 637 608 741 q 713 361 743 533 q 579 84 682 188 q 389 -15 494 0 "},"⬐":{"x_min":45.828125,"x_max":975.59375,"ha":1047,"o":"m 252 349 l 252 692 l 975 692 l 975 582 l 351 582 l 351 349 l 556 480 l 556 473 l 304 190 l 298 190 l 45 473 l 45 480 l 252 349 "},"𝑧":{"x_min":-12.203125,"x_max":664.609375,"ha":659,"o":"m 497 661 q 627 721 564 661 l 664 721 l 654 662 l 210 147 q 235 139 217 145 q 276 117 255 132 l 306 97 q 404 59 364 59 q 579 160 484 59 l 564 78 q 381 -35 459 -35 q 265 12 332 -35 q 154 59 197 59 q 24 0 88 59 l -12 0 l -2 58 l 441 571 q 417 580 435 574 q 375 602 396 587 l 346 623 q 247 662 288 662 q 73 559 167 662 l 87 642 q 271 756 192 756 q 387 708 319 756 q 497 661 455 661 "},"ᾝ":{"x_min":78.640625,"x_max":1497.734375,"ha":1478,"o":"m 183 1152 q 228 1135 210 1152 q 248 1061 256 1108 q 213 997 241 1023 q 157 970 189 973 q 194 862 157 914 l 146 842 q 142 846 144 843 q 84 1050 59 940 l 86 1061 q 110 1114 91 1091 q 183 1152 141 1152 m 435 1111 l 557 1111 l 304 856 l 232 856 l 435 1111 m 368 0 l 381 72 l 497 72 l 649 940 l 533 940 l 545 1013 l 901 1013 l 888 940 l 772 940 l 711 590 l 1184 590 l 1245 940 l 1129 940 l 1142 1013 l 1497 1013 l 1485 940 l 1369 940 l 1217 72 l 1333 72 l 1320 0 l 964 0 l 977 72 l 1093 72 l 1169 507 l 697 507 l 620 72 l 736 72 l 724 0 l 368 0 m 906 -277 l 860 -288 q 772 -171 746 -315 l 787 -83 l 877 -83 l 860 -180 q 882 -234 850 -243 l 915 -225 l 906 -277 "},"ṅ":{"x_min":87.6875,"x_max":718.390625,"ha":805,"o":"m 87 0 l 201 649 l 93 649 l 106 722 l 326 722 l 304 593 q 404 703 348 666 q 526 741 460 741 q 672 672 633 741 q 696 562 696 631 q 685 458 696 516 l 618 72 l 718 72 l 705 0 l 492 0 l 565 419 q 578 536 578 489 q 568 601 578 577 q 473 650 547 650 q 343 586 395 650 q 270 401 291 523 l 200 0 l 87 0 m 475 1041 q 530 1065 500 1065 q 576 1041 559 1065 q 587 985 592 1018 q 557 928 581 950 q 502 906 533 906 q 455 928 470 906 q 444 985 438 950 q 475 1041 450 1018 "},"ᶼ":{"x_min":4.75,"x_max":518.125,"ha":523,"o":"m 4 453 l 11 485 l 332 816 l 130 816 l 115 746 l 75 746 l 96 857 l 431 857 l 425 824 l 103 493 l 367 493 l 351 413 q 353 341 341 363 q 400 318 365 318 q 451 335 432 318 q 481 389 472 352 l 518 389 l 501 305 q 448 286 475 292 q 394 280 423 280 q 298 315 330 280 q 280 413 267 350 l 288 453 l 4 453 "},"и":{"x_min":85.265625,"x_max":717.3125,"ha":805,"o":"m 604 721 l 717 721 l 603 72 l 709 72 l 696 0 l 478 0 l 500 127 q 400 17 456 55 q 279 -20 345 -20 q 132 48 172 -20 q 109 159 109 89 q 119 262 109 204 l 186 648 l 85 648 l 98 721 l 312 721 l 239 301 q 227 185 227 231 q 236 120 227 143 q 331 72 256 72 q 461 135 409 72 q 534 320 513 199 l 604 721 "},"³":{"x_min":16.28125,"x_max":443.4375,"ha":500,"o":"m 121 995 q 211 1022 168 1013 q 290 1031 254 1031 q 413 994 374 1031 q 440 890 452 957 q 393 807 432 841 q 295 762 355 773 q 396 711 366 751 q 414 603 425 670 q 340 484 400 525 q 179 443 279 443 q 94 452 135 443 q 16 480 54 461 l 36 596 l 79 596 q 98 519 73 545 q 180 493 124 493 q 273 522 237 493 q 320 608 309 552 q 305 703 330 671 q 218 736 280 736 l 185 736 l 194 786 l 210 786 q 305 811 270 786 q 348 886 339 836 q 335 956 356 932 q 269 981 315 981 q 188 959 219 981 q 146 894 158 937 l 103 894 l 121 995 "},"⇀":{"x_min":71,"x_max":1004,"ha":1047,"o":"m 1004 402 l 1004 394 l 71 394 l 71 504 l 814 504 l 696 732 l 703 732 l 1004 402 "},"♬":{"x_min":114.9375,"x_max":1006,"ha":1121,"o":"m 1003 1013 l 1006 1010 l 1006 153 q 846 -5 1006 9 q 693 106 704 -5 q 835 205 693 205 q 949 169 901 205 l 952 169 l 952 618 l 425 618 l 425 157 q 274 -7 425 17 l 272 -7 q 114 116 114 -7 q 259 203 114 203 q 374 164 320 203 l 374 1013 l 1003 1013 m 427 873 l 427 767 l 952 767 l 952 873 l 427 873 "},"͘":{"x_min":28.484375,"x_max":174.296875,"ha":0,"o":"m 61 1041 q 115 1065 86 1065 q 162 1041 145 1065 q 172 985 178 1018 q 143 928 166 950 q 87 906 118 906 q 40 928 56 906 q 29 985 24 950 q 61 1041 35 1018 "},"⥸":{"x_min":71,"x_max":1001,"ha":1047,"o":"m 132 963 l 132 1079 l 915 763 l 915 651 l 132 335 l 132 450 l 766 706 l 132 963 m 71 233 l 857 233 l 739 461 l 746 461 l 1001 181 l 1001 174 l 746 -105 l 739 -105 l 857 123 l 71 123 l 71 233 "},"ᶣ":{"x_min":50.859375,"x_max":448.265625,"ha":498,"o":"m 207 332 l 273 332 l 311 525 q 248 464 284 485 q 172 443 214 443 q 80 481 105 443 q 71 600 55 519 l 113 816 l 50 816 l 58 857 l 193 857 l 147 622 q 145 521 132 548 q 204 494 158 494 q 287 529 254 494 q 332 633 320 565 l 368 816 l 307 816 l 316 857 l 448 857 l 344 332 l 412 332 l 404 292 l 265 292 l 199 292 l 207 332 "},"⢂":{"x_min":174,"x_max":742,"ha":916,"o":"m 174 599 q 202 679 174 646 q 275 712 231 712 q 346 679 316 712 q 376 599 376 646 q 346 519 376 552 q 275 487 316 487 q 202 519 231 487 q 174 599 174 552 m 540 -169 q 568 -89 540 -122 q 641 -57 597 -57 q 712 -89 682 -57 q 742 -169 742 -122 q 712 -249 742 -216 q 641 -282 682 -282 q 568 -249 597 -282 q 540 -169 540 -216 "},"▱":{"x_min":3.390625,"x_max":957.578125,"ha":961,"o":"m 684 182 l 851 541 l 276 541 l 109 182 l 684 182 m 717 105 l 3 105 l 244 618 l 957 618 l 717 105 "},"˨":{"x_min":86.125,"x_max":567.625,"ha":616,"o":"m 375 301 l 484 928 l 567 928 l 405 0 l 322 0 l 358 209 l 86 209 l 101 301 l 375 301 "},"︍":{"x_min":0,"x_max":0,"ha":0},"⤶":{"x_min":199,"x_max":839,"ha":1047,"o":"m 839 585 q 771 401 839 477 q 605 326 703 326 l 342 326 l 460 96 l 453 96 l 199 377 l 199 384 l 453 663 l 460 663 l 342 436 l 605 436 q 701 479 662 436 q 740 585 740 523 l 740 874 l 839 874 l 839 585 "},"⣟":{"x_min":174,"x_max":742,"ha":916,"o":"m 174 983 q 202 1063 174 1030 q 275 1096 231 1096 q 346 1063 316 1096 q 376 983 376 1030 q 346 903 376 936 q 275 871 316 871 q 202 903 231 871 q 174 983 174 936 m 174 599 q 202 679 174 646 q 275 712 231 712 q 346 679 316 712 q 376 599 376 646 q 346 519 376 552 q 275 487 316 487 q 202 519 231 487 q 174 599 174 552 m 174 215 q 202 295 174 262 q 275 328 231 328 q 346 295 316 328 q 376 215 376 262 q 346 135 376 168 q 275 103 316 103 q 202 135 231 103 q 174 215 174 168 m 540 983 q 568 1063 540 1030 q 641 1096 597 1096 q 712 1063 682 1096 q 742 983 742 1030 q 712 903 742 936 q 641 871 682 871 q 568 903 597 871 q 540 983 540 936 m 540 599 q 568 679 540 646 q 641 712 597 712 q 712 679 682 712 q 742 599 742 646 q 712 519 742 552 q 641 487 682 487 q 568 519 597 487 q 540 599 540 552 m 174 -169 q 202 -89 174 -122 q 275 -57 231 -57 q 346 -89 316 -57 q 376 -169 376 -122 q 346 -249 376 -216 q 275 -282 316 -282 q 202 -249 231 -282 q 174 -169 174 -216 m 540 -169 q 568 -89 540 -122 q 641 -57 597 -57 q 712 -89 682 -57 q 742 -169 742 -122 q 712 -249 742 -216 q 641 -282 682 -282 q 568 -249 597 -282 q 540 -169 540 -216 "},"⥄":{"x_min":46,"x_max":1001,"ha":1047,"o":"m 524 742 l 857 742 l 740 970 l 746 970 l 1001 690 l 1001 683 l 746 403 l 740 403 l 857 632 l 524 632 l 524 742 m 976 267 l 976 157 l 189 157 l 308 -71 l 301 -71 l 46 208 l 46 215 l 301 495 l 308 495 l 189 267 l 976 267 "},"ḥ":{"x_min":60.6875,"x_max":690.375,"ha":805,"o":"m 265 -130 q 320 -107 290 -107 q 366 -130 349 -107 q 377 -186 382 -153 q 347 -243 371 -221 q 291 -266 323 -266 q 245 -243 260 -266 q 234 -186 228 -221 q 265 -130 240 -153 m 60 0 l 232 984 l 125 984 l 138 1056 l 357 1056 l 276 593 q 376 703 320 666 q 498 741 432 741 q 644 672 606 741 q 668 562 668 631 q 657 458 668 516 l 590 72 l 690 72 l 678 0 l 465 0 l 538 419 q 551 536 551 489 q 541 600 551 577 q 446 649 520 649 q 316 585 367 649 q 243 401 264 522 l 172 0 l 60 0 "},"Ἅ":{"x_min":-43.734375,"x_max":890.78125,"ha":954,"o":"m 183 1152 q 228 1135 210 1152 q 248 1061 256 1108 q 213 997 241 1023 q 157 970 189 973 q 194 862 157 914 l 146 842 q 142 846 144 843 q 84 1050 59 940 l 86 1061 q 110 1114 91 1091 q 183 1152 141 1152 m 435 1111 l 557 1111 l 304 856 l 232 856 l 435 1111 m 277 367 l 612 367 l 529 848 l 277 367 m -43 0 l -31 72 l 48 72 l 537 1013 l 640 1013 l 801 72 l 890 72 l 878 0 l 546 0 l 559 72 l 660 72 l 623 294 l 239 294 l 125 72 l 224 72 l 212 0 l -43 0 "},"Ρ":{"x_min":-18.984375,"x_max":841.828125,"ha":841,"o":"m 311 516 l 472 516 q 620 570 562 516 q 695 728 677 625 q 675 885 713 831 q 546 940 637 940 l 385 940 l 311 516 m -18 0 l -6 72 l 109 72 l 261 940 l 145 940 l 158 1013 l 589 1013 q 792 935 725 1013 q 836 728 858 858 q 719 520 813 597 q 489 443 625 443 l 298 443 l 233 72 l 374 72 l 362 0 l -18 0 "},"ῌ":{"x_min":-18.984375,"x_max":1110.15625,"ha":1090,"o":"m -18 0 l -6 72 l 109 72 l 261 940 l 145 940 l 158 1013 l 514 1013 l 501 940 l 385 940 l 324 590 l 796 590 l 857 940 l 741 940 l 754 1013 l 1110 1013 l 1097 940 l 981 940 l 830 72 l 946 72 l 933 0 l 577 0 l 590 72 l 705 72 l 781 507 l 309 507 l 233 72 l 349 72 l 337 0 l -18 0 m 518 -277 l 472 -288 q 383 -171 358 -315 l 398 -83 l 489 -83 l 472 -180 q 494 -234 461 -243 l 527 -225 l 518 -277 "},"𝑋":{"x_min":-80.703125,"x_max":931.796875,"ha":890,"o":"m 401 433 l 115 72 l 233 72 l 221 0 l -80 0 l -67 72 l 37 72 l 373 497 l 185 940 l 87 940 l 100 1013 l 461 1013 l 448 940 l 341 940 l 479 614 l 737 940 l 620 940 l 632 1013 l 931 1013 l 918 940 l 816 940 l 507 550 l 710 72 l 808 72 l 796 0 l 434 0 l 446 72 l 556 72 l 401 433 "},"⡽":{"x_min":174,"x_max":742,"ha":916,"o":"m 174 983 q 202 1063 174 1030 q 275 1096 231 1096 q 346 1063 316 1096 q 376 983 376 1030 q 346 903 376 936 q 275 871 316 871 q 202 903 231 871 q 174 983 174 936 m 174 215 q 202 295 174 262 q 275 328 231 328 q 346 295 316 328 q 376 215 376 262 q 346 135 376 168 q 275 103 316 103 q 202 135 231 103 q 174 215 174 168 m 540 983 q 568 1063 540 1030 q 641 1096 597 1096 q 712 1063 682 1096 q 742 983 742 1030 q 712 903 742 936 q 641 871 682 871 q 568 903 597 871 q 540 983 540 936 m 540 599 q 568 679 540 646 q 641 712 597 712 q 712 679 682 712 q 742 599 742 646 q 712 519 742 552 q 641 487 682 487 q 568 519 597 487 q 540 599 540 552 m 540 215 q 568 295 540 262 q 641 328 597 328 q 712 295 682 328 q 742 215 742 262 q 712 135 742 168 q 641 103 682 103 q 568 135 597 103 q 540 215 540 168 m 174 -169 q 202 -89 174 -122 q 275 -57 231 -57 q 346 -89 316 -57 q 376 -169 376 -122 q 346 -249 376 -216 q 275 -282 316 -282 q 202 -249 231 -282 q 174 -169 174 -216 "},"⣥":{"x_min":174,"x_max":742,"ha":916,"o":"m 174 983 q 202 1063 174 1030 q 275 1096 231 1096 q 346 1063 316 1096 q 376 983 376 1030 q 346 903 376 936 q 275 871 316 871 q 202 903 231 871 q 174 983 174 936 m 174 215 q 202 295 174 262 q 275 328 231 328 q 346 295 316 328 q 376 215 376 262 q 346 135 376 168 q 275 103 316 103 q 202 135 231 103 q 174 215 174 168 m 540 215 q 568 295 540 262 q 641 328 597 328 q 712 295 682 328 q 742 215 742 262 q 712 135 742 168 q 641 103 682 103 q 568 135 597 103 q 540 215 540 168 m 174 -169 q 202 -89 174 -122 q 275 -57 231 -57 q 346 -89 316 -57 q 376 -169 376 -122 q 346 -249 376 -216 q 275 -282 316 -282 q 202 -249 231 -282 q 174 -169 174 -216 m 540 -169 q 568 -89 540 -122 q 641 -57 597 -57 q 712 -89 682 -57 q 742 -169 742 -122 q 712 -249 742 -216 q 641 -282 682 -282 q 568 -249 597 -282 q 540 -169 540 -216 "},"┷":{"x_min":-12,"x_max":765,"ha":752,"o":"m -12 278 l -12 511 l 327 511 l 327 1351 l 425 1351 l 425 511 l 765 511 l 765 278 l -12 278 "},"Ṙ":{"x_min":-18.984375,"x_max":895.859375,"ha":941,"o":"m 547 1256 q 602 1280 573 1280 q 648 1256 631 1280 q 659 1201 665 1232 q 629 1145 653 1167 q 574 1122 604 1122 q 527 1145 543 1122 q 516 1201 510 1167 q 547 1256 522 1232 m 598 503 q 664 459 639 490 q 704 372 690 428 l 784 72 l 895 72 l 882 0 l 668 0 l 582 322 q 528 443 558 416 q 439 471 499 471 l 303 471 l 233 72 l 362 72 l 349 0 l -18 0 l -6 72 l 109 72 l 261 940 l 145 940 l 158 1013 l 620 1013 q 813 942 753 1013 q 850 742 873 871 q 769 578 832 638 q 598 503 705 517 m 316 544 l 495 544 q 640 592 587 544 q 710 742 693 640 q 693 892 728 844 q 565 940 657 940 l 385 940 l 316 544 "},"ª":{"x_min":44.375,"x_max":539.828125,"ha":593,"o":"m 374 513 l 395 634 q 318 552 358 582 q 234 513 278 522 q 197 509 214 509 q 108 554 140 509 q 81 657 81 594 q 87 725 81 689 q 172 919 107 838 q 322 1017 237 999 q 355 1021 339 1021 q 399 1012 379 1021 q 452 956 432 997 l 461 1014 l 538 1014 l 461 573 l 539 573 l 528 513 l 374 513 m 418 767 l 428 825 q 432 865 432 847 q 413 931 432 906 q 356 959 393 959 q 331 956 344 959 q 230 888 272 944 q 174 744 189 832 q 168 681 168 709 q 182 612 168 638 q 241 580 201 580 q 266 582 253 580 q 364 645 321 594 q 418 767 406 697 m 56 434 l 482 434 l 469 363 l 44 363 l 56 434 "},"Ἓ":{"x_min":76.640625,"x_max":1324.171875,"ha":1345,"o":"m 181 1152 q 226 1135 208 1152 q 246 1061 254 1108 q 211 997 239 1023 q 155 970 187 973 q 192 863 155 914 l 144 842 q 140 846 142 844 q 82 1050 57 940 l 84 1061 q 108 1114 89 1091 q 181 1152 139 1152 m 407 1110 l 521 855 l 450 855 l 287 1110 l 407 1110 m 413 0 l 426 72 l 542 72 l 694 940 l 578 940 l 590 1013 l 1324 1013 l 1284 787 l 1209 787 l 1234 929 l 815 929 l 756 590 l 1054 590 l 1077 716 l 1152 716 l 1093 380 l 1018 380 l 1040 507 l 742 507 l 667 83 l 1096 83 l 1121 225 l 1196 225 l 1156 0 l 413 0 "},"š":{"x_min":14.578125,"x_max":654.734375,"ha":641,"o":"m 43 208 l 108 208 q 106 170 106 188 q 256 47 106 47 q 430 170 408 47 q 432 204 432 182 q 411 251 432 225 q 303 309 390 276 l 227 340 q 123 408 148 370 q 98 491 98 446 q 100 529 98 508 q 193 684 118 628 q 377 741 268 741 q 599 682 485 741 l 571 525 l 507 525 q 510 554 510 540 q 479 638 510 603 q 376 673 448 673 q 213 562 233 673 q 211 530 211 550 q 231 485 211 509 q 328 433 251 461 l 412 402 q 530 322 498 370 q 553 255 553 288 q 450 39 553 113 q 246 -20 369 -20 q 14 39 123 -20 l 43 208 m 364 856 l 265 1111 l 336 1111 l 429 934 l 584 1111 l 654 1111 l 466 856 l 364 856 "},"┭":{"x_min":-12,"x_max":765.4375,"ha":753,"o":"m 327 -419 l 327 278 l -12 278 l -12 511 l 425 511 l 425 453 l 765 453 l 765 336 l 425 336 l 425 -419 l 327 -419 "},"┉":{"x_min":-12,"x_max":766,"ha":753,"o":"m -12 278 l -12 511 l 103 511 l 103 278 l -12 278 m 213 278 l 213 511 l 322 511 l 322 278 l 213 278 m 431 278 l 431 511 l 540 511 l 540 278 l 431 278 m 650 278 l 650 511 l 766 511 l 766 278 l 650 278 "},"ჟ":{"x_min":-47,"x_max":744,"ha":737,"o":"m 564 26 q 502 -129 540 -64 q 415 -234 464 -193 q 309 -294 366 -275 q 189 -313 251 -313 q 95 -298 138 -313 q 20 -259 51 -284 q -29 -199 -11 -234 q -47 -124 -47 -165 q -40 -76 -47 -100 q -8 7 -28 -27 q 40 65 11 42 q 108 102 69 89 q 197 123 147 116 l 197 79 q 158 44 174 61 q 130 7 142 27 q 110 -36 118 -12 q 93 -91 101 -60 q 87 -121 89 -107 q 85 -146 85 -134 q 91 -181 85 -166 q 112 -207 97 -197 q 151 -223 127 -218 q 211 -229 175 -229 q 287 -214 253 -229 q 347 -172 321 -199 q 392 -106 373 -145 q 423 -17 411 -67 l 584 616 q 528 596 558 604 q 465 583 497 588 q 401 578 433 578 q 338 578 368 578 q 294 578 315 578 q 255 578 273 578 q 298 566 275 573 q 342 545 321 559 q 376 509 362 531 q 390 453 390 487 q 382 400 390 430 q 357 333 373 366 q 316 276 341 301 q 255 237 291 252 q 169 223 219 223 q 113 231 139 223 q 67 253 88 239 l 112 429 q 133 381 122 405 q 157 337 144 357 q 183 306 169 318 q 210 294 196 294 q 263 308 241 294 q 299 343 285 322 q 321 389 314 364 q 328 434 328 413 q 299 498 328 473 q 212 524 270 524 q 137 506 180 524 l 175 659 q 243 639 205 645 q 325 634 282 634 q 399 637 360 634 q 476 647 438 641 q 551 663 515 654 q 615 684 587 672 q 662 708 644 695 q 684 737 680 722 l 744 737 l 564 26 "},"⁪":{"x_min":0,"x_max":0,"ha":0},"ნ":{"x_min":59,"x_max":823.28125,"ha":745,"o":"m 672 379 q 606 217 649 288 q 512 98 564 146 q 397 25 459 50 q 272 0 335 0 q 183 12 223 0 q 116 50 143 25 q 73 113 88 76 q 59 201 59 151 q 74 311 59 252 l 226 909 q 266 1020 242 974 q 323 1096 291 1067 q 396 1140 356 1126 q 485 1154 437 1154 q 544 1145 521 1154 q 585 1127 567 1136 q 617 1108 602 1117 q 651 1100 632 1100 q 731 1119 693 1100 q 813 1168 770 1139 l 823 1148 q 779 1094 803 1122 q 730 1042 756 1066 q 676 1004 703 1019 q 622 989 648 989 q 588 995 603 989 q 562 1012 574 1002 q 538 1035 549 1022 q 516 1057 527 1047 q 493 1074 505 1067 q 466 1081 481 1081 q 429 1073 446 1081 q 398 1049 412 1066 q 373 1005 385 1032 q 351 936 361 978 l 268 610 q 321 657 292 636 q 380 692 351 678 q 436 714 410 706 q 479 722 463 722 q 564 708 526 722 q 629 668 602 695 q 673 600 657 641 q 689 504 689 559 q 672 379 689 447 m 513 306 l 532 378 q 547 454 543 420 q 552 516 552 488 q 527 607 552 578 q 455 636 502 636 q 383 620 419 636 q 314 571 347 605 q 253 483 281 537 q 205 351 225 429 q 186 260 192 299 q 180 193 180 222 q 188 139 180 160 q 212 107 196 119 q 249 92 227 96 q 300 88 271 88 q 368 102 336 88 q 429 143 401 116 q 478 212 456 171 q 513 306 499 253 "},"Ƕ":{"x_min":-16.953125,"x_max":1426.875,"ha":1442,"o":"m 765 402 l 783 507 l 311 507 l 235 72 l 351 72 l 338 0 l -16 0 l -4 72 l 111 72 l 263 940 l 147 940 l 160 1013 l 516 1013 l 503 940 l 387 940 l 326 590 l 798 590 l 859 940 l 743 940 l 756 1013 l 1112 1013 l 1099 940 l 983 940 l 891 416 q 901 145 857 222 q 1024 69 945 69 q 1168 145 1112 69 q 1261 416 1227 225 l 1301 648 l 1195 648 l 1208 721 l 1426 721 l 1371 402 q 1233 75 1330 171 q 1015 -20 1137 -20 q 790 76 855 -20 q 765 402 725 172 "},"1":{"x_min":87.484375,"x_max":549.3125,"ha":795,"o":"m 87 0 l 99 72 l 258 72 l 406 914 l 199 782 l 214 871 l 465 1031 l 549 1031 l 381 72 l 539 72 l 527 0 l 87 0 "},"ҍ":{"x_min":43.28125,"x_max":595,"ha":680,"o":"m 197 154 q 216 84 197 122 q 306 47 236 47 q 424 98 376 47 q 490 244 472 149 q 496 302 496 269 q 473 374 496 335 q 384 414 451 414 q 269 373 316 414 q 213 283 222 332 l 201 210 q 197 154 197 185 m 43 649 l 55 721 l 177 721 l 223 984 l 115 984 l 127 1055 l 348 1055 l 289 721 l 411 721 l 399 649 l 277 649 l 235 409 q 392 483 316 483 q 560 423 526 483 q 595 298 595 364 q 588 229 595 265 q 497 46 567 113 q 302 -20 426 -20 q 135 41 184 -20 q 86 172 86 103 q 89 215 86 194 l 165 649 l 43 649 "},"⟻":{"x_min":45.609375,"x_max":1720,"ha":1791,"o":"m 1621 505 l 1621 716 l 1720 716 l 1720 183 l 1621 183 l 1621 395 l 189 395 l 307 166 l 300 166 l 45 446 l 45 453 l 300 733 l 307 733 l 189 505 l 1621 505 "},"ᵈ":{"x_min":39,"x_max":496.34375,"ha":500,"o":"m 496 1044 l 379 453 l 308 453 l 321 515 q 257 459 292 477 q 173 442 222 442 q 62 500 99 442 q 39 594 39 539 q 45 654 39 622 q 122 808 63 749 q 258 868 182 868 q 334 849 305 868 q 375 793 362 831 l 417 1004 l 350 1004 l 358 1044 l 496 1044 m 344 634 l 352 674 q 358 728 358 704 q 345 785 358 762 q 270 824 325 824 q 179 781 216 824 q 127 654 143 739 q 120 586 120 616 q 130 527 120 551 q 204 485 149 485 q 294 523 258 485 q 344 634 330 561 "},"ɩ":{"x_min":95.625,"x_max":328.234375,"ha":490,"o":"m 130 238 l 202 649 l 95 649 l 108 722 l 328 722 l 243 238 q 246 108 227 149 q 321 67 265 67 l 309 0 q 156 63 205 0 q 130 238 110 124 "},"ǒ":{"x_min":53,"x_max":705.953125,"ha":752,"o":"m 321 47 q 471 126 411 47 q 558 360 531 206 q 571 486 571 431 q 553 594 571 551 q 430 673 520 673 q 280 594 340 673 q 193 360 220 515 q 181 235 181 290 q 198 126 181 170 q 321 47 231 47 m 309 -20 q 100 83 168 -20 q 53 261 53 156 q 62 360 53 307 q 196 637 92 533 q 442 741 300 741 q 652 637 584 741 q 699 460 699 565 q 689 360 699 413 q 555 84 659 188 q 309 -20 451 -20 m 415 856 l 316 1111 l 387 1111 l 480 934 l 635 1111 l 705 1111 l 517 856 l 415 856 "},"⥯":{"x_min":146.515625,"x_max":900.484375,"ha":1047,"o":"m 603 1038 l 900 703 l 900 695 l 695 826 l 695 0 l 596 0 l 596 1038 l 603 1038 m 443 -32 l 146 302 l 146 310 l 352 179 l 352 1006 l 451 1006 l 451 -32 l 443 -32 "},"⠛":{"x_min":174,"x_max":742,"ha":916,"o":"m 174 984 q 202 1064 174 1031 q 275 1097 231 1097 q 346 1064 316 1097 q 376 984 376 1031 q 346 904 376 937 q 275 872 316 872 q 202 904 231 872 q 174 984 174 937 m 174 599 q 202 679 174 646 q 275 712 231 712 q 346 679 316 712 q 376 599 376 646 q 346 519 376 552 q 275 487 316 487 q 202 519 231 487 q 174 599 174 552 m 540 984 q 568 1064 540 1031 q 641 1097 597 1097 q 712 1064 682 1097 q 742 984 742 1031 q 712 904 742 937 q 641 872 682 872 q 568 904 597 872 q 540 984 540 937 m 540 599 q 568 679 540 646 q 641 712 597 712 q 712 679 682 712 q 742 599 742 646 q 712 519 742 552 q 641 487 682 487 q 568 519 597 487 q 540 599 540 552 "},"ӡ":{"x_min":-13.5625,"x_max":701.234375,"ha":705,"o":"m 337 286 l 279 286 l 291 355 l 543 648 l 222 648 l 200 523 l 135 523 l 170 721 l 701 721 l 691 662 l 408 334 l 455 329 q 612 228 564 310 q 637 16 659 146 q 508 -226 609 -142 q 247 -311 408 -311 q 111 -291 175 -311 q -13 -233 46 -272 l 24 -14 l 92 -14 q 123 -179 80 -123 q 263 -236 166 -236 q 422 -168 356 -236 q 508 15 487 -101 q 488 217 531 148 q 337 286 444 286 "},"ḽ":{"x_min":-145.8125,"x_max":349.25,"ha":399,"o":"m 177 72 l 283 72 l 270 0 l 52 0 l 224 984 l 116 984 l 128 1056 l 349 1056 l 177 72 m 42 -79 l 145 -79 l 243 -333 l 172 -333 l 80 -157 l -74 -333 l -145 -333 l 42 -79 "},"ī":{"x_min":67.140625,"x_max":449.625,"ha":399,"o":"m 84 1035 l 449 1035 l 432 935 l 67 935 l 84 1035 m 214 72 l 320 72 l 307 0 l 89 0 l 203 649 l 95 649 l 107 722 l 327 722 l 214 72 "},"∐":{"x_min":33,"x_max":962,"ha":995,"o":"m 962 -267 l 33 -267 l 33 -217 l 149 -217 l 149 949 l 33 949 l 33 999 l 397 999 l 397 949 l 279 949 l 279 -217 l 715 -217 l 715 949 l 598 949 l 598 999 l 962 999 l 962 949 l 845 949 l 845 -217 l 962 -217 l 962 -267 "},"̢":{"x_min":-487.84375,"x_max":-105.109375,"ha":0,"o":"m -455 86 l -341 86 l -369 -71 q -366 -199 -385 -159 q -291 -241 -346 -241 q -210 -211 -241 -241 q -162 -116 -179 -180 l -105 -116 l -130 -264 q -214 -297 -172 -286 q -300 -309 -256 -309 q -453 -245 -404 -309 q -482 -70 -501 -182 l -455 86 "},"⣬":{"x_min":174,"x_max":742,"ha":916,"o":"m 174 215 q 202 295 174 262 q 275 328 231 328 q 346 295 316 328 q 376 215 376 262 q 346 135 376 168 q 275 103 316 103 q 202 135 231 103 q 174 215 174 168 m 540 983 q 568 1063 540 1030 q 641 1096 597 1096 q 712 1063 682 1096 q 742 983 742 1030 q 712 903 742 936 q 641 871 682 871 q 568 903 597 871 q 540 983 540 936 m 540 215 q 568 295 540 262 q 641 328 597 328 q 712 295 682 328 q 742 215 742 262 q 712 135 742 168 q 641 103 682 103 q 568 135 597 103 q 540 215 540 168 m 174 -169 q 202 -89 174 -122 q 275 -57 231 -57 q 346 -89 316 -57 q 376 -169 376 -122 q 346 -249 376 -216 q 275 -282 316 -282 q 202 -249 231 -282 q 174 -169 174 -216 m 540 -169 q 568 -89 540 -122 q 641 -57 597 -57 q 712 -89 682 -57 q 742 -169 742 -122 q 712 -249 742 -216 q 641 -282 682 -282 q 568 -249 597 -282 q 540 -169 540 -216 "},"ӹ":{"x_min":85.203125,"x_max":929.890625,"ha":1017,"o":"m 85 648 l 98 721 l 317 721 l 263 409 q 420 483 344 483 q 587 423 553 483 q 622 298 622 364 q 615 229 622 265 q 524 46 594 113 q 329 -20 453 -20 q 162 41 211 -20 q 113 173 113 103 q 117 215 113 194 l 192 648 l 85 648 m 224 154 q 244 84 224 122 q 334 47 264 47 q 453 100 404 47 q 518 244 499 149 q 523 302 523 269 q 500 374 523 335 q 411 414 478 414 q 296 373 344 414 q 240 283 249 332 l 228 210 q 224 154 224 185 m 691 0 l 817 721 l 929 721 l 815 72 l 922 72 l 910 0 l 691 0 m 468 1064 q 514 1040 497 1064 q 525 984 530 1017 q 495 927 518 949 q 439 905 470 905 q 393 927 409 905 q 383 984 376 949 q 413 1040 388 1017 q 468 1064 438 1064 m 706 1064 q 751 1040 734 1064 q 762 984 767 1017 q 732 927 756 949 q 677 905 708 905 q 630 927 646 905 q 620 984 614 949 q 651 1040 626 1017 q 706 1064 676 1064 "},"ʲ":{"x_min":-31.875,"x_max":325.1875,"ha":330,"o":"m 245 953 q 238 983 235 966 q 256 1014 241 1001 q 289 1027 271 1027 q 317 1014 306 1027 q 324 983 327 1001 q 306 953 321 966 q 273 941 292 941 q 245 953 256 941 m 226 817 l 160 817 l 167 858 l 303 858 l 225 414 q 171 316 214 352 q 63 281 128 281 q 12 287 36 281 q -31 306 -10 293 l -17 390 l 18 390 q 27 336 14 353 q 71 319 40 319 q 126 342 106 319 q 155 414 147 365 l 226 817 "},"⤛":{"x_min":71,"x_max":979.78125,"ha":1047,"o":"m 638 394 l 776 243 l 706 165 l 498 394 l 71 394 l 71 504 l 498 504 l 706 732 l 776 654 l 638 504 l 703 504 l 910 732 l 979 654 l 796 452 l 796 445 l 979 243 l 910 165 l 703 394 l 638 394 "},"ˣ":{"x_min":2.71875,"x_max":432.671875,"ha":444,"o":"m 50 453 l 2 453 l 182 647 l 91 816 l 41 816 l 49 857 l 153 857 l 238 699 l 384 857 l 432 857 l 255 666 l 349 493 l 402 493 l 394 453 l 287 453 l 200 613 l 50 453 "},"ŏ":{"x_min":53,"x_max":699.171875,"ha":752,"o":"m 313 1091 l 371 1091 q 398 1013 371 1037 q 486 989 425 989 q 583 1013 547 989 q 636 1091 619 1037 l 695 1091 q 615 944 672 993 q 470 896 558 896 q 342 944 381 896 q 313 1091 302 993 m 321 47 q 471 126 411 47 q 558 360 531 206 q 571 486 571 431 q 553 594 571 551 q 430 673 520 673 q 280 594 340 673 q 193 360 220 515 q 181 235 181 290 q 198 126 181 170 q 321 47 231 47 m 309 -20 q 100 83 168 -20 q 53 261 53 156 q 62 360 53 307 q 196 637 92 533 q 442 741 300 741 q 652 637 584 741 q 699 460 699 565 q 689 360 699 413 q 555 84 659 188 q 309 -20 451 -20 "},"ý":{"x_min":-45.03125,"x_max":719.921875,"ha":706,"o":"m 719 715 q 553 121 659 326 q 272 -268 397 -178 q 70 -309 217 -309 q 12 -303 41 -309 q -45 -287 -15 -298 l -20 -150 l 36 -150 q 35 -171 35 -160 q 46 -215 35 -199 q 101 -239 61 -239 q 302 -135 208 -239 l 148 648 l 75 648 l 87 721 l 255 721 l 399 5 q 521 235 498 168 q 606 642 606 446 l 540 642 l 553 715 l 719 715 m 565 1111 l 687 1111 l 435 856 l 363 856 l 565 1111 "},"╝":{"x_min":-12.421875,"x_max":522,"ha":752,"o":"m -12 453 l -12 570 l 229 570 l 229 1351 l 327 1351 l 327 453 l -12 453 m -12 220 l -12 337 l 424 337 l 424 1352 l 522 1352 l 522 220 l -12 220 "},"∇":{"x_min":31.203125,"x_max":833.46875,"ha":873,"o":"m 656 902 l 145 902 l 400 163 l 656 902 m 31 1013 l 833 1013 l 485 0 l 380 0 l 31 1013 "},"꜒":{"x_min":49.5,"x_max":567.625,"ha":616,"o":"m 132 0 l 49 0 l 211 928 l 567 928 l 552 836 l 278 836 l 132 0 "},"ⱽ":{"x_min":34.59375,"x_max":630.015625,"ha":568,"o":"m 180 980 l 273 544 l 519 980 l 454 980 l 461 1021 l 630 1021 l 623 980 l 566 980 l 270 453 l 204 453 l 92 980 l 34 980 l 41 1021 l 250 1021 l 244 980 l 180 980 "},"Ί":{"x_min":90.203125,"x_max":722.25,"ha":702,"o":"m 441 72 l 557 72 l 545 0 l 189 0 l 202 72 l 318 72 l 469 940 l 354 940 l 366 1013 l 722 1013 l 709 940 l 593 940 l 441 72 m 292 1112 l 414 1112 l 162 856 l 90 856 l 292 1112 "},"ӛ":{"x_min":54.25,"x_max":686.546875,"ha":739,"o":"m 381 1064 q 427 1040 410 1064 q 438 984 443 1017 q 408 927 432 949 q 352 905 383 905 q 306 927 322 905 q 296 984 289 949 q 326 1040 301 1017 q 381 1064 351 1064 m 619 1064 q 664 1040 647 1064 q 675 984 680 1017 q 645 927 669 949 q 590 905 621 905 q 543 927 559 905 q 533 984 527 949 q 564 1040 539 1017 q 619 1064 589 1064 m 64 374 l 548 374 l 549 379 q 538 599 575 524 q 405 673 501 673 q 276 630 331 673 q 188 502 222 587 l 98 502 q 227 681 145 621 q 429 741 311 741 q 638 636 571 741 q 677 360 707 532 q 544 84 647 189 q 303 -20 441 -20 q 94 81 155 -20 q 64 374 33 181 m 184 302 q 199 111 166 175 q 315 47 231 47 q 448 111 392 47 q 535 302 504 176 l 184 302 "},"⤻":{"x_min":64.15625,"x_max":979,"ha":1047,"o":"m 841 548 l 612 617 l 617 624 l 975 624 l 979 620 l 979 222 l 973 216 l 911 471 q 790 366 856 409 q 646 299 724 323 q 487 276 568 276 q 328 299 405 276 q 184 366 250 323 q 64 471 119 409 l 133 548 q 235 461 180 497 q 354 406 289 426 q 487 386 418 386 q 620 406 555 386 q 740 461 685 426 q 841 548 795 497 "},"╄":{"x_min":-12.25,"x_max":765,"ha":752,"o":"m 327 -419 l 327 278 l 278 278 l 278 336 l -12 336 l -12 453 l 278 453 l 278 1352 l 473 1352 l 473 511 l 765 511 l 765 278 l 425 278 l 425 -419 l 327 -419 "},"ἒ":{"x_min":28.09375,"x_max":622.875,"ha":671,"o":"m 504 1110 l 618 855 l 546 855 l 384 1110 l 504 1110 m 283 1152 q 343 1115 325 1152 q 348 1061 354 1091 l 347 1050 q 218 846 333 940 q 213 842 214 844 l 171 863 q 245 971 228 914 q 199 997 215 973 q 186 1061 180 1023 q 232 1135 194 1109 q 283 1152 256 1152 m 622 685 l 599 551 l 532 534 q 495 626 532 595 q 399 657 456 657 q 293 623 342 657 q 237 543 245 589 q 271 449 226 483 q 399 414 317 414 l 428 414 l 415 343 l 359 343 q 217 299 277 343 q 142 181 155 255 q 177 81 132 124 q 289 38 222 38 q 418 74 360 38 q 494 179 475 110 l 557 162 l 532 22 q 395 -13 463 -1 q 281 -26 327 -26 q 87 27 160 -26 q 31 182 13 81 q 119 341 50 289 q 247 381 154 368 l 161 435 q 131 549 116 463 q 214 683 146 637 q 401 729 282 729 q 496 718 435 729 q 622 685 557 706 "}," ":{"x_min":0,"x_max":0,"ha":312},"⥿":{"x_min":146,"x_max":901,"ha":1047,"o":"m 901 319 q 838 150 901 220 q 687 81 776 81 q 537 150 599 81 q 523 166 529 158 q 509 150 517 158 q 359 81 448 81 q 208 150 271 81 q 146 319 146 220 l 245 319 q 278 228 245 265 q 359 191 312 191 q 440 228 406 191 q 474 319 474 265 l 474 794 l 573 794 l 573 319 q 606 228 573 265 q 687 191 640 191 q 769 228 735 191 q 803 319 803 265 l 901 319 "},"⢣":{"x_min":174,"x_max":742,"ha":916,"o":"m 174 983 q 202 1063 174 1030 q 275 1096 231 1096 q 346 1063 316 1096 q 376 983 376 1030 q 346 903 376 936 q 275 871 316 871 q 202 903 231 871 q 174 983 174 936 m 174 599 q 202 679 174 646 q 275 712 231 712 q 346 679 316 712 q 376 599 376 646 q 346 519 376 552 q 275 487 316 487 q 202 519 231 487 q 174 599 174 552 m 540 215 q 568 295 540 262 q 641 328 597 328 q 712 295 682 328 q 742 215 742 262 q 712 135 742 168 q 641 103 682 103 q 568 135 597 103 q 540 215 540 168 m 540 -169 q 568 -89 540 -122 q 641 -57 597 -57 q 712 -89 682 -57 q 742 -169 742 -122 q 712 -249 742 -216 q 641 -282 682 -282 q 568 -249 597 -282 q 540 -169 540 -216 "},"‴":{"x_min":2.71875,"x_max":642.21875,"ha":650,"o":"m 185 760 l 335 1013 l 459 1013 l 238 760 l 185 760 m 2 760 l 151 1013 l 276 1013 l 55 760 l 2 760 m 368 760 l 518 1013 l 642 1013 l 421 760 l 368 760 "},"ἑ":{"x_min":28.328125,"x_max":622.875,"ha":670,"o":"m 426 1152 q 471 1135 453 1152 q 491 1061 499 1109 q 456 997 484 1023 q 400 971 432 973 q 437 863 400 914 l 389 843 q 385 847 387 844 q 327 1050 302 940 l 329 1061 q 353 1115 334 1091 q 426 1152 384 1152 m 622 685 l 599 551 l 532 534 q 495 626 532 595 q 399 657 456 657 q 294 623 342 657 q 237 543 245 589 q 271 449 227 483 q 399 414 317 414 l 428 414 l 415 343 l 359 343 q 217 299 277 343 q 142 181 155 255 q 177 81 132 124 q 290 38 222 38 q 418 74 360 38 q 494 179 475 110 l 557 162 l 532 22 q 395 -13 463 -1 q 281 -26 327 -26 q 87 27 160 -26 q 31 182 14 81 q 119 341 50 289 q 247 381 154 368 l 161 435 q 131 549 116 463 q 214 683 147 637 q 401 729 282 729 q 496 718 435 729 q 622 685 557 706 "},"ᴝ":{"x_min":135.640625,"x_max":925.703125,"ha":921,"o":"m 215 426 l 256 659 l 840 659 l 861 777 l 925 777 l 882 534 l 768 534 q 851 444 827 499 q 862 317 875 389 q 770 140 842 196 q 568 84 699 84 l 221 84 l 201 -28 l 135 -28 l 177 209 l 555 209 q 723 241 674 209 q 787 356 773 274 q 753 489 802 443 q 594 534 703 534 l 299 534 l 280 426 l 215 426 "},"Ь":{"x_min":-18.96875,"x_max":768,"ha":842,"o":"m 233 72 l 394 72 q 541 124 480 72 q 621 293 601 177 q 628 361 628 330 q 600 460 628 424 q 472 513 559 513 l 310 513 l 233 72 m 761 295 q 381 0 709 0 l -18 0 l -6 72 l 109 72 l 261 940 l 145 940 l 158 1013 l 514 1013 l 501 940 l 385 940 l 325 596 l 459 596 q 734 487 669 596 q 768 367 768 441 q 761 295 768 333 "},"ƽ":{"x_min":-13.5625,"x_max":696.484375,"ha":705,"o":"m 349 356 l 457 341 q 614 240 566 322 q 637 16 661 158 q 508 -226 609 -141 q 247 -311 408 -311 q 111 -291 176 -311 q -13 -233 46 -272 l 24 -14 l 92 -14 q 123 -179 80 -123 q 263 -236 166 -236 q 422 -168 356 -236 q 508 15 487 -100 q 488 218 531 149 q 337 287 444 287 l 146 287 l 210 650 l 102 650 l 114 721 l 696 721 l 664 540 l 600 540 l 617 637 l 320 637 l 271 356 l 349 356 "},"↢":{"x_min":46,"x_max":979.78125,"ha":1047,"o":"m 703 504 l 910 732 l 979 654 l 796 452 l 796 445 l 979 243 l 910 165 l 703 394 l 189 394 l 307 165 l 300 165 l 46 445 l 46 452 l 300 732 l 307 732 l 189 504 l 703 504 "},"̅":{"x_min":-625,"x_max":0,"ha":-1,"o":"m 0 1049 l 0 995 l -625 995 l -625 1049 l 0 1049 "},"̸":{"x_min":-1048.453125,"x_max":25.765625,"ha":0,"o":"m -1009 -38 l -1048 8 l -14 1051 l 25 1003 l -1009 -38 "},"ᾯ":{"x_min":120.28125,"x_max":1151.703125,"ha":1212,"o":"m 307 1151 q 352 1135 334 1151 q 372 1061 380 1108 q 337 997 365 1023 q 281 971 313 974 q 318 863 281 914 l 270 842 q 266 846 268 844 q 208 1050 183 940 l 210 1061 q 234 1114 215 1091 q 307 1151 265 1151 m 326 1231 l 297 1268 q 276 1289 285 1284 q 255 1295 266 1295 q 210 1267 229 1295 q 179 1190 190 1241 l 120 1190 q 177 1331 137 1281 q 272 1381 217 1381 q 314 1371 295 1381 q 350 1339 331 1362 l 378 1302 q 399 1281 389 1286 q 421 1276 408 1276 q 467 1303 447 1276 q 498 1381 486 1330 l 556 1381 q 499 1239 539 1289 q 404 1190 460 1190 q 363 1199 381 1190 q 326 1231 345 1209 m 788 111 l 993 111 l 1009 203 l 1080 203 l 1045 0 l 683 0 l 705 123 q 898 276 823 170 q 1001 539 973 381 q 970 843 1033 728 q 771 959 906 959 q 532 843 635 959 q 395 539 428 728 q 405 275 367 381 q 544 123 443 170 l 522 0 l 162 0 l 198 203 l 269 203 l 253 111 l 457 111 q 286 289 340 170 q 257 554 232 409 q 326 746 276 657 q 456 904 377 835 q 611 999 527 966 q 783 1032 695 1032 q 944 999 872 1032 q 1065 904 1016 967 q 1141 745 1121 835 q 1142 554 1161 656 q 1022 289 1117 409 q 788 111 926 170 m 669 -277 l 623 -288 q 535 -171 509 -315 l 550 -83 l 641 -83 l 624 -180 q 645 -234 613 -243 l 679 -225 l 669 -277 "},"⢈":{"x_min":540,"x_max":742,"ha":916,"o":"m 540 983 q 568 1063 540 1030 q 641 1096 597 1096 q 712 1063 682 1096 q 742 983 742 1030 q 712 903 742 936 q 641 871 682 871 q 568 903 597 871 q 540 983 540 936 m 540 -169 q 568 -89 540 -122 q 641 -57 597 -57 q 712 -89 682 -57 q 742 -169 742 -122 q 712 -249 742 -216 q 641 -282 682 -282 q 568 -249 597 -282 q 540 -169 540 -216 "},"¤":{"x_min":63.40625,"x_max":734.640625,"ha":794,"o":"m 549 668 l 676 808 l 734 745 l 606 603 q 645 521 632 562 q 658 435 658 479 q 645 348 658 388 q 605 269 632 308 l 731 129 l 673 65 l 546 204 q 476 160 512 174 q 398 146 440 146 q 320 159 358 146 q 245 201 282 173 l 121 62 l 63 126 l 188 266 q 150 350 163 308 q 138 435 138 391 q 150 522 138 482 q 190 602 163 563 l 64 742 l 122 806 l 248 665 q 319 709 282 695 q 398 724 355 724 q 475 710 437 724 q 549 668 512 696 m 562 436 q 514 564 562 512 q 398 617 467 617 q 281 564 329 617 q 234 436 234 512 q 281 305 234 358 q 397 253 328 253 q 514 306 466 253 q 562 436 562 359 "},"p":{"x_min":53.765625,"x_max":771,"ha":799,"o":"m 285 396 l 273 324 q 264 228 264 271 q 283 125 264 166 q 401 58 316 58 q 545 134 487 58 q 629 360 603 211 q 641 483 641 429 q 624 586 641 545 q 507 663 593 663 q 365 594 421 663 q 285 396 308 525 m 217 648 l 109 648 l 122 721 l 342 721 l 322 607 q 424 708 367 676 q 555 741 481 741 q 732 635 675 741 q 771 469 771 566 q 760 360 771 418 q 636 85 730 191 q 422 -20 542 -20 q 302 12 348 -20 q 236 112 257 44 l 165 -289 l 53 -289 l 217 648 "},"Ἤ":{"x_min":73.921875,"x_max":1468.234375,"ha":1449,"o":"m 410 1111 l 531 1111 l 279 856 l 207 856 l 410 1111 m 186 1152 q 246 1114 228 1152 q 251 1061 257 1091 l 250 1050 q 120 846 236 940 q 115 842 117 843 l 73 862 q 147 970 131 914 q 101 997 118 973 q 89 1061 82 1023 q 135 1135 97 1108 q 186 1152 159 1152 m 339 0 l 351 72 l 467 72 l 619 940 l 503 940 l 516 1013 l 872 1013 l 859 940 l 743 940 l 682 590 l 1154 590 l 1215 940 l 1099 940 l 1112 1013 l 1468 1013 l 1456 940 l 1340 940 l 1188 72 l 1304 72 l 1291 0 l 935 0 l 948 72 l 1064 72 l 1140 507 l 668 507 l 591 72 l 707 72 l 695 0 l 339 0 "},"⢺":{"x_min":174,"x_max":742,"ha":916,"o":"m 174 599 q 202 679 174 646 q 275 712 231 712 q 346 679 316 712 q 376 599 376 646 q 346 519 376 552 q 275 487 316 487 q 202 519 231 487 q 174 599 174 552 m 540 983 q 568 1063 540 1030 q 641 1096 597 1096 q 712 1063 682 1096 q 742 983 742 1030 q 712 903 742 936 q 641 871 682 871 q 568 903 597 871 q 540 983 540 936 m 540 599 q 568 679 540 646 q 641 712 597 712 q 712 679 682 712 q 742 599 742 646 q 712 519 742 552 q 641 487 682 487 q 568 519 597 487 q 540 599 540 552 m 540 215 q 568 295 540 262 q 641 328 597 328 q 712 295 682 328 q 742 215 742 262 q 712 135 742 168 q 641 103 682 103 q 568 135 597 103 q 540 215 540 168 m 540 -169 q 568 -89 540 -122 q 641 -57 597 -57 q 712 -89 682 -57 q 742 -169 742 -122 q 712 -249 742 -216 q 641 -282 682 -282 q 568 -249 597 -282 q 540 -169 540 -216 "},"►":{"x_min":3,"x_max":957.1875,"ha":961,"o":"m 3 14 l 3 707 l 957 361 l 3 14 "},"Ӭ":{"x_min":28.296875,"x_max":894,"ha":956,"o":"m 758 671 q 524 958 758 958 q 323 897 401 958 q 199 710 244 837 l 131 710 l 171 943 q 527 1031 379 1031 q 825 885 728 1031 q 894 638 894 784 q 881 505 894 575 q 678 113 839 263 q 353 -20 534 -20 q 125 53 208 -20 q 28 268 43 126 l 140 268 q 366 53 161 53 q 603 163 511 53 q 734 470 694 273 l 295 470 l 309 553 l 749 553 q 758 671 758 617 m 441 1278 q 488 1254 471 1278 q 499 1199 505 1230 q 469 1143 493 1165 q 414 1120 444 1120 q 367 1143 383 1120 q 357 1199 351 1165 q 387 1254 362 1230 q 441 1278 413 1278 m 680 1278 q 725 1254 708 1278 q 736 1199 742 1230 q 706 1143 730 1165 q 652 1120 682 1120 q 604 1143 621 1120 q 594 1199 588 1165 q 625 1254 600 1230 q 680 1278 650 1278 "},"῭":{"x_min":239.484375,"x_max":621.890625,"ha":625,"o":"m 326 1065 q 372 1041 355 1065 q 383 985 388 1018 q 353 928 377 950 q 297 906 328 906 q 251 928 267 906 q 241 985 234 950 q 271 1041 246 1018 q 326 1065 297 1065 m 564 1065 q 609 1041 592 1065 q 620 985 625 1018 q 590 928 614 950 q 535 906 566 906 q 488 928 504 906 q 478 985 472 950 q 509 1041 484 1018 q 564 1065 534 1065 m 404 1384 l 517 1129 l 446 1129 l 283 1384 l 404 1384 "},"ђ":{"x_min":47.21875,"x_max":673.171875,"ha":779,"o":"m 47 648 l 60 721 l 186 721 l 232 983 l 124 983 l 136 1055 l 356 1055 l 298 721 l 595 721 l 582 648 l 285 648 l 243 403 q 490 551 332 551 q 644 470 595 551 q 673 350 673 420 q 501 -95 673 75 q 240 -309 372 -223 l 214 -247 q 422 -51 339 -166 q 531 209 506 64 q 545 330 545 285 q 536 401 545 376 q 427 459 519 459 q 282 395 334 459 q 209 211 230 332 l 172 0 l 60 0 l 173 648 l 47 648 "},"ϕ":{"x_min":33.765625,"x_max":808.515625,"ha":852,"o":"m 423 50 q 580 126 533 64 q 668 361 640 206 q 662 594 695 515 q 531 671 637 658 l 423 50 m 364 -289 l 250 -289 l 298 -17 q 80 84 138 -3 q 43 361 12 188 q 177 637 73 533 q 430 739 265 724 l 486 1056 l 598 1056 l 543 739 q 761 637 704 724 q 799 361 829 533 q 664 84 769 188 q 411 -17 577 -3 l 364 -289 m 310 50 l 419 671 q 261 594 308 658 q 174 361 201 515 q 179 126 147 206 q 310 50 204 64 "},"y":{"x_min":-45.03125,"x_max":719.921875,"ha":706,"o":"m 719 715 q 553 121 659 326 q 272 -268 397 -178 q 70 -309 217 -309 q 12 -303 41 -309 q -45 -287 -15 -298 l -20 -150 l 36 -150 q 35 -171 35 -160 q 46 -215 35 -199 q 101 -239 61 -239 q 302 -135 208 -239 l 148 648 l 75 648 l 87 721 l 255 721 l 399 5 q 521 235 498 168 q 606 642 606 446 l 540 642 l 553 715 l 719 715 "},"ⱨ":{"x_min":60.6875,"x_max":790.828125,"ha":806,"o":"m 499 195 l 538 419 q 551 536 551 489 q 540 600 551 577 q 446 649 521 649 q 316 585 368 649 q 243 401 264 523 l 173 0 l 60 0 l 232 984 l 125 984 l 137 1056 l 357 1056 l 277 593 q 376 703 320 666 q 498 741 432 741 q 644 672 605 741 q 669 562 669 631 q 658 458 669 516 l 598 120 q 597 106 597 113 q 633 72 597 72 q 686 92 669 72 q 723 161 703 112 l 790 161 q 755 57 786 122 q 742 -38 742 0 q 742 -140 742 -76 q 692 -243 742 -216 q 554 -289 642 -271 l 554 -241 q 629 -205 598 -234 q 660 -113 660 -177 q 683 -39 660 -69 q 707 5 707 -9 q 703 20 707 18 q 588 -20 652 -20 q 492 116 492 -20 q 499 195 492 153 "},"‗":{"x_min":0,"x_max":625,"ha":624,"o":"m 625 -274 l 625 -328 l 0 -328 l 0 -274 l 625 -274 m 625 -111 l 625 -165 l 0 -165 l 0 -111 l 625 -111 "},"Ⴌ":{"x_min":-21.28125,"x_max":886.484375,"ha":941,"o":"m 714 1177 q 765 1171 742 1177 q 804 1152 788 1165 q 829 1120 820 1140 q 839 1072 839 1100 q 837 1052 839 1062 q 834 1030 836 1042 l 829 1001 l 886 1001 l 872 928 l 677 928 l 698 1035 q 700 1056 700 1046 q 683 1096 700 1085 q 638 1108 666 1108 l 416 1108 l 340 711 l 598 711 q 742 671 693 711 q 791 543 791 632 q 788 502 791 524 q 781 455 786 479 l 708 69 l 785 69 l 772 0 l 469 0 l 481 69 l 559 69 l 637 481 q 644 539 644 512 q 618 612 644 587 q 534 638 593 638 l 327 638 l 218 69 l 296 69 l 283 0 l -21 0 l -8 69 l 70 69 l 268 1108 l 190 1108 l 203 1177 l 714 1177 "},"ḓ":{"x_min":-0.765625,"x_max":750.375,"ha":799,"o":"m 750 1056 l 565 0 l 453 0 l 473 112 q 371 12 428 44 q 240 -20 315 -20 q 62 85 120 -20 q 25 252 25 155 q 35 360 25 303 q 158 635 65 530 q 373 741 252 741 q 493 708 447 741 q 559 608 538 676 l 625 984 l 519 984 l 532 1056 l 750 1056 m 510 324 l 522 396 q 532 491 532 449 q 512 594 532 553 q 394 663 479 663 q 250 586 307 663 q 167 360 192 510 q 155 239 155 292 q 171 134 155 176 q 289 58 202 58 q 431 126 374 58 q 510 324 488 194 m 188 -79 l 290 -79 l 388 -334 l 318 -334 l 225 -157 l 70 -334 l 0 -334 l 188 -79 "},"⡗":{"x_min":174,"x_max":742,"ha":916,"o":"m 174 983 q 202 1063 174 1030 q 275 1096 231 1096 q 346 1063 316 1096 q 376 983 376 1030 q 346 903 376 936 q 275 871 316 871 q 202 903 231 871 q 174 983 174 936 m 174 599 q 202 679 174 646 q 275 712 231 712 q 346 679 316 712 q 376 599 376 646 q 346 519 376 552 q 275 487 316 487 q 202 519 231 487 q 174 599 174 552 m 174 215 q 202 295 174 262 q 275 328 231 328 q 346 295 316 328 q 376 215 376 262 q 346 135 376 168 q 275 103 316 103 q 202 135 231 103 q 174 215 174 168 m 540 599 q 568 679 540 646 q 641 712 597 712 q 712 679 682 712 q 742 599 742 646 q 712 519 742 552 q 641 487 682 487 q 568 519 597 487 q 540 599 540 552 m 174 -169 q 202 -89 174 -122 q 275 -57 231 -57 q 346 -89 316 -57 q 376 -169 376 -122 q 346 -249 376 -216 q 275 -282 316 -282 q 202 -249 231 -282 q 174 -169 174 -216 "},"ƅ":{"x_min":-53.578125,"x_max":720.40625,"ha":800,"o":"m 223 324 q 233 126 200 194 q 351 58 266 58 q 495 134 438 58 q 579 360 553 211 q 574 586 605 510 q 457 663 543 663 q 315 594 372 663 q 236 396 258 525 l 223 324 m 351 1055 l 272 608 q 374 708 317 676 q 505 741 430 741 q 682 635 625 741 q 710 360 739 530 q 586 85 680 191 q 373 -20 492 -20 q 252 12 297 -20 q 185 112 207 44 l 166 0 l -53 0 l -41 72 l 66 72 l 187 763 l 79 763 l 94 848 l 351 1055 "},"ë":{"x_min":53,"x_max":684,"ha":740,"o":"m 183 278 q 181 228 181 252 q 202 122 181 164 q 334 47 237 47 q 440 71 405 47 q 516 169 502 113 l 599 169 q 484 22 575 82 q 294 -20 420 -20 q 100 83 168 -20 q 53 261 53 156 q 62 360 53 307 q 195 636 92 531 q 445 741 298 741 q 684 552 684 741 q 559 346 684 414 q 183 278 431 278 m 497 428 q 565 557 565 473 q 426 673 565 673 q 288 605 345 673 q 196 353 231 537 q 497 428 392 353 m 384 1064 q 430 1040 413 1064 q 441 984 446 1017 q 411 927 435 949 q 356 905 387 905 q 309 927 325 905 q 299 984 292 949 q 330 1040 305 1017 q 384 1064 355 1064 m 622 1064 q 667 1040 650 1064 q 678 984 684 1017 q 648 927 672 949 q 594 905 624 905 q 547 927 562 905 q 537 984 531 949 q 568 1040 542 1017 q 622 1064 592 1064 "},"б":{"x_min":61,"x_max":767.078125,"ha":763,"o":"m 61 268 q 67 360 61 311 l 82 480 q 129 699 99 609 q 173 811 159 788 q 360 987 237 927 q 501 1026 398 1005 q 616 1047 604 1046 q 659 1061 629 1049 q 702 1092 690 1074 l 767 1092 q 692 984 749 1045 q 576 911 636 923 q 335 855 379 873 q 229 769 291 837 q 153 560 181 716 q 264 687 200 635 q 447 741 329 741 q 656 637 588 741 q 704 459 704 565 q 694 360 704 413 q 560 84 663 188 q 314 -20 456 -20 q 107 79 172 -20 q 61 268 61 151 m 186 235 q 326 47 186 47 q 563 360 508 47 q 575 487 575 432 q 435 673 575 673 q 198 360 253 673 q 186 235 186 290 "},"Ẏ":{"x_min":61.71875,"x_max":925.015625,"ha":825,"o":"m 497 1256 q 551 1280 522 1280 q 597 1256 580 1280 q 609 1201 614 1232 q 578 1145 602 1167 q 523 1122 554 1122 q 476 1145 493 1122 q 465 1201 459 1167 q 497 1256 471 1232 m 147 0 l 160 72 l 276 72 l 340 436 l 147 940 l 61 940 l 74 1013 l 413 1013 l 400 940 l 294 940 l 450 530 l 749 940 l 646 940 l 659 1013 l 925 1013 l 912 940 l 826 940 l 465 449 l 400 72 l 516 72 l 503 0 l 147 0 "},"⇈":{"x_min":-6.484375,"x_max":1052.484375,"ha":1046,"o":"m 199 0 l 199 873 l -6 742 l -6 750 l 245 1033 l 251 1033 l 503 750 l 503 742 l 298 873 l 298 0 l 199 0 m 748 0 l 748 873 l 542 742 l 542 750 l 794 1033 l 800 1033 l 1052 750 l 1052 742 l 847 873 l 847 0 l 748 0 "},"ṝ":{"x_min":44.515625,"x_max":658.953125,"ha":597,"o":"m 273 1035 l 638 1035 l 620 935 l 256 935 l 273 1035 m 77 -130 q 131 -107 102 -107 q 178 -130 161 -107 q 188 -186 194 -153 q 159 -243 182 -221 q 103 -266 134 -266 q 56 -243 72 -266 q 45 -186 40 -221 q 77 -130 51 -153 m 658 722 l 627 542 l 562 542 q 564 567 564 556 q 549 622 564 602 q 484 649 530 649 q 346 585 401 649 q 270 401 290 521 l 199 0 l 87 0 l 201 650 l 94 650 l 106 721 l 325 721 l 303 593 q 408 704 349 668 q 540 741 466 741 q 597 736 568 741 q 658 722 627 731 "},"ӌ":{"x_min":93.59375,"x_max":830.75,"ha":833,"o":"m 704 0 l 533 0 q 445 -96 472 0 l 419 -192 l 356 -192 l 402 72 l 503 72 l 544 305 l 247 305 q 166 341 195 305 q 154 418 145 366 l 194 649 l 93 649 l 105 721 l 421 721 l 408 649 l 307 649 l 284 521 q 278 412 271 443 q 322 389 283 389 l 558 389 l 604 649 l 503 649 l 515 721 l 830 721 l 817 649 l 716 649 l 615 72 l 716 72 l 704 0 "},"☻":{"x_min":104,"x_max":1017,"ha":1121,"o":"m 104 506 q 237 866 104 717 q 560 1015 371 1015 q 883 866 750 1015 q 1017 506 1017 717 q 883 147 1017 295 q 560 0 750 0 q 237 147 371 0 q 104 506 104 295 m 344 502 l 303 502 q 556 212 303 212 q 818 504 818 212 l 775 504 q 560 293 716 293 q 344 502 420 293 m 824 695 q 743 796 824 789 q 655 695 655 796 q 738 602 655 602 q 824 695 824 602 m 468 697 q 387 796 468 789 q 299 695 299 796 q 381 602 299 602 q 468 697 468 602 "},"‐":{"x_min":45.4375,"x_max":376.390625,"ha":422,"o":"m 64 426 l 376 426 l 358 320 l 45 320 l 64 426 "},"":{"x_min":-9,"x_max":801,"ha":836,"o":"m 694 344 q 637 200 677 264 q 542 91 597 136 q 422 23 488 47 q 288 0 357 0 q 181 16 235 0 q 85 63 127 32 q 17 139 43 94 q -9 243 -9 184 q -3 296 -9 272 l -3 296 q 32 383 7 342 q 91 457 57 425 q 165 513 125 490 q 244 545 205 536 l 263 471 q 225 436 241 456 q 198 394 210 417 q 178 344 186 371 q 163 287 170 317 q 155 223 155 249 q 166 169 155 191 q 199 134 178 147 q 246 116 219 121 q 305 111 274 111 q 378 124 344 111 q 440 167 411 137 q 491 247 468 198 q 532 368 514 296 q 540 415 537 392 q 544 455 544 437 q 532 522 544 494 q 500 568 520 551 q 455 593 480 585 q 402 602 430 602 l 347 602 l 372 709 l 424 709 q 478 719 448 709 q 536 756 507 730 q 590 824 565 782 q 631 928 616 866 l 631 928 q 636 959 634 944 q 638 987 638 974 q 609 1064 638 1036 q 520 1093 581 1093 q 451 1089 486 1093 q 384 1071 415 1086 q 330 1024 354 1055 q 293 937 306 992 q 295 919 291 926 q 307 909 299 913 q 327 903 315 905 q 350 902 338 902 q 359 902 354 902 q 379 904 364 902 l 312 743 q 262 758 285 746 q 222 789 239 770 q 195 835 205 808 q 186 893 186 861 q 190 937 186 914 q 239 1053 205 1003 q 320 1136 273 1103 q 424 1186 367 1169 q 540 1203 480 1203 q 634 1190 588 1203 q 718 1152 681 1178 q 777 1086 754 1126 q 801 991 801 1046 q 794 930 801 961 q 753 823 779 868 q 693 748 726 779 q 623 697 660 717 q 551 664 586 677 q 611 635 583 652 q 661 593 639 619 q 694 531 682 567 q 707 445 707 494 q 704 396 707 421 q 694 344 701 372 "},"ⅷ":{"x_min":46.828125,"x_max":1843,"ha":1905,"o":"m 328 0 l 246 0 l 120 649 l 46 649 l 59 722 l 227 722 l 337 152 q 454 306 406 220 q 586 649 552 486 l 512 649 l 524 722 l 693 722 q 541 285 625 442 q 328 0 468 149 m 1703 945 q 1733 999 1708 976 q 1786 1023 1757 1023 q 1830 999 1814 1023 q 1843 960 1843 982 q 1841 945 1843 953 q 1812 891 1836 913 q 1759 869 1788 869 q 1714 891 1731 869 q 1702 930 1702 908 q 1703 945 1702 937 m 1693 72 l 1800 72 l 1787 0 l 1568 0 l 1682 649 l 1574 649 l 1587 722 l 1807 722 l 1693 72 m 1303 945 q 1333 999 1308 976 q 1386 1023 1357 1023 q 1430 999 1414 1023 q 1443 960 1443 982 q 1441 945 1443 953 q 1412 891 1436 913 q 1359 869 1388 869 q 1314 891 1331 869 q 1302 930 1302 908 q 1303 945 1302 937 m 1293 72 l 1400 72 l 1387 0 l 1169 0 l 1282 649 l 1175 649 l 1188 722 l 1407 722 l 1293 72 m 903 945 q 933 999 908 976 q 986 1023 957 1023 q 1030 999 1014 1023 q 1043 960 1043 982 q 1041 945 1043 953 q 1012 891 1036 913 q 959 869 988 869 q 914 891 931 869 q 902 930 902 908 q 903 945 902 937 m 893 72 l 1000 72 l 987 0 l 769 0 l 882 649 l 775 649 l 788 722 l 1007 722 l 893 72 "},"⥩":{"x_min":43,"x_max":1005,"ha":1048,"o":"m 43 360 l 43 369 l 976 369 l 976 259 l 233 259 l 351 30 l 344 30 l 43 360 m 751 407 l 815 530 l 72 530 l 72 640 l 1005 640 l 1005 631 l 800 407 l 751 407 "},"ʋ":{"x_min":95.625,"x_max":701.984375,"ha":760,"o":"m 481 672 l 550 672 q 675 540 636 628 q 695 345 714 452 q 645 205 682 270 q 550 88 607 137 q 436 20 497 43 q 309 -3 375 -3 q 157 62 210 -3 q 130 237 110 119 l 203 648 l 95 648 l 108 721 l 328 721 l 244 237 q 246 108 228 148 q 322 66 265 66 q 482 155 398 66 q 573 356 550 227 q 566 530 591 460 q 474 631 541 599 l 481 672 "},"┼":{"x_min":-12,"x_max":765,"ha":752,"o":"m 425 337 l 425 -419 l 327 -419 l 327 337 l -12 337 l -12 454 l 327 454 l 327 1352 l 425 1352 l 425 454 l 765 454 l 765 337 l 425 337 "},"ц":{"x_min":85.265625,"x_max":803.140625,"ha":872,"o":"m 85 648 l 98 721 l 312 721 l 239 300 q 227 187 227 230 q 236 120 227 143 q 332 72 256 72 q 461 135 409 72 q 533 320 512 198 l 604 721 l 717 721 l 612 120 q 610 106 610 113 q 646 72 610 72 q 699 92 683 72 q 736 161 716 112 l 803 161 q 768 58 799 122 q 755 -38 755 0 q 755 -140 755 -76 q 705 -243 755 -216 q 567 -289 655 -271 l 567 -241 q 642 -205 612 -234 q 673 -113 673 -177 q 696 -39 673 -69 q 720 5 720 -9 q 716 20 720 18 q 601 -20 665 -20 q 500 127 514 -20 q 279 -20 411 -20 q 132 48 173 -20 q 109 145 109 89 q 119 262 109 202 l 186 648 l 85 648 "},"ⴒ":{"x_min":56.703125,"x_max":798.90625,"ha":806,"o":"m 637 544 q 610 642 668 642 l 393 616 l 217 58 l 434 87 q 526 194 501 100 l 637 544 m 654 190 q 501 36 602 48 l 193 0 l 180 -103 q 286 -217 166 -217 l 432 -217 l 420 -305 l 282 -305 q 59 -110 33 -305 l 75 17 l 266 621 l 194 621 l 201 673 l 282 673 l 294 710 l 423 710 l 410 673 l 684 710 q 790 619 830 727 l 654 190 "},"⡐":{"x_min":174,"x_max":742,"ha":916,"o":"m 540 599 q 568 679 540 646 q 641 712 597 712 q 712 679 682 712 q 742 599 742 646 q 712 519 742 552 q 641 487 682 487 q 568 519 597 487 q 540 599 540 552 m 174 -169 q 202 -89 174 -122 q 275 -57 231 -57 q 346 -89 316 -57 q 376 -169 376 -122 q 346 -249 376 -216 q 275 -282 316 -282 q 202 -249 231 -282 q 174 -169 174 -216 "},"w":{"x_min":70.53125,"x_max":1044.375,"ha":1069,"o":"m 730 158 q 830 291 811 255 q 963 648 897 427 l 868 648 l 881 721 l 1044 721 l 1031 648 l 1030 648 q 909 274 969 396 q 726 0 821 101 l 632 0 l 566 539 l 311 0 l 221 0 l 143 648 l 70 648 l 83 721 l 250 721 l 318 158 l 584 721 l 663 721 l 730 158 "},"о":{"x_min":53,"x_max":699.171875,"ha":752,"o":"m 321 47 q 471 126 411 47 q 558 360 531 206 q 571 486 571 431 q 553 594 571 551 q 430 673 520 673 q 280 594 340 673 q 193 360 220 515 q 181 235 181 290 q 198 126 181 170 q 321 47 231 47 m 309 -20 q 100 83 168 -20 q 53 261 53 156 q 62 360 53 307 q 196 637 92 533 q 442 741 300 741 q 652 637 584 741 q 699 460 699 565 q 689 360 699 413 q 555 84 659 188 q 309 -20 451 -20 "},"⊥":{"x_min":132,"x_max":1043,"ha":1175,"o":"m 132 0 l 132 110 l 538 110 l 538 956 l 637 956 l 637 110 l 1043 110 l 1043 0 l 132 0 "},"Д":{"x_min":-45.109375,"x_max":1035.5625,"ha":1016,"o":"m 436 929 l 401 732 q 243 110 328 310 q 235 79 231 87 q 259 72 240 72 l 631 72 l 781 929 l 436 929 m 786 -217 l 786 -76 q 731 0 786 0 l 140 0 q 52 -96 79 0 q 20 -217 20 -216 l -45 -217 l 5 72 l 65 72 q 231 297 159 72 q 283 509 252 360 q 327 732 315 658 l 363 940 l 247 940 l 259 1013 l 1035 1013 l 1023 940 l 907 940 l 755 72 l 896 72 l 845 -217 l 786 -217 "},"⊄":{"x_min":132,"x_max":915,"ha":1047,"o":"m 524 109 l 915 109 l 915 0 l 524 0 q 464 4 493 0 l 402 -183 l 310 -145 l 369 35 q 327 58 348 45 q 184 217 237 116 q 132 435 132 317 q 184 653 132 553 q 327 812 237 754 q 524 871 417 871 l 643 871 l 703 1054 l 796 1016 l 748 871 l 915 871 l 915 762 l 712 762 l 498 110 q 524 109 511 109 m 402 138 l 607 762 l 524 762 q 377 717 444 762 q 269 598 309 673 q 230 435 230 523 q 270 272 230 347 q 377 153 310 195 q 402 138 390 144 "},"↙":{"x_min":185,"x_max":878.765625,"ha":1047,"o":"m 808 844 l 878 766 l 322 149 l 551 79 l 546 73 l 188 73 l 185 77 l 185 475 l 191 480 l 253 226 l 808 844 "},"⠦":{"x_min":174,"x_max":742,"ha":916,"o":"m 174 599 q 202 679 174 646 q 275 712 231 712 q 346 679 316 712 q 376 599 376 646 q 346 519 376 552 q 275 487 316 487 q 202 519 231 487 q 174 599 174 552 m 174 215 q 202 295 174 262 q 275 328 231 328 q 346 295 316 328 q 376 215 376 262 q 346 135 376 168 q 275 103 316 103 q 202 135 231 103 q 174 215 174 168 m 540 215 q 568 295 540 262 q 641 328 597 328 q 712 295 682 328 q 742 215 742 262 q 712 135 742 168 q 641 103 682 103 q 568 135 597 103 q 540 215 540 168 "},"Ӂ":{"x_min":-73.609375,"x_max":1431.25,"ha":1404,"o":"m 650 1289 l 709 1289 q 742 1234 713 1252 q 827 1216 771 1216 q 919 1234 883 1216 q 973 1290 955 1252 l 1031 1290 q 948 1167 1004 1210 q 812 1126 892 1126 q 690 1167 731 1126 q 650 1289 650 1209 m 613 1013 l 968 1013 l 955 940 l 839 940 l 765 510 l 1214 940 l 1115 940 l 1128 1013 l 1431 1013 l 1418 940 l 1315 940 l 966 609 l 1211 72 l 1313 72 l 1301 0 l 945 0 l 957 72 l 1059 72 l 863 511 l 746 400 l 687 72 l 803 72 l 791 0 l 436 0 l 448 72 l 564 72 l 622 400 l 542 511 l 192 72 l 294 72 l 282 0 l -73 0 l -61 72 l 40 72 l 474 609 l 241 940 l 137 940 l 150 1013 l 454 1013 l 441 940 l 342 940 l 641 510 l 716 940 l 600 940 l 613 1013 "},"Ḁ":{"x_min":-94.9375,"x_max":839.578125,"ha":903,"o":"m 226 368 l 560 368 l 478 849 l 226 368 m -94 0 l -82 72 l -2 72 l 486 1014 l 589 1014 l 750 72 l 839 72 l 827 0 l 495 0 l 507 72 l 609 72 l 572 295 l 188 295 l 73 72 l 173 72 l 161 0 l -94 0 m 366 -188 q 358 -144 371 -162 q 321 -126 345 -126 q 277 -144 297 -126 q 253 -188 258 -162 q 261 -233 248 -215 q 299 -252 274 -252 q 342 -233 322 -252 q 366 -188 362 -215 m 440 -189 q 385 -292 430 -250 q 284 -335 339 -335 q 199 -292 229 -335 q 179 -189 169 -250 q 235 -87 189 -129 q 335 -45 280 -45 q 420 -87 390 -45 q 440 -189 450 -129 "},"◜":{"x_min":3,"x_max":480,"ha":483,"o":"m 3 361 q 241 819 3 666 q 480 896 361 896 l 480 816 q 277 750 378 816 q 75 361 75 620 l 3 361 "},"◎":{"x_min":68,"x_max":1022,"ha":1090,"o":"m 474 495 q 405 361 405 450 q 474 227 405 272 q 545 205 510 205 q 614 227 580 205 q 685 361 685 272 q 614 495 685 450 q 545 518 580 518 q 474 495 510 518 m 437 155 q 330 361 330 223 q 437 567 330 499 q 544 602 490 602 q 651 567 598 602 q 760 361 760 499 q 651 155 760 223 q 544 121 598 121 q 437 155 490 121 m 341 751 q 139 361 139 621 q 341 -28 139 101 q 544 -94 443 -94 q 747 -28 646 -94 q 950 361 950 101 q 747 751 950 621 q 544 817 646 817 q 341 751 443 817 m 306 -97 q 68 361 68 56 q 306 820 68 666 q 544 897 425 897 q 783 820 664 897 q 1022 361 1022 666 q 783 -97 1022 56 q 544 -174 664 -174 q 306 -97 425 -174 "},"Ĵ":{"x_min":-210.234375,"x_max":568.3125,"ha":500,"o":"m 351 1288 l 459 1288 l 568 1110 l 497 1110 l 393 1218 l 249 1110 l 179 1110 l 351 1288 m -210 -242 l -182 -83 l -112 -83 q -101 -183 -122 -150 q -26 -216 -80 -216 q 83 -165 46 -216 q 147 33 121 -114 l 305 940 l 164 940 l 177 1013 l 558 1013 l 545 940 l 429 940 l 269 28 q 167 -214 240 -139 q -40 -289 93 -289 q -126 -277 -84 -289 q -210 -242 -169 -265 "},"Ҕ":{"x_min":-18.984375,"x_max":904,"ha":913,"o":"m 274 305 l 233 72 l 379 72 l 366 0 l -18 0 l -6 72 l 109 72 l 261 940 l 145 940 l 158 1013 l 904 1013 l 864 787 l 789 787 l 814 929 l 383 929 l 305 484 q 518 604 357 579 q 777 521 699 634 q 808 313 830 444 l 756 15 q 653 -226 727 -151 q 447 -301 579 -301 q 361 -289 404 -301 q 278 -254 318 -277 l 305 -95 l 375 -95 q 386 -195 365 -162 q 461 -228 407 -228 q 571 -177 533 -228 q 634 21 609 -126 l 686 313 q 665 472 707 436 q 485 510 602 527 q 349 439 415 501 q 274 305 287 381 "},"⥥":{"x_min":146.515625,"x_max":900.484375,"ha":1047,"o":"m 443 -32 l 146 302 l 146 310 l 352 179 l 352 1006 l 451 1006 l 451 -32 l 443 -32 m 603 -32 l 596 -32 l 596 1006 l 695 1006 l 695 179 l 900 310 l 900 302 l 603 -32 "},"г":{"x_min":90,"x_max":614,"ha":631,"o":"m 90 144 q 173 319 90 242 q 307 404 224 368 l 378 434 q 497 577 497 483 q 478 641 497 608 q 401 674 459 674 q 127 504 254 674 l 97 545 q 179 643 131 600 q 252 699 227 685 q 418 741 323 741 q 564 690 515 741 q 614 577 614 640 q 557 423 614 491 q 407 317 501 355 q 283 261 313 279 q 207 141 207 216 q 224 84 207 110 q 311 46 251 46 q 546 178 434 46 l 574 210 l 605 168 q 286 -20 473 -20 q 141 30 193 -20 q 90 144 90 81 "},"⡦":{"x_min":174,"x_max":742,"ha":916,"o":"m 174 599 q 202 679 174 646 q 275 712 231 712 q 346 679 316 712 q 376 599 376 646 q 346 519 376 552 q 275 487 316 487 q 202 519 231 487 q 174 599 174 552 m 174 215 q 202 295 174 262 q 275 328 231 328 q 346 295 316 328 q 376 215 376 262 q 346 135 376 168 q 275 103 316 103 q 202 135 231 103 q 174 215 174 168 m 540 215 q 568 295 540 262 q 641 328 597 328 q 712 295 682 328 q 742 215 742 262 q 712 135 742 168 q 641 103 682 103 q 568 135 597 103 q 540 215 540 168 m 174 -169 q 202 -89 174 -122 q 275 -57 231 -57 q 346 -89 316 -57 q 376 -169 376 -122 q 346 -249 376 -216 q 275 -282 316 -282 q 202 -249 231 -282 q 174 -169 174 -216 "},"Ŀ":{"x_min":-18.984375,"x_max":790.46875,"ha":839,"o":"m 625 573 q 660 637 632 611 q 723 664 689 664 q 776 637 756 664 q 788 573 795 610 q 754 509 782 535 q 691 483 725 483 q 638 508 657 483 q 625 573 619 534 m -18 0 l -6 72 l 109 72 l 261 940 l 145 940 l 158 1013 l 514 1013 l 501 940 l 385 940 l 235 83 l 651 83 l 681 253 l 756 253 l 712 0 l -18 0 "},"ᾙ":{"x_min":78.640625,"x_max":1259.703125,"ha":1240,"o":"m 183 1152 q 228 1135 210 1152 q 248 1061 256 1108 q 213 997 241 1023 q 157 970 189 973 q 194 863 157 914 l 146 842 q 142 846 144 844 q 84 1050 59 940 l 86 1061 q 110 1114 91 1091 q 183 1152 141 1152 m 130 0 l 143 72 l 259 72 l 411 940 l 295 940 l 307 1013 l 663 1013 l 650 940 l 534 940 l 473 590 l 946 590 l 1007 940 l 891 940 l 904 1013 l 1259 1013 l 1247 940 l 1131 940 l 979 72 l 1095 72 l 1082 0 l 726 0 l 739 72 l 855 72 l 931 507 l 459 507 l 382 72 l 498 72 l 486 0 l 130 0 m 668 -277 l 622 -288 q 534 -171 508 -315 l 548 -83 l 639 -83 l 622 -180 q 644 -234 612 -243 l 677 -225 l 668 -277 "},"⡳":{"x_min":174,"x_max":742,"ha":916,"o":"m 174 983 q 202 1063 174 1030 q 275 1096 231 1096 q 346 1063 316 1096 q 376 983 376 1030 q 346 903 376 936 q 275 871 316 871 q 202 903 231 871 q 174 983 174 936 m 174 599 q 202 679 174 646 q 275 712 231 712 q 346 679 316 712 q 376 599 376 646 q 346 519 376 552 q 275 487 316 487 q 202 519 231 487 q 174 599 174 552 m 540 599 q 568 679 540 646 q 641 712 597 712 q 712 679 682 712 q 742 599 742 646 q 712 519 742 552 q 641 487 682 487 q 568 519 597 487 q 540 599 540 552 m 540 215 q 568 295 540 262 q 641 328 597 328 q 712 295 682 328 q 742 215 742 262 q 712 135 742 168 q 641 103 682 103 q 568 135 597 103 q 540 215 540 168 m 174 -169 q 202 -89 174 -122 q 275 -57 231 -57 q 346 -89 316 -57 q 376 -169 376 -122 q 346 -249 376 -216 q 275 -282 316 -282 q 202 -249 231 -282 q 174 -169 174 -216 "},"∦":{"x_min":107.75,"x_max":684.234375,"ha":792,"o":"m 240 411 l 240 1149 l 339 1149 l 339 521 l 454 648 l 454 1149 l 552 1149 l 552 758 l 613 827 l 684 749 l 552 602 l 552 -136 l 454 -136 l 454 492 l 339 364 l 339 -136 l 240 -136 l 240 255 l 178 186 l 107 264 l 240 411 "},"ʟ":{"x_min":-10.84375,"x_max":628.65625,"ha":807,"o":"m -10 0 l 1 72 l 117 72 l 218 649 l 102 649 l 115 722 l 470 722 l 458 649 l 342 649 l 243 83 l 524 83 l 554 253 l 628 253 l 584 0 l -10 0 "},"Ǟ":{"x_min":-94.9375,"x_max":839.578125,"ha":903,"o":"m 442 1496 l 807 1496 l 790 1396 l 425 1396 l 442 1496 m 226 367 l 560 367 l 478 848 l 226 367 m -94 0 l -82 72 l -2 72 l 486 1013 l 589 1013 l 750 72 l 839 72 l 827 0 l 495 0 l 507 72 l 609 72 l 572 294 l 188 294 l 73 72 l 173 72 l 161 0 l -94 0 m 458 1278 q 504 1254 487 1278 q 516 1199 521 1230 q 485 1143 509 1165 q 430 1120 461 1120 q 383 1143 400 1120 q 373 1199 367 1165 q 404 1254 379 1230 q 458 1278 429 1278 m 696 1278 q 741 1254 724 1278 q 753 1199 758 1230 q 722 1143 747 1165 q 668 1120 698 1120 q 621 1143 638 1120 q 611 1199 604 1165 q 641 1254 616 1230 q 696 1278 667 1278 "},"𝛯":{"x_min":-18.984375,"x_max":891.796875,"ha":879,"o":"m 661 128 l 678 225 l 754 225 l 714 0 l -18 0 l 20 225 l 95 225 l 78 128 l 661 128 m 794 885 l 210 885 l 193 787 l 118 787 l 158 1013 l 891 1013 l 852 787 l 777 787 l 794 885 m 292 507 l 271 380 l 195 380 l 254 716 l 329 716 l 307 590 l 594 590 l 616 716 l 691 716 l 632 380 l 558 380 l 579 507 l 292 507 "},"Җ":{"x_min":-73,"x_max":1431.859375,"ha":1404,"o":"m 1204 -218 l 1204 -84 q 1154 0 1204 0 l 946 0 l 959 72 l 1060 72 l 864 511 l 746 400 l 689 72 l 805 72 l 792 0 l 436 0 l 449 72 l 565 72 l 622 400 l 544 511 l 194 72 l 295 72 l 283 0 l -73 0 l -60 72 l 41 72 l 475 609 l 242 940 l 139 940 l 151 1013 l 454 1013 l 442 940 l 343 940 l 641 511 l 717 940 l 601 940 l 614 1013 l 969 1013 l 957 940 l 841 940 l 765 511 l 1215 940 l 1116 940 l 1128 1013 l 1431 1013 l 1419 940 l 1316 940 l 967 609 l 1212 72 l 1315 72 l 1264 -218 l 1204 -218 "},"€":{"x_min":-28.609375,"x_max":755.375,"ha":795,"o":"m 652 268 q 519 54 602 128 q 330 -20 435 -20 q 150 83 215 -20 q 86 365 86 186 l -28 365 l 10 436 l 93 436 q 96 462 94 446 q 102 504 101 495 q 110 544 107 527 q 117 576 113 560 l 8 576 l 48 647 l 136 647 q 296 928 196 826 q 513 1031 397 1031 q 631 1010 574 1031 q 755 942 688 989 l 715 710 l 655 710 q 620 898 655 832 q 511 964 585 964 q 366 883 429 964 q 263 647 302 802 l 570 647 l 529 576 l 246 576 q 241 550 244 566 q 231 504 233 516 q 227 475 230 498 q 220 436 223 452 l 449 436 l 408 365 l 213 365 q 235 128 199 209 q 354 47 271 47 q 481 103 425 47 q 571 268 537 160 l 652 268 "},"⤍":{"x_min":71,"x_max":1001,"ha":1047,"o":"m 71 394 l 71 504 l 453 504 l 453 394 l 71 394 m 533 394 l 533 504 l 857 504 l 739 732 l 746 732 l 1001 452 l 1001 445 l 746 165 l 739 165 l 857 394 l 533 394 "},"Ἀ":{"x_min":-94.9375,"x_max":839.578125,"ha":903,"o":"m 337 1152 q 396 1114 379 1152 q 402 1061 407 1091 l 400 1050 q 271 846 386 940 q 266 842 267 844 l 224 863 q 298 970 282 914 q 252 997 268 973 q 240 1061 233 1023 q 286 1135 248 1108 q 337 1152 309 1152 m 226 367 l 560 367 l 478 848 l 226 367 m -94 0 l -82 72 l -2 72 l 486 1013 l 589 1013 l 750 72 l 839 72 l 827 0 l 495 0 l 507 72 l 609 72 l 572 294 l 188 294 l 73 72 l 173 72 l 161 0 l -94 0 "},"С":{"x_min":58.375,"x_max":933.53125,"ha":956,"o":"m 839 268 q 667 53 774 126 q 414 -20 559 -20 q 255 13 325 -20 q 136 113 184 47 q 65 286 81 189 q 70 505 49 383 q 259 886 111 741 q 608 1031 407 1031 q 763 1009 683 1031 q 933 943 844 987 l 892 710 l 823 710 q 765 897 823 837 q 585 958 708 958 q 344 843 439 958 q 210 505 249 728 q 226 167 171 282 q 426 53 281 53 q 604 106 529 53 q 728 268 679 160 l 839 268 "},"⨍":{"x_min":28,"x_max":621,"ha":651,"o":"m 193 -178 q 259 288 259 -178 l 259 377 l 107 377 l 107 492 l 274 492 q 325 901 274 770 q 509 1052 383 1052 q 589 1023 558 1052 q 621 950 621 994 q 601 892 621 914 q 548 871 582 871 q 505 884 522 871 q 481 920 488 897 q 475 955 477 931 q 461 980 472 980 q 392 559 392 980 l 392 492 l 548 492 l 548 377 l 379 377 q 379 353 379 364 q 320 -111 379 28 q 139 -252 261 -252 q 59 -223 90 -252 q 28 -151 28 -195 q 49 -92 28 -113 q 108 -70 71 -70 q 144 -80 129 -70 q 168 -109 159 -90 q 178 -149 175 -121 q 193 -178 181 -178 "},"└":{"x_min":327,"x_max":765.4375,"ha":753,"o":"m 327 337 l 327 1352 l 425 1352 l 425 454 l 765 454 l 765 337 l 327 337 "},"◓":{"x_min":68,"x_max":1022,"ha":1090,"o":"m 131 94 q 68 359 68 217 q 131 624 68 501 q 306 818 195 747 q 545 890 417 890 q 783 818 672 890 q 957 624 893 747 q 1022 359 1022 501 q 957 94 1022 217 q 783 -99 893 -28 q 545 -171 672 -171 q 306 -99 417 -171 q 131 94 195 -28 m 950 361 q 747 750 950 620 q 544 816 646 816 q 341 750 443 816 q 139 361 139 620 l 950 361 "},"Ӓ":{"x_min":-73.25,"x_max":861.28125,"ha":946,"o":"m 480 1278 q 526 1254 509 1278 q 537 1199 543 1230 q 507 1143 531 1165 q 452 1120 482 1120 q 405 1143 421 1120 q 395 1199 389 1165 q 425 1254 400 1230 q 480 1278 451 1278 m 718 1278 q 763 1254 746 1278 q 775 1199 780 1230 q 744 1143 769 1165 q 690 1120 720 1120 q 642 1143 659 1120 q 632 1199 626 1165 q 663 1254 638 1230 q 718 1278 689 1278 m 248 367 l 582 367 l 499 848 l 248 367 m -73 0 l -61 72 l 18 72 l 507 1013 l 611 1013 l 771 72 l 861 72 l 849 0 l 517 0 l 529 72 l 631 72 l 594 294 l 210 294 l 95 72 l 195 72 l 183 0 l -73 0 "},"◭":{"x_min":3.25,"x_max":957.4375,"ha":961,"o":"m 480 -94 l 853 -94 l 480 737 l 480 -94 m 3 -171 l 480 892 l 957 -171 l 3 -171 "},"ᵄ":{"x_min":39.71875,"x_max":434,"ha":482,"o":"m 156 729 l 139 644 l 230 644 q 313 666 283 644 q 352 735 343 688 q 355 758 355 748 q 339 802 355 784 q 274 827 318 827 q 197 799 229 827 q 156 729 164 772 m 60 603 l 102 817 l 39 817 l 47 857 l 180 857 l 172 813 q 235 854 201 840 q 308 868 268 868 q 410 831 377 868 q 434 766 434 805 q 430 735 434 752 q 366 637 418 672 q 230 603 314 603 l 132 603 l 126 575 q 124 551 124 562 q 140 504 124 522 q 214 479 163 479 q 285 498 256 479 q 327 555 314 517 l 363 555 l 348 472 q 271 450 308 457 q 202 442 235 442 q 81 483 117 442 q 56 559 56 512 q 60 603 56 580 "},"⣶":{"x_min":174,"x_max":742,"ha":916,"o":"m 174 599 q 202 679 174 646 q 275 712 231 712 q 346 679 316 712 q 376 599 376 646 q 346 519 376 552 q 275 487 316 487 q 202 519 231 487 q 174 599 174 552 m 174 215 q 202 295 174 262 q 275 328 231 328 q 346 295 316 328 q 376 215 376 262 q 346 135 376 168 q 275 103 316 103 q 202 135 231 103 q 174 215 174 168 m 540 599 q 568 679 540 646 q 641 712 597 712 q 712 679 682 712 q 742 599 742 646 q 712 519 742 552 q 641 487 682 487 q 568 519 597 487 q 540 599 540 552 m 540 215 q 568 295 540 262 q 641 328 597 328 q 712 295 682 328 q 742 215 742 262 q 712 135 742 168 q 641 103 682 103 q 568 135 597 103 q 540 215 540 168 m 174 -169 q 202 -89 174 -122 q 275 -57 231 -57 q 346 -89 316 -57 q 376 -169 376 -122 q 346 -249 376 -216 q 275 -282 316 -282 q 202 -249 231 -282 q 174 -169 174 -216 m 540 -169 q 568 -89 540 -122 q 641 -57 597 -57 q 712 -89 682 -57 q 742 -169 742 -122 q 712 -249 742 -216 q 641 -282 682 -282 q 568 -249 597 -282 q 540 -169 540 -216 "},"Ὕ":{"x_min":78.640625,"x_max":1404.828125,"ha":1305,"o":"m 183 1152 q 228 1135 210 1152 q 248 1061 256 1108 q 213 997 241 1023 q 157 970 189 973 q 194 862 157 914 l 146 842 q 142 846 144 843 q 84 1050 59 940 l 86 1061 q 110 1114 91 1091 q 183 1152 141 1152 m 435 1111 l 557 1111 l 304 856 l 232 856 l 435 1111 m 627 0 l 639 72 l 756 72 l 820 436 l 626 940 l 541 940 l 554 1013 l 892 1013 l 880 940 l 774 940 l 930 530 l 1229 940 l 1126 940 l 1139 1013 l 1404 1013 l 1391 940 l 1305 940 l 945 449 l 879 72 l 996 72 l 983 0 l 627 0 "},"ẳ":{"x_min":41,"x_max":666.6875,"ha":745,"o":"m 453 112 q 240 -20 370 -20 q 78 60 133 -20 q 41 199 41 117 q 47 272 41 233 q 239 635 89 512 q 521 741 367 741 q 661 721 625 741 l 547 72 l 644 72 l 631 0 l 433 0 l 453 112 m 160 203 q 286 58 160 58 q 415 126 362 58 q 490 324 467 194 l 548 652 l 548 652 q 498 672 548 672 q 289 570 381 672 q 167 281 199 467 q 160 203 160 238 m 283 1090 l 341 1090 q 368 1013 341 1037 q 457 989 396 989 q 554 1013 518 989 q 607 1091 590 1037 l 666 1091 q 586 944 642 993 q 440 896 529 896 q 312 944 352 896 q 283 1090 272 993 m 531 1445 q 657 1370 644 1445 q 657 1331 660 1352 q 625 1260 651 1298 q 537 1174 584 1201 l 528 1121 l 437 1121 l 450 1197 q 543 1254 523 1233 q 568 1299 563 1273 q 545 1357 575 1340 q 504 1366 529 1366 q 405 1342 459 1366 l 421 1431 q 510 1445 449 1445 q 531 1445 522 1445 "},"♣":{"x_min":139,"x_max":980.21875,"ha":1120,"o":"m 561 1012 q 753 857 692 1012 q 762 784 762 822 q 690 596 762 705 l 653 556 l 655 556 q 751 575 700 575 l 763 575 q 966 438 907 575 q 980 352 980 393 q 853 143 980 213 q 785 131 828 135 q 576 317 637 131 l 574 317 l 574 310 q 625 4 574 78 l 625 0 l 497 0 l 493 4 q 546 316 546 90 l 546 319 l 543 319 q 333 131 482 131 q 154 267 217 131 q 139 352 139 313 q 289 566 139 510 q 360 575 329 575 l 366 575 q 466 556 418 575 l 468 556 l 468 558 q 399 653 417 606 q 363 782 363 727 l 363 792 q 493 999 363 928 q 561 1012 537 1012 "},"ᴹ":{"x_min":-12.203125,"x_max":821.9375,"ha":806,"o":"m -12 453 l -4 493 l 68 493 l 164 979 l 87 979 l 94 1020 l 262 1020 l 384 616 l 665 1020 l 821 1020 l 814 979 l 737 979 l 642 493 l 715 493 l 707 453 l 482 453 l 491 493 l 564 493 l 649 931 l 375 536 l 320 536 l 202 931 l 115 493 l 189 493 l 181 453 l -12 453 "},"¶":{"x_min":140.625,"x_max":815.15625,"ha":795,"o":"m 486 1014 l 815 1014 l 802 941 l 730 941 l 542 -133 l 477 -133 l 665 941 l 524 941 l 336 -133 l 270 -133 l 370 440 q 183 527 242 452 q 146 727 124 602 q 262 935 168 856 q 486 1014 355 1014 "},"Ụ":{"x_min":136.3125,"x_max":1087.78125,"ha":1053,"o":"m 252 940 l 136 940 l 149 1013 l 505 1013 l 492 940 l 376 940 l 284 416 q 293 145 250 222 q 477 69 337 69 q 687 145 617 69 q 792 416 758 222 l 883 940 l 767 940 l 779 1013 l 1087 1013 l 1074 940 l 958 940 l 864 402 q 728 75 824 171 q 439 -20 631 -20 q 183 76 247 -20 q 158 402 118 172 l 252 940 m 404 -130 q 458 -107 429 -107 q 505 -130 488 -107 q 516 -186 521 -153 q 486 -243 509 -221 q 430 -266 461 -266 q 383 -243 399 -266 q 373 -186 367 -221 q 404 -130 379 -153 "},"­":{"x_min":45.4375,"x_max":376.390625,"ha":422,"o":"m 64 426 l 376 426 l 358 320 l 45 320 l 64 426 "},"ḳ":{"x_min":50.859375,"x_max":685.625,"ha":757,"o":"m 411 450 l 592 72 l 685 72 l 672 0 l 493 0 l 316 368 l 211 277 l 163 0 l 50 0 l 223 984 l 115 984 l 127 1056 l 347 1056 l 227 368 l 550 649 l 457 649 l 469 722 l 651 722 l 639 649 l 411 450 m 223 -130 q 277 -107 248 -107 q 324 -130 307 -107 q 335 -186 340 -153 q 305 -243 328 -221 q 249 -266 280 -266 q 202 -243 218 -266 q 191 -186 186 -221 q 223 -130 198 -153 "},"ѫ":{"x_min":35.203125,"x_max":1160.6875,"ha":1150,"o":"m 127 -20 q 59 8 96 -20 q 42 148 22 36 l 98 160 q 135 63 98 63 q 198 111 173 63 l 285 278 q 398 395 327 357 q 546 434 470 434 l 369 662 l 379 721 l 1023 721 l 1013 662 l 755 434 q 890 396 831 434 q 962 278 949 358 l 991 111 q 1037 63 999 63 q 1106 160 1077 63 l 1160 148 q 1093 8 1140 36 q 1015 -20 1046 -20 q 907 18 928 -20 q 873 122 885 56 l 856 227 q 801 330 841 310 q 707 349 760 349 l 692 349 l 631 0 l 519 0 l 580 350 l 564 350 q 464 330 511 350 q 374 227 417 311 l 319 122 q 250 18 285 56 q 127 -20 214 -20 m 544 648 l 689 461 l 900 648 l 544 648 "},"Ѝ":{"x_min":-18.984375,"x_max":1110.15625,"ha":1090,"o":"m -18 0 l -6 72 l 109 72 l 261 940 l 145 940 l 158 1013 l 514 1013 l 501 940 l 385 940 l 276 314 l 837 825 l 857 940 l 741 940 l 754 1013 l 1110 1013 l 1097 940 l 981 940 l 830 72 l 946 72 l 933 0 l 577 0 l 590 72 l 705 72 l 815 698 l 253 186 l 233 72 l 349 72 l 337 0 l -18 0 m 662 1288 l 741 1109 l 670 1109 l 542 1288 l 662 1288 "},"̯":{"x_min":-519.15625,"x_max":-134.34375,"ha":0,"o":"m -136 -301 l -195 -301 q -222 -223 -195 -247 q -310 -199 -249 -199 q -407 -223 -371 -199 q -460 -301 -443 -247 l -519 -301 q -439 -154 -496 -203 q -293 -106 -382 -106 q -165 -154 -205 -106 q -136 -301 -125 -203 "},"⬌":{"x_min":46,"x_max":1001,"ha":1047,"o":"m 338 630 l 709 630 l 709 733 l 746 733 l 1001 453 l 1001 446 l 746 166 l 709 166 l 709 270 l 338 270 l 338 166 l 300 166 l 46 446 l 46 453 l 300 733 l 338 733 l 338 630 "},"ᶹ":{"x_min":99.6875,"x_max":481.125,"ha":580,"o":"m 342 829 l 385 829 q 464 756 439 805 q 477 647 488 707 q 445 569 469 605 q 385 504 421 531 q 313 465 352 479 q 233 452 274 452 q 137 488 171 452 q 121 587 108 520 l 167 816 l 99 816 l 107 857 l 246 857 l 192 587 q 193 514 182 537 q 241 491 206 491 q 342 541 290 491 q 400 653 385 581 q 395 750 411 711 q 337 806 379 789 l 342 829 "},"ǲ":{"x_min":-18.984375,"x_max":1666.9375,"ha":1660,"o":"m 1500 661 q 1630 721 1566 661 l 1666 721 l 1656 662 l 1213 148 q 1237 140 1219 146 q 1279 118 1258 133 l 1308 97 q 1407 59 1366 59 q 1581 160 1487 59 l 1567 78 q 1383 -35 1462 -35 q 1267 12 1335 -35 q 1156 59 1199 59 q 1026 0 1090 59 l 990 0 l 1000 58 l 1443 571 q 1420 580 1437 574 q 1378 602 1399 587 l 1348 623 q 1249 662 1290 662 q 1075 560 1169 662 l 1089 642 q 1274 756 1194 756 q 1389 708 1321 756 q 1500 661 1458 661 m 233 72 l 347 72 q 639 184 524 72 q 790 507 754 297 q 752 828 827 717 q 499 940 676 940 l 385 940 l 233 72 m -18 0 l -6 72 l 109 72 l 261 940 l 145 940 l 158 1013 l 520 1013 q 864 879 756 1013 q 931 507 972 745 q 733 134 889 268 q 343 0 578 0 l -18 0 "},"⤆":{"x_min":46.234375,"x_max":976,"ha":1047,"o":"m 877 716 l 976 716 l 976 183 l 877 183 l 877 276 l 253 276 l 308 166 l 301 166 l 46 446 l 46 452 l 301 732 l 308 732 l 253 623 l 877 623 l 877 716 m 877 386 l 877 513 l 198 513 l 168 449 l 198 386 l 877 386 "},"Ƨ":{"x_min":58.296875,"x_max":814.484375,"ha":856,"o":"m 674 48 q 506 -2 587 14 q 350 -20 425 -20 q 111 54 183 -20 q 65 276 39 129 q 147 448 84 384 q 343 554 211 512 l 462 591 q 637 673 592 632 q 695 787 682 714 q 667 914 709 870 q 527 958 623 958 q 355 910 417 958 q 263 756 292 862 l 194 756 l 231 970 q 401 1016 322 1000 q 543 1031 479 1031 q 761 959 691 1031 q 809 759 831 888 q 724 579 789 645 q 520 469 659 513 l 394 429 q 234 352 276 391 q 180 240 193 313 q 213 100 164 148 q 370 53 261 53 q 554 108 486 53 q 644 279 620 163 l 714 279 l 674 48 "},"У":{"x_min":35.9375,"x_max":979.28125,"ha":903,"o":"m 352 76 q 186 -20 267 -20 q 119 -8 161 -20 q 35 26 77 3 l 56 139 l 125 139 q 144 86 122 120 q 200 53 166 53 q 290 103 252 53 l 348 187 l 189 940 l 92 940 l 105 1013 l 466 1013 l 453 940 l 345 940 l 463 384 l 783 940 l 667 940 l 680 1013 l 979 1013 l 966 940 l 863 940 l 398 137 q 352 76 381 106 "},"ᾢ":{"x_min":40.828125,"x_max":970.3125,"ha":1019,"o":"m 660 1109 l 773 855 l 702 855 l 539 1109 l 660 1109 m 439 1152 q 499 1114 481 1152 q 504 1060 509 1090 l 503 1050 q 373 846 488 940 q 368 842 370 844 l 326 863 q 400 970 384 914 q 354 997 370 973 q 342 1060 335 1022 q 388 1134 350 1108 q 439 1152 412 1152 m 467 131 q 270 -3 367 -3 q 164 20 213 -3 q 90 88 128 38 q 43 205 58 131 q 52 345 35 245 q 135 589 80 500 q 298 720 185 667 l 366 720 l 360 680 q 241 579 294 648 q 179 357 212 541 q 178 156 157 228 q 282 66 204 66 q 360 108 324 66 q 432 253 419 177 l 474 498 l 587 498 l 544 253 q 566 107 531 177 q 628 66 586 66 q 764 156 706 66 q 832 356 810 228 q 849 579 865 541 q 766 680 820 648 l 773 721 l 841 721 q 958 589 935 667 q 956 346 983 501 q 916 206 938 247 q 828 90 876 133 q 729 21 772 39 q 615 -3 672 -3 q 467 131 521 -3 m 511 -277 l 465 -288 q 377 -171 351 -315 l 391 -83 l 482 -83 l 465 -180 q 487 -234 455 -243 l 520 -225 l 511 -277 "},"ү":{"x_min":73.921875,"x_max":726.3125,"ha":713,"o":"m 73 649 l 86 722 l 254 722 l 364 148 q 625 649 527 388 l 536 649 l 549 722 l 726 722 q 377 34 595 335 l 320 -288 l 208 -288 l 265 34 l 147 649 l 73 649 "},"Ί":{"x_min":90.203125,"x_max":722.25,"ha":702,"o":"m 441 72 l 557 72 l 545 0 l 189 0 l 202 72 l 318 72 l 469 940 l 354 940 l 366 1013 l 722 1013 l 709 940 l 593 940 l 441 72 m 292 1112 l 414 1112 l 162 856 l 90 856 l 292 1112 "},"⇑":{"x_min":269,"x_max":779.328125,"ha":1048,"o":"m 269 742 l 269 750 l 521 1033 l 527 1033 l 779 750 l 779 742 l 681 803 l 681 0 l 582 0 l 582 863 l 524 898 l 467 863 l 467 0 l 368 0 l 368 803 l 269 742 "},"┅":{"x_min":-12,"x_max":765,"ha":752,"o":"m 576 278 l 576 511 l 765 511 l 765 278 l 576 278 m 286 278 l 286 511 l 467 511 l 467 278 l 286 278 m -12 278 l -12 511 l 176 511 l 176 278 l -12 278 "},"︄":{"x_min":0,"x_max":0,"ha":0},"⅓":{"x_min":57.640625,"x_max":1153.484375,"ha":1211,"o":"m 831 542 q 921 569 878 560 q 1000 578 964 578 q 1123 541 1084 578 q 1150 437 1162 504 q 1103 354 1142 388 q 1005 309 1065 320 q 1106 258 1076 298 q 1124 150 1135 217 q 1050 31 1110 72 q 889 -10 989 -10 q 804 0 845 -10 q 726 27 764 8 l 746 143 l 789 143 q 808 66 783 92 q 890 40 834 40 q 983 69 947 40 q 1030 155 1019 99 q 1015 250 1040 218 q 928 283 990 283 l 895 283 l 904 333 l 920 333 q 1015 358 980 333 q 1058 433 1049 383 q 1045 503 1066 479 q 979 528 1025 528 q 898 506 929 528 q 856 441 868 484 l 813 441 l 831 542 m 939 1031 l 1030 1031 l 271 -19 l 180 -19 l 939 1031 m 57 453 l 67 510 l 172 510 l 248 940 l 112 868 l 124 932 l 285 1019 l 347 1019 l 259 510 l 364 510 l 354 453 l 57 453 "},"Ģ":{"x_min":57.453125,"x_max":945.859375,"ha":998,"o":"m 410 -278 q 478 -212 457 -250 q 500 -119 500 -174 l 500 -105 l 594 -105 q 556 -224 594 -174 q 449 -311 520 -274 l 410 -278 m 836 710 q 778 897 836 836 q 601 958 721 958 q 346 845 443 958 q 209 505 249 732 q 230 167 170 282 q 445 53 290 53 q 580 71 514 53 q 710 128 646 90 l 755 390 l 583 390 l 596 463 l 892 463 l 826 84 q 637 6 736 32 q 433 -20 539 -20 q 127 123 226 -20 q 69 505 28 267 q 261 888 111 745 q 621 1031 410 1031 q 779 1010 699 1031 q 945 949 859 990 l 903 710 l 836 710 "},"ᾇ":{"x_min":52.515625,"x_max":818.96875,"ha":843,"o":"m 498 1151 q 543 1134 525 1151 q 563 1060 571 1108 q 528 997 556 1022 q 472 970 504 973 q 510 862 472 914 l 461 842 q 457 846 459 843 q 399 1050 374 940 l 401 1060 q 425 1114 406 1090 q 498 1151 456 1151 m 517 1231 l 488 1268 q 467 1289 476 1284 q 446 1295 457 1295 q 401 1267 420 1295 q 370 1190 381 1241 l 311 1190 q 368 1331 328 1281 q 463 1381 408 1381 q 505 1371 486 1381 q 541 1339 522 1362 l 569 1302 q 590 1281 580 1286 q 612 1276 599 1276 q 658 1303 638 1276 q 688 1382 677 1330 l 747 1382 q 690 1239 730 1290 q 595 1190 650 1190 q 554 1199 572 1190 q 517 1231 536 1209 m 508 177 l 469 102 q 375 6 440 44 q 267 -17 334 -17 q 90 88 146 -17 q 62 363 33 193 q 186 637 91 529 q 426 740 275 740 q 574 694 530 740 q 616 566 616 654 l 616 541 l 653 616 q 757 724 688 688 l 818 724 l 811 683 q 718 599 749 662 l 625 406 l 625 199 q 651 81 625 92 q 767 115 681 64 l 753 33 q 541 36 614 -46 q 508 129 508 74 l 508 177 m 501 310 l 501 510 q 416 669 501 669 q 277 586 345 669 q 193 362 221 518 q 198 137 167 213 q 315 55 231 55 q 463 229 384 61 l 501 310 m 343 -277 l 297 -288 q 208 -171 183 -315 l 223 -83 l 314 -83 l 297 -180 q 319 -234 286 -243 l 352 -225 l 343 -277 "},"⣂":{"x_min":174,"x_max":742,"ha":916,"o":"m 174 599 q 202 679 174 646 q 275 712 231 712 q 346 679 316 712 q 376 599 376 646 q 346 519 376 552 q 275 487 316 487 q 202 519 231 487 q 174 599 174 552 m 174 -169 q 202 -89 174 -122 q 275 -57 231 -57 q 346 -89 316 -57 q 376 -169 376 -122 q 346 -249 376 -216 q 275 -282 316 -282 q 202 -249 231 -282 q 174 -169 174 -216 m 540 -169 q 568 -89 540 -122 q 641 -57 597 -57 q 712 -89 682 -57 q 742 -169 742 -122 q 712 -249 742 -216 q 641 -282 682 -282 q 568 -249 597 -282 q 540 -169 540 -216 "},"⡞":{"x_min":174,"x_max":742,"ha":916,"o":"m 174 599 q 202 679 174 646 q 275 712 231 712 q 346 679 316 712 q 376 599 376 646 q 346 519 376 552 q 275 487 316 487 q 202 519 231 487 q 174 599 174 552 m 174 215 q 202 295 174 262 q 275 328 231 328 q 346 295 316 328 q 376 215 376 262 q 346 135 376 168 q 275 103 316 103 q 202 135 231 103 q 174 215 174 168 m 540 983 q 568 1063 540 1030 q 641 1096 597 1096 q 712 1063 682 1096 q 742 983 742 1030 q 712 903 742 936 q 641 871 682 871 q 568 903 597 871 q 540 983 540 936 m 540 599 q 568 679 540 646 q 641 712 597 712 q 712 679 682 712 q 742 599 742 646 q 712 519 742 552 q 641 487 682 487 q 568 519 597 487 q 540 599 540 552 m 174 -169 q 202 -89 174 -122 q 275 -57 231 -57 q 346 -89 316 -57 q 376 -169 376 -122 q 346 -249 376 -216 q 275 -282 316 -282 q 202 -249 231 -282 q 174 -169 174 -216 "},"ǌ":{"x_min":87.6875,"x_max":1173,"ha":1193,"o":"m 87 0 l 201 648 l 93 648 l 106 721 l 326 721 l 304 592 q 404 703 348 666 q 526 741 460 741 q 672 672 633 741 q 696 561 696 630 q 685 458 696 515 l 617 72 l 718 72 l 705 0 l 492 0 l 565 418 q 578 535 578 488 q 568 600 578 576 q 473 650 547 650 q 343 586 395 650 q 270 401 291 522 l 200 0 l 87 0 m 1033 944 q 1063 998 1038 975 q 1116 1022 1087 1022 q 1160 998 1144 1022 q 1173 959 1173 981 q 1171 944 1173 952 q 1142 890 1166 912 q 1089 868 1118 868 q 1044 890 1061 868 q 1032 929 1032 907 q 1033 944 1032 936 m 1008 648 l 903 648 l 915 721 l 1134 721 l 995 -70 q 905 -245 976 -182 q 730 -309 834 -309 q 648 -297 686 -309 q 576 -264 610 -286 l 602 -116 l 659 -116 q 659 -147 659 -132 q 673 -211 659 -189 q 744 -241 694 -241 q 833 -200 799 -241 q 883 -70 867 -158 l 1008 648 "},"⁵":{"x_min":18.984375,"x_max":484.890625,"ha":500,"o":"m 484 1010 l 472 949 l 189 949 l 155 790 q 210 810 179 803 q 276 817 240 817 q 421 766 374 817 q 450 630 468 717 q 362 492 431 542 q 188 443 293 443 q 103 452 145 443 q 18 481 61 462 l 42 589 l 88 589 q 108 508 80 537 q 196 480 136 480 q 304 519 261 480 q 363 630 347 557 q 352 741 379 702 q 260 780 326 780 q 192 767 223 780 q 134 731 162 756 l 99 731 l 159 1010 l 484 1010 "},"ჶ":{"x_min":47,"x_max":1069,"ha":1120,"o":"m 904 373 q 925 473 919 431 q 932 545 932 515 q 923 603 932 582 q 899 635 915 624 q 863 648 884 645 q 817 652 842 652 q 770 648 795 652 q 721 632 745 645 q 678 592 698 619 q 646 516 659 564 l 571 222 q 566 183 566 200 q 577 137 566 155 q 606 108 588 119 q 648 92 625 97 q 697 88 672 88 q 757 98 729 88 q 809 140 784 109 q 858 226 834 171 q 904 373 881 282 m 253 0 q 168 10 206 0 q 103 46 130 21 q 61 109 76 70 q 47 205 47 149 q 52 280 47 240 q 70 369 58 320 q 135 539 96 469 q 222 653 174 609 q 326 718 271 698 q 442 738 382 738 q 469 734 453 738 q 504 724 485 731 q 542 708 522 717 q 579 686 561 698 l 589 686 q 624 801 607 756 q 663 873 641 846 q 713 914 684 900 q 784 933 742 927 l 784 904 q 756 886 767 896 q 736 862 744 875 q 722 835 728 849 q 713 804 717 820 l 684 692 l 701 692 q 739 711 719 703 q 780 725 759 719 q 822 734 801 731 q 862 738 843 738 q 947 726 908 738 q 1012 688 985 714 q 1054 623 1039 663 q 1069 527 1069 583 q 1063 458 1069 495 q 1047 377 1058 421 q 981 198 1019 270 q 897 82 944 126 q 795 18 851 37 q 676 0 739 0 q 599 9 637 0 q 535 39 562 19 l 525 39 l 493 -86 q 392 -256 464 -199 q 197 -313 320 -313 l 216 -244 l 267 -244 q 302 -228 284 -244 q 336 -186 320 -212 q 365 -126 352 -159 q 387 -58 378 -93 l 533 513 q 540 563 540 542 q 528 611 540 593 q 497 638 516 629 q 459 649 479 647 q 422 652 438 652 q 364 641 392 652 q 309 600 336 631 q 259 514 283 569 q 212 369 235 458 q 189 264 196 308 q 183 188 183 220 q 189 135 183 156 q 208 103 196 114 q 238 87 221 91 q 278 83 256 83 l 253 0 "},"á":{"x_min":42,"x_max":679.890625,"ha":745,"o":"m 454 112 q 242 -20 372 -20 q 80 60 134 -20 q 42 199 42 117 q 48 272 42 233 q 240 635 90 512 q 522 741 368 741 q 662 721 626 741 l 548 72 l 645 72 l 632 0 l 435 0 l 454 112 m 161 203 q 287 58 161 58 q 416 126 363 58 q 491 324 468 194 l 549 652 l 549 652 q 499 672 549 672 q 291 570 382 672 q 168 281 201 467 q 161 203 161 238 m 558 1111 l 679 1111 l 427 856 l 355 856 l 558 1111 "},"⠂":{"x_min":174,"x_max":376,"ha":916,"o":"m 174 599 q 202 679 174 646 q 275 712 231 712 q 346 679 316 712 q 376 599 376 646 q 346 519 376 552 q 275 487 316 487 q 202 519 231 487 q 174 599 174 552 "},"𝜓":{"x_min":160.71875,"x_max":990.125,"ha":980,"o":"m 459 -289 l 346 -289 l 396 -5 q 290 19 339 -5 q 215 89 254 37 q 168 205 181 136 q 181 356 162 246 q 198 579 207 506 q 160 681 187 655 l 167 721 l 229 721 q 307 589 290 651 q 305 356 330 501 q 303 155 282 228 q 408 66 329 66 l 522 721 l 636 721 l 521 66 q 655 155 598 66 q 724 356 701 228 q 804 589 751 511 q 928 721 850 657 l 990 721 l 982 681 q 910 579 948 656 q 848 356 875 508 q 808 205 829 246 q 720 89 771 136 q 621 19 664 37 q 508 -5 564 -5 l 459 -289 "},"⇥":{"x_min":71.328125,"x_max":976,"ha":1047,"o":"m 71 505 l 772 505 l 655 733 l 662 733 l 877 496 l 877 716 l 976 716 l 976 183 l 877 183 l 877 403 l 662 166 l 655 166 l 772 395 l 71 395 l 71 505 "},"K":{"x_min":-18.984375,"x_max":994.203125,"ha":934,"o":"m -18 0 l -6 72 l 109 72 l 261 940 l 145 940 l 158 1013 l 514 1013 l 501 940 l 385 940 l 318 557 l 777 940 l 678 940 l 691 1013 l 994 1013 l 981 940 l 878 940 l 421 558 l 773 72 l 877 72 l 864 0 l 653 0 l 305 481 l 233 72 l 349 72 l 337 0 l -18 0 "},"Y":{"x_min":61.71875,"x_max":925.015625,"ha":825,"o":"m 147 0 l 160 72 l 276 72 l 340 436 l 147 940 l 61 940 l 74 1013 l 413 1013 l 400 940 l 294 940 l 450 530 l 749 940 l 646 940 l 659 1013 l 925 1013 l 912 940 l 826 940 l 465 449 l 400 72 l 516 72 l 503 0 l 147 0 "},"E":{"x_min":-18.984375,"x_max":891.796875,"ha":912,"o":"m -18 0 l -6 72 l 109 72 l 261 940 l 145 940 l 158 1013 l 891 1013 l 852 787 l 777 787 l 802 929 l 383 929 l 324 590 l 622 590 l 644 716 l 720 716 l 661 380 l 585 380 l 608 507 l 309 507 l 235 83 l 663 83 l 689 225 l 763 225 l 724 0 l -18 0 "},"Ƥ":{"x_min":-84.09375,"x_max":841.828125,"ha":841,"o":"m 273 1013 l 589 1013 q 792 936 725 1013 q 836 728 858 859 q 719 520 813 597 q 489 443 625 443 l 298 443 l 233 72 l 374 72 l 362 0 l -18 0 l -6 72 l 109 72 l 261 940 q 71 880 122 940 q -5 692 16 818 l -84 692 l -43 925 q 142 1001 25 975 q 273 1013 214 1013 m 311 516 l 472 516 q 620 570 562 516 q 695 728 677 625 q 675 886 713 832 q 546 940 637 940 l 385 940 l 311 516 "},"Ï":{"x_min":-18.984375,"x_max":562.15625,"ha":494,"o":"m 233 72 l 349 72 l 337 0 l -18 0 l -6 72 l 109 72 l 261 940 l 145 940 l 158 1013 l 514 1013 l 501 940 l 385 940 l 233 72 m 265 1278 q 311 1254 295 1278 q 323 1199 328 1230 q 292 1143 317 1165 q 238 1120 268 1120 q 191 1143 207 1120 q 181 1199 174 1165 q 211 1254 186 1230 q 265 1278 237 1278 m 503 1278 q 549 1254 532 1278 q 560 1199 566 1230 q 530 1143 554 1165 q 476 1120 505 1120 q 428 1143 445 1120 q 418 1199 412 1165 q 448 1254 423 1230 q 503 1278 474 1278 "},"𝜅":{"x_min":-10.84375,"x_max":802.28125,"ha":819,"o":"m 425 721 l 412 648 l 316 648 l 267 368 l 589 649 l 495 649 l 508 722 l 802 722 l 789 649 l 678 649 l 450 450 l 631 72 l 724 72 l 712 0 l 392 0 l 404 72 l 497 72 l 355 368 l 250 276 l 214 72 l 316 72 l 303 0 l -10 0 l 1 72 l 103 72 l 204 650 l 96 650 l 109 721 l 425 721 "},"ῶ":{"x_min":40.828125,"x_max":970.3125,"ha":1019,"o":"m 467 131 q 270 -3 367 -3 q 164 20 213 -3 q 90 88 128 38 q 43 205 58 131 q 52 345 35 245 q 135 589 80 500 q 298 720 185 667 l 366 720 l 360 680 q 241 579 294 648 q 179 357 212 541 q 178 156 157 228 q 282 66 204 66 q 360 108 324 66 q 432 253 419 177 l 474 498 l 587 498 l 544 253 q 566 107 531 177 q 628 66 586 66 q 764 156 706 66 q 832 356 810 228 q 849 579 865 541 q 766 680 820 648 l 773 721 l 841 721 q 958 589 935 667 q 956 346 983 501 q 916 206 938 247 q 828 90 876 133 q 729 21 772 39 q 615 -3 672 -3 q 467 131 521 -3 m 623 865 l 594 902 q 573 923 581 918 q 552 929 563 929 q 507 901 526 929 q 476 824 487 875 l 417 824 q 474 965 434 915 q 569 1015 514 1015 q 611 1005 592 1015 q 647 973 628 996 l 675 936 q 696 915 686 920 q 718 910 705 910 q 763 937 744 910 q 794 1015 783 964 l 853 1015 q 796 873 836 923 q 701 824 756 824 q 659 833 678 824 q 623 865 642 842 "},"ȴ":{"x_min":100.375,"x_max":550.34375,"ha":625,"o":"m 254 111 q 368 47 284 47 q 478 119 465 47 q 425 203 493 203 q 254 111 315 203 m 240 361 q 230 181 221 253 q 448 277 332 277 q 545 115 573 277 q 356 -20 521 -20 q 205 28 262 -20 q 187 -51 196 6 l 170 -148 l 100 -148 l 118 -51 q 155 71 131 17 l 146 84 q 128 361 99 200 l 236 984 l 128 984 l 141 1056 l 361 1056 l 240 361 "},"Ɖ":{"x_min":-12.890625,"x_max":948.671875,"ha":1008,"o":"m 238 72 l 353 72 q 645 184 531 72 q 797 507 760 297 q 758 828 834 717 q 505 940 682 940 l 389 940 l 326 573 l 531 573 l 516 488 l 311 488 l 238 72 m -12 0 l 0 72 l 115 72 l 188 488 l 66 488 l 81 573 l 203 573 l 267 940 l 151 940 l 164 1013 l 526 1013 q 870 879 762 1013 q 937 507 978 745 q 739 134 895 268 q 349 0 584 0 l -12 0 "},"⢯":{"x_min":174,"x_max":742,"ha":916,"o":"m 174 983 q 202 1063 174 1030 q 275 1096 231 1096 q 346 1063 316 1096 q 376 983 376 1030 q 346 903 376 936 q 275 871 316 871 q 202 903 231 871 q 174 983 174 936 m 174 599 q 202 679 174 646 q 275 712 231 712 q 346 679 316 712 q 376 599 376 646 q 346 519 376 552 q 275 487 316 487 q 202 519 231 487 q 174 599 174 552 m 174 215 q 202 295 174 262 q 275 328 231 328 q 346 295 316 328 q 376 215 376 262 q 346 135 376 168 q 275 103 316 103 q 202 135 231 103 q 174 215 174 168 m 540 983 q 568 1063 540 1030 q 641 1096 597 1096 q 712 1063 682 1096 q 742 983 742 1030 q 712 903 742 936 q 641 871 682 871 q 568 903 597 871 q 540 983 540 936 m 540 215 q 568 295 540 262 q 641 328 597 328 q 712 295 682 328 q 742 215 742 262 q 712 135 742 168 q 641 103 682 103 q 568 135 597 103 q 540 215 540 168 m 540 -169 q 568 -89 540 -122 q 641 -57 597 -57 q 712 -89 682 -57 q 742 -169 742 -122 q 712 -249 742 -216 q 641 -282 682 -282 q 568 -249 597 -282 q 540 -169 540 -216 "},"K":{"x_min":-18.984375,"x_max":994.203125,"ha":934,"o":"m -18 0 l -6 72 l 109 72 l 261 940 l 145 940 l 158 1013 l 514 1013 l 501 940 l 385 940 l 318 557 l 777 940 l 678 940 l 691 1013 l 994 1013 l 981 940 l 878 940 l 421 558 l 773 72 l 877 72 l 864 0 l 653 0 l 305 481 l 233 72 l 349 72 l 337 0 l -18 0 "},"┞":{"x_min":278,"x_max":764.609375,"ha":752,"o":"m 327 -418 l 327 337 l 278 337 l 278 1352 l 473 1352 l 473 454 l 764 454 l 764 337 l 425 337 l 425 -418 l 327 -418 "},"ϋ":{"x_min":95.625,"x_max":710.421875,"ha":760,"o":"m 370 1064 q 416 1040 399 1064 q 427 984 432 1017 q 397 927 421 949 q 341 905 373 905 q 295 927 311 905 q 285 984 278 949 q 316 1040 290 1017 q 370 1064 341 1064 m 608 1064 q 653 1040 636 1064 q 664 984 670 1017 q 634 927 658 949 q 579 905 610 905 q 533 927 548 905 q 522 984 516 949 q 554 1040 528 1017 q 608 1064 578 1064 m 513 721 l 581 721 q 698 588 675 667 q 695 345 723 500 q 645 205 682 270 q 550 88 607 137 q 436 20 497 43 q 309 -3 375 -3 q 157 62 210 -3 q 130 237 110 119 l 203 648 l 95 648 l 108 721 l 328 721 l 244 237 q 246 108 228 148 q 322 66 265 66 q 482 155 398 66 q 573 356 550 227 q 589 579 604 539 q 506 680 560 648 l 513 721 "},"⥗":{"x_min":71.328125,"x_max":976,"ha":1047,"o":"m 877 505 l 877 716 l 976 716 l 976 183 l 877 183 l 877 403 l 662 166 l 655 166 l 772 395 l 71 395 l 71 505 l 877 505 "},"ἶ":{"x_min":96.296875,"x_max":549.3125,"ha":490,"o":"m 303 1153 q 362 1115 345 1153 q 368 1062 373 1091 l 366 1051 q 237 847 352 941 q 232 843 233 844 l 190 863 q 264 971 248 915 q 218 998 234 974 q 206 1062 199 1024 q 252 1136 214 1109 q 303 1153 276 1153 m 319 1232 l 290 1269 q 269 1290 278 1285 q 248 1296 259 1296 q 203 1268 222 1296 q 172 1191 183 1242 l 113 1191 q 170 1332 130 1282 q 265 1382 210 1382 q 307 1372 288 1382 q 343 1340 324 1363 l 371 1303 q 392 1282 382 1287 q 414 1277 401 1277 q 460 1304 440 1277 q 491 1382 479 1331 l 549 1382 q 492 1240 532 1290 q 397 1191 453 1191 q 356 1200 374 1191 q 319 1232 338 1209 m 124 197 l 203 649 l 96 649 l 109 722 l 328 722 l 236 197 q 261 79 220 102 q 377 112 292 62 l 362 30 q 152 34 224 -48 q 124 197 105 88 "},"𝜄":{"x_min":96.296875,"x_max":377.0625,"ha":490,"o":"m 124 197 l 203 649 l 96 649 l 109 722 l 328 722 l 236 197 q 261 79 220 102 q 377 112 292 62 l 362 30 q 152 34 224 -48 q 124 197 105 88 "},"ⅰ":{"x_min":63.078125,"x_max":337,"ha":399,"o":"m 197 945 q 227 999 202 976 q 280 1023 251 1023 q 324 999 308 1023 q 337 960 337 982 q 335 945 337 953 q 306 891 330 913 q 253 869 282 869 q 208 891 225 869 q 196 930 196 908 q 197 945 196 937 m 187 72 l 294 72 l 281 0 l 63 0 l 176 649 l 69 649 l 82 722 l 301 722 l 187 72 "},"b":{"x_min":53.640625,"x_max":721,"ha":800,"o":"m 225 984 l 117 984 l 130 1056 l 350 1056 l 272 608 q 373 708 316 676 q 505 741 430 741 q 682 635 625 741 q 721 469 721 566 q 710 360 721 418 q 586 85 680 191 q 372 -20 492 -20 q 252 12 297 -20 q 185 112 206 44 l 165 0 l 53 0 l 225 984 m 222 324 q 213 228 213 271 q 232 125 213 166 q 351 58 265 58 q 495 134 437 58 q 578 360 552 211 q 591 483 591 429 q 574 586 591 545 q 457 663 543 663 q 314 594 371 663 q 235 396 257 525 l 222 324 "},"𝑇":{"x_min":59,"x_max":910.109375,"ha":833,"o":"m 149 0 l 162 72 l 279 72 l 429 932 l 161 932 l 134 773 l 59 773 l 101 1013 l 910 1013 l 868 773 l 793 773 l 820 932 l 552 932 l 402 72 l 518 72 l 506 0 l 149 0 "},"⢨":{"x_min":540,"x_max":742,"ha":916,"o":"m 540 983 q 568 1063 540 1030 q 641 1096 597 1096 q 712 1063 682 1096 q 742 983 742 1030 q 712 903 742 936 q 641 871 682 871 q 568 903 597 871 q 540 983 540 936 m 540 215 q 568 295 540 262 q 641 328 597 328 q 712 295 682 328 q 742 215 742 262 q 712 135 742 168 q 641 103 682 103 q 568 135 597 103 q 540 215 540 168 m 540 -169 q 568 -89 540 -122 q 641 -57 597 -57 q 712 -89 682 -57 q 742 -169 742 -122 q 712 -249 742 -216 q 641 -282 682 -282 q 568 -249 597 -282 q 540 -169 540 -216 "},"≕":{"x_min":132,"x_max":1159,"ha":1291,"o":"m 996 574 q 1019 638 996 612 q 1077 665 1042 665 q 1135 638 1111 665 q 1159 574 1159 611 q 1135 510 1159 536 q 1077 484 1111 484 q 1019 509 1042 484 q 996 574 996 535 m 996 297 q 1019 361 996 335 q 1077 388 1042 388 q 1135 361 1111 388 q 1159 297 1159 334 q 1135 233 1159 259 q 1077 207 1111 207 q 1019 232 1042 207 q 996 297 996 258 m 132 629 l 915 629 l 915 520 l 132 520 l 132 629 m 132 352 l 915 352 l 915 243 l 132 243 l 132 352 "},"ﬂ":{"x_min":-76.640625,"x_max":804.984375,"ha":833,"o":"m 196 649 l 88 649 l 101 722 l 209 722 l 221 787 q 329 989 244 923 q 562 1056 413 1056 l 804 1056 l 632 72 l 739 72 l 727 0 l 508 0 l 680 984 l 548 984 q 400 940 449 984 q 333 789 351 896 l 321 722 l 501 722 l 488 649 l 308 649 l 187 -44 q 99 -227 166 -165 q -76 -289 32 -289 l -69 -222 q 25 -184 -5 -222 q 75 -44 58 -143 l 196 649 "},"ɢ":{"x_min":53.46875,"x_max":677.96875,"ha":680,"o":"m 311 -22 l 311 -22 m 328 38 l 328 38 m 581 492 q 548 630 581 598 q 432 674 505 674 q 283 591 353 674 q 186 347 215 511 q 200 104 158 183 q 382 37 237 37 q 466 57 419 37 q 509 77 501 72 l 542 272 l 422 272 l 431 324 l 638 324 l 590 51 q 458 -5 527 13 q 315 -25 389 -25 q 100 79 170 -25 q 62 355 32 182 q 198 631 92 528 q 450 735 303 735 q 561 720 502 735 q 677 676 616 705 l 646 492 l 581 492 "},"Ʈ":{"x_min":84.09375,"x_max":935.203125,"ha":833,"o":"m 681 -242 q 586 -277 632 -265 q 495 -289 539 -289 q 314 -214 361 -289 q 297 28 267 -139 l 455 932 l 187 932 l 159 773 l 84 773 l 126 1013 l 935 1013 l 893 773 l 818 773 l 846 932 l 578 932 l 421 33 q 415 -165 395 -112 q 507 -216 433 -216 q 594 -182 560 -216 q 640 -83 626 -150 l 709 -83 l 681 -242 "},"Ὢ":{"x_min":70.53125,"x_max":1353.5625,"ha":1413,"o":"m 404 1109 l 517 855 l 446 855 l 283 1109 l 404 1109 m 183 1152 q 242 1114 225 1152 q 248 1061 253 1091 l 246 1050 q 117 846 232 940 q 112 842 113 844 l 70 863 q 144 971 128 914 q 98 997 114 974 q 86 1061 79 1023 q 132 1135 94 1108 q 183 1152 155 1152 m 990 111 l 1194 111 l 1211 203 l 1282 203 l 1247 0 l 885 0 l 907 123 q 1100 276 1025 170 q 1203 539 1175 381 q 1172 843 1235 728 q 973 959 1108 959 q 734 843 837 959 q 597 539 630 728 q 607 275 569 381 q 745 123 644 170 l 724 0 l 364 0 l 400 203 l 471 203 l 455 111 l 659 111 q 488 289 541 170 q 459 554 434 409 q 528 746 478 657 q 658 904 579 835 q 813 999 729 966 q 985 1032 897 1032 q 1146 999 1074 1032 q 1267 904 1217 967 q 1343 745 1323 835 q 1344 554 1363 656 q 1224 289 1319 409 q 990 111 1128 170 "},"↽":{"x_min":43,"x_max":976,"ha":1047,"o":"m 43 495 l 43 504 l 976 504 l 976 394 l 232 394 l 350 165 l 344 165 l 43 495 "},"Ḡ":{"x_min":57.46875,"x_max":945.859375,"ha":998,"o":"m 836 710 q 779 897 836 836 q 601 958 722 958 q 346 845 444 958 q 210 505 249 732 q 230 167 170 282 q 445 53 290 53 q 580 71 514 53 q 710 128 646 90 l 755 390 l 584 390 l 597 463 l 892 463 l 826 84 q 637 6 736 32 q 433 -20 539 -20 q 127 123 226 -20 q 69 505 28 267 q 261 888 111 745 q 621 1031 410 1031 q 779 1010 699 1031 q 945 949 859 990 l 903 710 l 836 710 m 473 1288 l 839 1288 l 821 1188 l 456 1188 l 473 1288 "},"⤕":{"x_min":67.546875,"x_max":1001,"ha":1047,"o":"m 551 716 l 650 716 l 650 505 l 857 505 l 740 733 l 746 733 l 1001 453 l 1001 446 l 746 166 l 740 166 l 857 395 l 650 395 l 650 183 l 551 183 l 551 395 l 497 395 l 497 183 l 398 183 l 398 395 l 344 395 l 137 166 l 67 244 l 252 446 l 252 453 l 67 655 l 137 733 l 344 505 l 398 505 l 398 716 l 497 716 l 497 505 l 551 505 l 551 716 "},"‬":{"x_min":0,"x_max":0,"ha":0},"ȭ":{"x_min":53,"x_max":726.984375,"ha":752,"o":"m 321 47 q 471 126 411 47 q 558 360 531 206 q 571 486 571 431 q 553 594 571 551 q 430 673 520 673 q 280 594 340 673 q 193 360 220 515 q 181 235 181 290 q 198 126 181 170 q 321 47 231 47 m 309 -20 q 100 83 168 -20 q 53 261 53 156 q 62 360 53 307 q 196 637 92 533 q 442 741 300 741 q 652 637 584 741 q 699 460 699 565 q 689 360 699 413 q 555 84 659 188 q 309 -20 451 -20 m 493 929 l 464 966 q 442 987 451 982 q 421 993 433 993 q 377 965 396 993 q 345 888 357 939 l 286 888 q 343 1029 304 979 q 439 1079 383 1079 q 480 1069 462 1079 q 517 1037 498 1060 l 545 1000 q 566 979 556 984 q 587 974 575 974 q 633 1001 614 974 q 664 1079 653 1028 l 722 1079 q 665 937 705 987 q 571 888 626 888 q 529 897 547 888 q 493 929 512 907 m 361 1249 l 726 1249 l 709 1149 l 344 1149 l 361 1249 "},"Ŋ":{"x_min":58.203125,"x_max":1005,"ha":1053,"o":"m 499 -122 q 588 -216 499 -216 q 698 -165 661 -216 q 762 33 735 -115 l 860 598 q 879 766 879 699 q 863 870 879 834 q 711 944 830 944 q 512 856 592 944 q 404 602 433 769 l 311 73 l 427 73 l 414 0 l 58 0 l 71 73 l 187 73 l 338 940 l 231 940 l 244 1013 l 475 1013 l 452 876 q 762 1033 570 1033 q 972 933 916 1033 q 1005 792 1005 874 q 990 625 1005 709 l 886 27 q 783 -214 857 -139 q 575 -289 709 -289 q 405 -242 486 -289 l 433 -83 l 502 -83 q 499 -122 499 -104 "},"Ⅹ":{"x_min":-80.703125,"x_max":931.796875,"ha":890,"o":"m 401 433 l 115 72 l 233 72 l 221 0 l -80 0 l -67 72 l 37 72 l 373 497 l 185 940 l 87 940 l 100 1013 l 461 1013 l 448 940 l 341 940 l 479 614 l 737 940 l 620 940 l 632 1013 l 931 1013 l 918 940 l 816 940 l 507 550 l 710 72 l 808 72 l 796 0 l 434 0 l 446 72 l 556 72 l 401 433 "},"𝐴":{"x_min":-94.9375,"x_max":839.578125,"ha":903,"o":"m 226 367 l 560 367 l 478 848 l 226 367 m -94 0 l -82 72 l -2 72 l 486 1013 l 589 1013 l 750 72 l 839 72 l 827 0 l 495 0 l 507 72 l 609 72 l 572 294 l 188 294 l 73 72 l 173 72 l 161 0 l -94 0 "},"Ẋ":{"x_min":-80.703125,"x_max":931.796875,"ha":890,"o":"m 544 1256 q 599 1280 570 1280 q 644 1256 627 1280 q 656 1201 661 1232 q 625 1145 650 1167 q 571 1122 601 1122 q 524 1145 540 1122 q 513 1201 507 1167 q 544 1256 518 1232 m 401 433 l 115 72 l 233 72 l 221 0 l -80 0 l -67 72 l 37 72 l 373 497 l 185 940 l 87 940 l 100 1013 l 461 1013 l 448 940 l 341 940 l 479 614 l 737 940 l 620 940 l 632 1013 l 931 1013 l 918 940 l 816 940 l 507 550 l 710 72 l 808 72 l 796 0 l 434 0 l 446 72 l 556 72 l 401 433 "},"ď":{"x_min":24,"x_max":1016.5625,"ha":799,"o":"m 749 1056 l 564 0 l 452 0 l 472 112 q 370 12 427 44 q 239 -20 314 -20 q 61 85 119 -20 q 24 252 24 155 q 34 360 24 303 q 157 635 63 530 q 372 741 251 741 q 492 708 446 741 q 558 608 537 676 l 624 984 l 518 984 l 531 1056 l 749 1056 m 509 324 l 521 396 q 531 491 531 449 q 511 594 531 553 q 393 663 478 663 q 249 586 306 663 q 166 360 191 510 q 154 239 154 292 q 170 134 154 176 q 288 58 201 58 q 430 126 373 58 q 509 324 487 194 m 895 1054 l 1016 1054 l 884 799 l 812 799 l 895 1054 "},"Ⴠ":{"x_min":88.625,"x_max":1230.40625,"ha":1263,"o":"m 1217 638 l 1138 638 l 1053 195 q 1018 104 1043 141 q 957 44 993 67 q 876 10 921 21 q 780 0 831 0 l 660 0 q 562 7 606 0 q 488 33 519 15 q 441 79 457 51 q 425 148 425 108 q 429 195 425 169 l 603 1107 l 405 1107 l 315 638 l 88 638 l 101 709 l 180 709 l 255 1107 l 177 1107 l 191 1178 l 842 1178 l 828 1107 l 750 1107 l 584 242 q 579 207 581 224 q 578 177 578 191 q 605 94 578 119 q 686 69 632 69 l 767 69 q 814 79 790 69 q 856 109 837 90 q 889 158 875 129 q 910 222 903 186 l 990 638 l 911 638 l 925 709 l 1230 709 l 1217 638 "},"⟸":{"x_min":46,"x_max":1720,"ha":1791,"o":"m 307 166 l 300 166 l 46 446 l 46 452 l 300 732 l 307 732 l 253 623 l 1720 623 l 1720 513 l 198 513 l 168 449 l 198 386 l 1720 386 l 1720 276 l 253 276 l 307 166 "},"ṯ":{"x_min":13.890625,"x_max":503.3125,"ha":501,"o":"m 166 648 l 68 648 l 81 721 l 179 721 l 218 944 l 331 944 l 292 721 l 503 721 l 491 648 l 279 648 l 199 190 q 190 105 190 136 q 194 72 190 83 q 249 47 206 47 q 318 75 293 47 q 356 169 343 104 l 440 169 q 367 25 418 70 q 227 -20 316 -20 q 98 28 130 -20 q 79 111 79 57 q 87 190 79 146 l 166 648 m 30 -105 l 396 -105 l 378 -205 l 13 -205 l 30 -105 "},"ŧ":{"x_min":39.671875,"x_max":503.625,"ha":502,"o":"m 167 648 l 68 648 l 81 721 l 180 721 l 218 944 l 332 944 l 292 721 l 503 721 l 490 648 l 279 648 l 252 490 l 368 490 l 351 394 l 235 394 l 199 190 q 191 105 191 136 q 195 72 191 83 q 249 47 206 47 q 318 75 293 47 q 356 169 344 104 l 441 169 q 367 25 418 70 q 228 -20 316 -20 q 99 28 131 -20 q 79 111 79 57 q 87 190 79 145 l 122 394 l 39 394 l 57 490 l 139 490 l 167 648 "},"À":{"x_min":-94.9375,"x_max":839.578125,"ha":903,"o":"m 226 367 l 560 367 l 478 848 l 226 367 m -94 0 l -82 72 l -2 72 l 486 1013 l 589 1013 l 750 72 l 839 72 l 827 0 l 495 0 l 507 72 l 609 72 l 572 294 l 188 294 l 73 72 l 173 72 l 161 0 l -94 0 m 528 1288 l 608 1109 l 537 1109 l 408 1288 l 528 1288 "},"Ώ":{"x_min":16.28125,"x_max":1005.65625,"ha":1065,"o":"m 642 111 l 847 111 l 863 203 l 934 203 l 899 0 l 537 0 l 559 123 q 752 276 677 170 q 855 539 827 381 q 824 843 887 728 q 625 959 760 959 q 386 843 489 959 q 249 539 282 728 q 259 275 221 381 q 398 123 297 170 l 376 0 l 16 0 l 52 203 l 123 203 l 107 111 l 311 111 q 140 289 193 170 q 111 554 86 409 q 180 746 130 657 q 310 904 231 835 q 465 999 381 966 q 637 1032 549 1032 q 798 999 726 1032 q 919 904 870 967 q 995 745 975 835 q 996 554 1015 656 q 876 289 971 409 q 642 111 780 170 m 292 1111 l 414 1111 l 162 856 l 90 856 l 292 1111 "},"┰":{"x_min":-12,"x_max":765,"ha":752,"o":"m 278 -418 l 278 337 l -12 337 l -12 454 l 765 454 l 765 337 l 473 337 l 473 -418 l 278 -418 "},"̟":{"x_min":-463.875,"x_max":-154.625,"ha":0,"o":"m -345 -261 l -326 -149 l -236 -149 l -255 -261 l -154 -261 l -172 -361 l -273 -361 l -292 -472 l -383 -472 l -363 -361 l -463 -361 l -446 -261 l -345 -261 "},"'":{"x_min":123,"x_max":220,"ha":343,"o":"m 220 1014 l 220 637 l 123 637 l 123 1014 l 220 1014 "},"⢟":{"x_min":174,"x_max":742,"ha":916,"o":"m 174 983 q 202 1063 174 1030 q 275 1096 231 1096 q 346 1063 316 1096 q 376 983 376 1030 q 346 903 376 936 q 275 871 316 871 q 202 903 231 871 q 174 983 174 936 m 174 599 q 202 679 174 646 q 275 712 231 712 q 346 679 316 712 q 376 599 376 646 q 346 519 376 552 q 275 487 316 487 q 202 519 231 487 q 174 599 174 552 m 174 215 q 202 295 174 262 q 275 328 231 328 q 346 295 316 328 q 376 215 376 262 q 346 135 376 168 q 275 103 316 103 q 202 135 231 103 q 174 215 174 168 m 540 983 q 568 1063 540 1030 q 641 1096 597 1096 q 712 1063 682 1096 q 742 983 742 1030 q 712 903 742 936 q 641 871 682 871 q 568 903 597 871 q 540 983 540 936 m 540 599 q 568 679 540 646 q 641 712 597 712 q 712 679 682 712 q 742 599 742 646 q 712 519 742 552 q 641 487 682 487 q 568 519 597 487 q 540 599 540 552 m 540 -169 q 568 -89 540 -122 q 641 -57 597 -57 q 712 -89 682 -57 q 742 -169 742 -122 q 712 -249 742 -216 q 641 -282 682 -282 q 568 -249 597 -282 q 540 -169 540 -216 "},"ჼ":{"x_min":130,"x_max":601.96875,"ha":466,"o":"m 390 666 q 401 740 401 709 q 343 810 401 810 q 225 666 262 810 q 215 592 215 623 q 272 525 215 525 q 321 535 302 525 q 354 565 341 546 q 374 610 367 584 q 390 666 382 636 m 473 666 q 258 474 424 474 q 130 588 130 474 q 133 625 130 605 q 141 666 136 644 l 231 1019 q 259 1080 239 1052 q 306 1128 278 1108 q 369 1159 334 1148 q 445 1171 405 1171 q 460 1167 451 1171 q 480 1160 470 1164 q 501 1153 491 1156 q 521 1150 512 1150 q 552 1156 532 1150 q 601 1173 572 1162 l 591 1129 q 542 1097 564 1109 q 503 1086 521 1086 q 464 1088 479 1086 q 441 1095 450 1091 q 427 1101 432 1098 q 418 1104 422 1104 q 385 1096 402 1104 q 355 1078 369 1089 q 330 1050 340 1066 q 315 1019 320 1035 l 272 846 l 279 846 q 356 859 323 859 q 454 832 422 859 q 486 748 486 806 q 473 666 486 715 "},"Ⴃ":{"x_min":60,"x_max":1087.75,"ha":1085,"o":"m 845 466 q 859 596 859 536 q 848 683 859 645 q 813 749 837 722 q 751 790 789 776 q 658 804 713 804 l 557 804 q 346 720 430 804 q 230 473 261 637 l 220 420 q 207 339 211 377 q 204 270 204 302 q 215 179 204 218 q 253 116 227 141 q 320 80 279 91 q 418 68 361 68 l 518 68 q 640 93 588 68 q 731 165 692 119 q 795 276 770 211 q 836 420 821 341 l 845 466 m 984 420 q 925 246 966 324 q 829 114 885 168 q 705 30 773 60 q 563 1 636 1 l 334 1 q 220 22 270 1 q 134 84 169 44 q 79 182 98 125 q 60 310 60 239 q 70 420 60 362 l 87 503 q 119 597 96 553 q 174 678 142 641 q 245 744 206 715 q 327 797 285 774 q 413 835 370 820 q 498 857 457 850 l 543 857 l 590 1107 l 366 1107 l 345 996 l 234 891 l 161 891 l 174 960 l 224 960 l 265 1177 l 1078 1177 l 1036 960 l 1087 960 l 1074 891 l 1017 891 l 929 996 l 950 1107 l 730 1107 l 682 857 l 726 857 q 793 837 759 851 q 858 801 826 823 q 915 753 889 780 q 962 693 942 725 q 993 625 982 661 q 1005 551 1005 589 q 1003 527 1005 539 q 1000 503 1002 515 l 984 420 "},"▩":{"x_min":113,"x_max":1067,"ha":1180,"o":"m 183 729 l 213 696 l 289 780 l 256 816 l 183 816 l 183 729 m 183 449 l 213 415 l 290 500 l 213 586 l 183 553 l 183 449 m 387 780 l 464 695 l 541 780 l 509 816 l 419 816 l 387 780 m 262 641 l 339 555 l 414 640 l 338 725 l 262 641 m 183 168 l 213 135 l 290 221 l 213 306 l 183 272 l 183 168 m 639 780 l 716 695 l 793 780 l 760 816 l 672 816 l 639 780 m 513 640 l 590 555 l 667 640 l 590 725 l 513 640 m 388 500 l 465 415 l 541 500 l 464 585 l 388 500 m 262 361 l 339 275 l 416 361 l 339 446 l 262 361 m 891 780 l 967 696 l 998 729 l 998 816 l 924 816 l 891 780 m 766 640 l 841 555 l 918 641 l 842 725 l 766 640 m 639 500 l 715 415 l 792 500 l 716 585 l 639 500 m 514 361 l 590 276 l 666 361 l 590 445 l 514 361 m 388 220 l 464 136 l 541 221 l 465 306 l 388 220 m 262 80 l 339 -3 l 414 81 l 339 166 l 262 80 m 183 -94 l 257 -94 l 289 -58 l 213 25 l 183 -7 l 183 -94 m 891 500 l 967 415 l 998 449 l 998 553 l 967 586 l 891 500 m 764 361 l 841 275 l 918 361 l 841 446 l 764 361 m 639 221 l 716 136 l 792 220 l 715 306 l 639 221 m 513 81 l 590 -4 l 667 81 l 590 166 l 513 81 m 387 -58 l 419 -94 l 509 -94 l 541 -58 l 464 26 l 387 -58 m 891 221 l 967 135 l 998 168 l 998 272 l 967 306 l 891 221 m 765 81 l 842 -3 l 918 80 l 841 166 l 765 81 m 639 -58 l 671 -94 l 760 -94 l 793 -58 l 716 26 l 639 -58 m 891 -58 l 923 -94 l 998 -94 l 998 -7 l 967 25 l 891 -58 m 113 -171 l 113 893 l 1067 893 l 1067 -171 l 113 -171 "},"Ɠ":{"x_min":50.8125,"x_max":1231.15625,"ha":998,"o":"m 1062 1038 q 950 958 986 1038 q 924 867 934 921 l 897 710 l 828 710 l 829 713 q 705 940 829 894 q 595 958 659 958 q 340 845 437 958 q 203 505 243 732 q 329 71 139 145 q 439 53 377 53 q 703 128 576 53 l 748 390 l 577 390 l 590 463 l 885 463 l 819 84 q 426 -20 639 -20 q 120 123 220 -20 q 63 505 21 267 q 254 888 105 745 q 614 1031 404 1031 q 885 973 744 1031 q 954 1065 910 1026 q 1077 1106 1000 1106 q 1231 1061 1163 1106 l 1204 912 l 1147 912 q 1100 1032 1164 1011 q 1062 1038 1084 1038 "},"Ć":{"x_min":58.375,"x_max":933.53125,"ha":956,"o":"m 839 268 q 667 53 774 126 q 414 -20 559 -20 q 255 13 325 -20 q 136 113 184 47 q 65 286 81 189 q 70 505 49 383 q 259 886 111 741 q 608 1031 407 1031 q 763 1009 683 1031 q 933 943 844 987 l 892 710 l 823 710 q 765 897 823 837 q 585 958 708 958 q 344 843 439 958 q 210 505 249 728 q 226 167 171 282 q 426 53 281 53 q 604 106 529 53 q 728 268 679 160 l 839 268 m 691 1288 l 812 1288 l 620 1109 l 549 1109 l 691 1288 "},"ẓ":{"x_min":-12.203125,"x_max":664.609375,"ha":659,"o":"m 497 662 q 627 721 564 662 l 664 721 l 654 662 l 210 148 q 235 140 217 146 q 276 118 255 133 l 306 97 q 404 59 364 59 q 579 161 484 59 l 564 79 q 381 -35 459 -35 q 265 12 332 -35 q 154 60 197 60 q 24 0 88 60 l -12 0 l -2 58 l 441 572 q 417 581 435 575 q 375 603 396 588 l 346 624 q 247 662 288 662 q 73 560 167 662 l 87 643 q 271 756 192 756 q 387 709 319 756 q 497 662 455 662 m 174 -130 q 228 -107 199 -107 q 275 -130 258 -107 q 286 -186 291 -153 q 256 -243 280 -221 q 200 -266 231 -266 q 153 -243 169 -266 q 143 -186 137 -221 q 174 -130 149 -153 "},"ⴇ":{"x_min":73.25,"x_max":1217.3125,"ha":1200,"o":"m 509 132 l 665 622 l 382 571 l 229 92 l 509 132 m 863 0 l 1060 622 l 778 571 l 596 0 l 467 0 l 491 78 l 211 35 l 202 0 l 73 0 l 270 622 l 198 622 l 204 672 l 286 672 l 299 710 l 425 710 l 398 622 l 680 671 l 693 711 l 822 711 l 794 622 l 1078 672 l 1089 711 l 1217 711 l 1021 92 l 1092 92 l 1085 35 l 1004 35 l 993 0 l 863 0 "},"⢍":{"x_min":174,"x_max":742,"ha":916,"o":"m 174 983 q 202 1063 174 1030 q 275 1096 231 1096 q 346 1063 316 1096 q 376 983 376 1030 q 346 903 376 936 q 275 871 316 871 q 202 903 231 871 q 174 983 174 936 m 174 215 q 202 295 174 262 q 275 328 231 328 q 346 295 316 328 q 376 215 376 262 q 346 135 376 168 q 275 103 316 103 q 202 135 231 103 q 174 215 174 168 m 540 983 q 568 1063 540 1030 q 641 1096 597 1096 q 712 1063 682 1096 q 742 983 742 1030 q 712 903 742 936 q 641 871 682 871 q 568 903 597 871 q 540 983 540 936 m 540 -169 q 568 -89 540 -122 q 641 -57 597 -57 q 712 -89 682 -57 q 742 -169 742 -122 q 712 -249 742 -216 q 641 -282 682 -282 q 568 -249 597 -282 q 540 -169 540 -216 "},"↫":{"x_min":46,"x_max":976,"ha":1047,"o":"m 744 217 l 645 217 l 645 394 l 189 394 l 307 165 l 301 165 l 46 445 l 46 452 l 301 732 l 307 732 l 189 504 l 645 504 l 645 578 q 693 708 645 654 q 810 762 742 762 q 927 708 879 762 q 976 578 976 654 q 927 447 976 501 q 810 394 879 394 l 744 394 l 744 217 m 810 504 q 857 525 838 504 q 877 578 877 547 q 857 630 877 608 q 810 652 838 652 q 763 630 783 652 q 744 578 744 608 l 744 504 l 810 504 "},"Ͱ":{"x_min":-18.984375,"x_max":893.828125,"ha":925,"o":"m 781 507 l 309 507 l 233 72 l 349 72 l 337 0 l -18 0 l -6 72 l 109 72 l 261 940 l 145 940 l 158 1013 l 514 1013 l 501 940 l 385 940 l 324 590 l 796 590 l 818 716 l 893 716 l 834 380 l 760 380 l 781 507 "},"Ğ":{"x_min":57.46875,"x_max":945.859375,"ha":998,"o":"m 836 710 q 778 897 836 836 q 601 958 721 958 q 346 845 443 958 q 209 505 249 732 q 230 167 170 282 q 445 53 290 53 q 580 71 514 53 q 710 128 646 90 l 755 390 l 584 390 l 597 463 l 892 463 l 826 84 q 637 6 736 32 q 433 -20 539 -20 q 127 123 226 -20 q 69 505 28 267 q 261 888 111 745 q 621 1031 410 1031 q 779 1010 699 1031 q 945 949 859 990 l 903 710 l 836 710 m 477 1289 l 536 1289 q 569 1234 540 1252 q 654 1216 598 1216 q 747 1234 711 1216 q 800 1290 783 1252 l 858 1290 q 775 1167 831 1210 q 639 1126 719 1126 q 517 1167 558 1126 q 477 1289 477 1209 "},"Ї":{"x_min":-18.984375,"x_max":589.96875,"ha":494,"o":"m 233 72 l 349 72 l 337 0 l -18 0 l -6 72 l 109 72 l 261 940 l 145 940 l 158 1013 l 514 1013 l 501 940 l 385 940 l 233 72 m 293 1278 q 339 1254 322 1278 q 351 1199 356 1230 q 320 1143 345 1165 q 265 1120 296 1120 q 219 1143 235 1120 q 208 1199 202 1165 q 239 1254 214 1230 q 293 1278 265 1278 m 531 1278 q 577 1254 560 1278 q 588 1199 594 1230 q 558 1143 582 1165 q 503 1120 533 1120 q 456 1143 473 1120 q 446 1199 440 1165 q 476 1254 451 1230 q 531 1278 502 1278 "},"Ź":{"x_min":-31.875,"x_max":887.046875,"ha":868,"o":"m 659 1289 l 780 1289 l 588 1110 l 517 1110 l 659 1289 m -31 0 l -23 48 l 698 930 l 227 930 l 200 778 l 125 778 l 166 1013 l 887 1013 l 878 964 l 156 83 l 672 83 l 696 224 l 771 224 l 731 0 l -31 0 "},"Ꙑ":{"x_min":92.703125,"x_max":1401.1875,"ha":1381,"o":"m 1120 72 l 1236 72 l 1224 0 l 868 0 l 880 72 l 997 72 l 1148 940 l 1032 940 l 1045 1013 l 1401 1013 l 1388 940 l 1272 940 l 1120 72 m 383 72 l 545 72 q 691 124 631 72 q 765 254 751 177 q 779 361 779 330 q 744 468 779 424 q 623 513 709 513 l 461 513 l 383 72 m 664 1013 l 651 940 l 535 940 l 475 596 l 610 596 q 885 487 807 596 q 919 367 919 441 q 912 295 919 333 q 532 0 860 0 l 132 0 l 144 72 l 259 72 l 410 929 l 192 929 l 167 787 l 92 787 l 132 1013 l 664 1013 "},"ʻ":{"x_min":97.65625,"x_max":355.359375,"ha":397,"o":"m 355 977 q 269 875 301 933 q 223 730 238 818 l 215 688 l 97 688 q 171 887 118 806 q 317 1031 223 969 l 355 977 "},"╒":{"x_min":327,"x_max":765.4375,"ha":753,"o":"m 327 -419 l 327 570 l 765 570 l 765 453 l 425 453 l 425 337 l 765 337 l 765 220 l 425 220 l 425 -419 l 327 -419 "},"𝛽":{"x_min":-38.65625,"x_max":662.46875,"ha":722,"o":"m 139 87 q 270 47 181 47 q 428 107 364 47 q 511 271 493 167 q 491 474 536 413 q 339 538 445 538 l 281 538 l 294 611 l 324 611 q 464 659 402 611 q 534 807 515 700 q 523 906 542 853 q 435 994 491 994 q 250 722 297 994 l 139 87 m -38 -289 l 137 720 q 330 1042 187 1004 q 457 1063 407 1063 q 627 963 571 1063 q 659 816 672 884 q 590 663 642 720 q 457 580 538 607 q 616 488 565 562 q 640 273 665 415 q 516 55 615 131 q 257 -20 417 -20 q 123 -4 157 -20 l 73 -289 l -38 -289 "},"Ṁ":{"x_min":-18.984375,"x_max":1305.46875,"ha":1280,"o":"m 737 1256 q 792 1280 763 1280 q 838 1256 821 1280 q 849 1201 855 1232 q 819 1145 843 1167 q 764 1122 794 1122 q 717 1145 733 1122 q 706 1201 700 1167 q 737 1256 712 1232 m -18 0 l -6 72 l 109 72 l 261 940 l 139 940 l 151 1013 l 417 1013 l 611 292 l 1056 1013 l 1305 1013 l 1293 940 l 1171 940 l 1019 72 l 1135 72 l 1123 0 l 767 0 l 779 72 l 895 72 l 1032 854 l 596 149 l 510 149 l 321 854 l 184 72 l 300 72 l 288 0 l -18 0 "},"ɔ":{"x_min":28.375,"x_max":651.921875,"ha":700,"o":"m 87 505 q 209 680 131 620 q 395 741 288 741 q 604 637 537 741 q 642 360 672 532 q 507 83 612 187 q 262 -20 404 -20 q 142 -3 200 -20 q 28 44 83 11 l 60 229 l 124 229 q 159 90 124 134 q 273 47 193 47 q 423 125 364 47 q 511 360 484 204 q 505 595 538 516 q 382 673 473 673 q 258 631 309 673 q 177 505 208 589 l 87 505 "},"ᵎ":{"x_min":28,"x_max":201.421875,"ha":218,"o":"m 116 330 q 98 299 113 312 q 64 287 82 287 q 36 299 46 287 q 28 321 28 309 q 28 330 28 325 q 47 360 32 347 q 81 373 63 373 q 109 360 99 373 q 118 338 118 351 q 116 330 118 334 m 122 819 l 55 819 l 63 860 l 201 860 l 130 496 l 198 496 l 189 455 l 51 455 l 122 819 "},"Ⴋ":{"x_min":34,"x_max":1094,"ha":1189,"o":"m 431 638 q 348 629 381 638 q 293 603 314 621 q 259 555 271 585 q 238 480 247 524 l 189 226 q 186 187 186 207 q 191 143 186 165 q 207 105 196 122 q 236 79 218 89 q 281 69 255 69 l 354 69 q 413 82 386 69 q 461 118 440 96 q 496 168 482 140 q 516 226 510 196 l 595 638 l 431 638 m 934 501 q 939 537 938 521 q 943 566 941 553 q 936 603 943 589 q 916 625 930 617 q 880 635 902 633 q 830 638 859 638 l 744 638 l 664 226 q 632 121 652 165 q 582 51 613 78 q 509 12 552 24 q 411 0 467 0 l 247 0 q 158 10 197 0 q 91 41 118 20 q 48 94 63 62 q 34 169 34 126 q 36 197 34 183 q 40 226 38 211 l 88 476 q 445 709 133 709 l 609 709 l 643 886 l 436 886 q 366 912 392 886 q 340 990 340 939 q 341 1010 340 1000 q 344 1031 342 1020 l 357 1107 l 282 1107 l 295 1178 l 598 1178 l 584 1107 l 506 1107 l 489 1020 q 487 1008 488 1014 q 487 999 487 1003 q 497 967 487 977 q 525 957 508 957 l 883 957 l 870 887 l 791 887 l 757 709 l 959 709 q 1018 703 993 709 q 1060 686 1043 698 q 1085 653 1077 674 q 1094 600 1094 632 q 1091 561 1094 582 q 1083 516 1089 541 l 1012 142 l 1092 142 l 1078 69 l 852 69 l 934 501 "},"┐":{"x_min":-12.078125,"x_max":425,"ha":753,"o":"m 327 -418 l 327 337 l -12 337 l -12 454 l 425 454 l 425 -418 l 327 -418 "},"ʚ":{"x_min":26.5625,"x_max":717.015625,"ha":766,"o":"m 274 48 q 337 60 282 48 q 411 90 363 65 q 605 361 572 174 q 505 631 636 537 q 442 661 497 641 q 383 670 421 670 q 276 635 317 670 q 223 535 235 600 q 247 428 211 464 q 368 393 284 393 l 391 393 l 380 325 l 357 325 q 223 289 273 325 q 162 182 174 253 q 179 82 150 117 q 274 48 208 48 m 560 690 q 710 358 750 589 q 443 26 673 149 q 339 -11 404 5 q 244 -24 290 -24 q 69 28 125 -24 q 30 176 13 80 q 96 294 42 246 q 236 359 151 342 q 119 424 157 376 q 94 541 82 472 q 184 688 111 637 q 379 741 258 741 q 469 728 403 741 q 560 690 502 724 "},"↶":{"x_min":55,"x_max":962,"ha":1047,"o":"m 962 361 l 863 361 q 842 470 863 418 q 789 559 822 522 q 708 618 755 596 q 610 641 661 641 q 512 618 559 641 q 432 559 466 596 q 379 470 399 522 q 359 361 359 418 l 565 492 l 565 484 l 312 202 l 306 202 l 55 484 l 55 492 l 260 361 q 287 512 260 440 q 362 636 315 584 q 474 720 410 689 q 611 751 539 751 q 747 720 682 751 q 859 636 811 689 q 934 512 906 584 q 962 361 962 440 "},"ῖ":{"x_min":96.296875,"x_max":564.234375,"ha":490,"o":"m 334 930 l 305 967 q 284 988 292 983 q 263 994 274 994 q 218 966 237 994 q 187 889 198 940 l 128 889 q 185 1030 145 980 q 280 1080 225 1080 q 322 1070 303 1080 q 358 1038 339 1061 l 386 1001 q 407 980 397 985 q 429 975 416 975 q 475 1002 455 975 q 505 1080 494 1029 l 564 1080 q 507 938 547 988 q 412 889 467 889 q 370 898 389 889 q 334 930 353 907 m 124 197 l 203 649 l 96 649 l 109 722 l 328 722 l 236 197 q 261 79 220 102 q 377 112 292 62 l 362 30 q 152 34 224 -48 q 124 197 105 88 "},".":{"x_min":111.21875,"x_max":281.84375,"ha":397,"o":"m 129 6 q 117 70 111 32 q 151 134 124 108 q 214 161 179 161 q 267 134 248 161 q 280 70 286 108 q 245 6 273 32 q 183 -20 217 -20 q 129 6 148 -20 "},"ǀ":{"x_min":46.109375,"x_max":322.125,"ha":368,"o":"m 322 1013 l 145 0 l 46 0 l 223 1013 l 322 1013 "},"ꙇ":{"x_min":95.625,"x_max":328.234375,"ha":490,"o":"m 130 238 l 202 649 l 95 649 l 108 722 l 328 722 l 243 238 q 246 108 227 149 q 321 67 265 67 l 309 0 q 156 63 205 0 q 130 238 110 124 "},"║":{"x_min":229,"x_max":522,"ha":752,"o":"m 229 -419 l 229 1352 l 327 1352 l 327 -419 l 229 -419 m 424 -419 l 424 1352 l 522 1352 l 522 -419 l 424 -419 "},"ʂ":{"x_min":14.015625,"x_max":623.921875,"ha":641,"o":"m 144 -3 l 132 -70 q 136 -199 116 -159 q 210 -241 154 -241 q 291 -211 260 -241 q 339 -116 322 -180 l 396 -116 l 370 -264 q 287 -297 328 -286 q 201 -309 244 -309 q 48 -245 96 -309 q 19 -70 0 -181 l 46 87 l 47 87 l 68 208 l 133 208 q 158 87 122 127 l 158 87 l 160 87 l 159 85 q 278 47 195 47 q 399 78 354 47 q 455 170 444 110 q 439 247 463 218 q 327 309 415 276 l 251 340 q 143 415 173 370 q 126 529 113 459 q 218 684 143 628 q 408 741 293 741 q 514 726 460 741 q 623 682 568 711 l 596 525 l 531 525 q 507 634 541 595 q 400 673 472 673 q 289 645 330 673 q 238 562 248 618 q 252 489 229 516 q 352 433 275 461 l 436 402 q 555 323 523 370 q 574 199 587 275 q 476 38 556 97 q 271 -20 395 -20 q 151 -5 208 -20 l 144 -3 "},"ԝ":{"x_min":70.53125,"x_max":1044.375,"ha":1069,"o":"m 730 158 q 830 291 811 255 q 963 648 897 427 l 868 648 l 881 721 l 1044 721 l 1031 648 l 1030 648 q 909 274 969 396 q 726 0 821 101 l 632 0 l 566 539 l 311 0 l 221 0 l 143 648 l 70 648 l 83 721 l 250 721 l 318 158 l 584 721 l 663 721 l 730 158 "},"⠘":{"x_min":540,"x_max":742,"ha":916,"o":"m 540 984 q 568 1064 540 1031 q 641 1097 597 1097 q 712 1064 682 1097 q 742 984 742 1031 q 712 904 742 937 q 641 872 682 872 q 568 904 597 872 q 540 984 540 937 m 540 599 q 568 679 540 646 q 641 712 597 712 q 712 679 682 712 q 742 599 742 646 q 712 519 742 552 q 641 487 682 487 q 568 519 597 487 q 540 599 540 552 "},"à":{"x_min":42,"x_max":662.25,"ha":745,"o":"m 454 112 q 242 -20 372 -20 q 80 60 134 -20 q 42 199 42 117 q 48 272 42 233 q 240 635 90 512 q 522 741 368 741 q 662 721 626 741 l 548 72 l 645 72 l 632 0 l 435 0 l 454 112 m 161 203 q 287 58 161 58 q 416 126 363 58 q 491 324 468 194 l 549 652 l 549 652 q 499 672 549 672 q 291 570 382 672 q 168 281 201 467 q 161 203 161 238 m 379 1109 l 492 855 l 421 855 l 258 1109 l 379 1109 "},"₀":{"x_min":15.53125,"x_max":466.65625,"ha":500,"o":"m 106 89 q 186 27 124 27 q 295 89 249 27 q 366 278 337 149 q 375 478 395 408 q 295 541 357 541 q 187 478 229 541 q 115 278 143 413 q 106 89 88 152 m 179 -10 q 39 65 79 -10 q 28 278 -2 144 q 130 502 64 432 q 302 578 202 578 q 442 501 402 578 q 453 278 484 425 q 351 65 424 141 q 179 -10 279 -10 "},"⡂":{"x_min":174,"x_max":376,"ha":916,"o":"m 174 599 q 202 679 174 646 q 275 712 231 712 q 346 679 316 712 q 376 599 376 646 q 346 519 376 552 q 275 487 316 487 q 202 519 231 487 q 174 599 174 552 m 174 -169 q 202 -89 174 -122 q 275 -57 231 -57 q 346 -89 316 -57 q 376 -169 376 -122 q 346 -249 376 -216 q 275 -282 316 -282 q 202 -249 231 -282 q 174 -169 174 -216 "},"₴":{"x_min":32.546875,"x_max":955.546875,"ha":975,"o":"m 299 369 q 278 352 286 360 q 224 239 237 313 q 257 100 208 148 q 414 53 305 53 q 598 108 531 53 q 687 279 664 163 l 758 279 l 717 48 q 550 -2 631 14 q 394 -20 469 -20 q 154 54 226 -20 q 109 276 83 129 q 136 369 118 327 l 32 369 l 44 441 l 183 441 q 191 449 187 445 q 387 553 254 512 l 506 591 q 551 606 529 598 l 67 606 l 80 678 l 686 678 q 739 787 727 718 q 711 914 753 870 q 571 958 668 958 q 399 910 461 958 q 307 756 336 861 l 238 756 l 276 970 q 444 1016 366 1000 q 586 1031 523 1031 q 805 959 735 1031 q 853 759 875 888 q 830 678 845 715 l 955 678 l 942 606 l 791 606 q 768 578 781 591 q 564 469 702 512 l 474 441 l 920 441 l 907 369 l 299 369 "},"̛":{"x_min":-154.140625,"x_max":104,"ha":1,"o":"m -154 573 l -143 637 l -141 636 q -48 578 -77 578 q 0 600 -20 578 q 27 661 20 623 q 31 698 31 679 q 26 738 31 718 l 104 738 q 104 691 104 713 q 98 646 104 668 q 50 528 85 570 q -33 486 16 486 q -91 506 -63 486 q -154 573 -120 526 "},"𝜚":{"x_min":22.390625,"x_max":705.96875,"ha":734,"o":"m 285 -194 q 451 -154 372 -154 q 531 -184 505 -154 l 513 -289 l 455 -289 q 426 -237 455 -251 q 276 -261 373 -209 q 189 -293 219 -293 q 56 -229 117 -293 q 28 -63 8 -179 l 101 355 q 198 608 131 526 q 316 709 271 686 q 454 741 375 741 q 668 635 610 741 q 695 360 725 530 q 571 85 665 191 q 358 -20 478 -20 q 237 12 283 -20 q 171 112 192 44 l 140 -63 q 153 -167 129 -128 q 285 -194 196 -235 m 221 396 l 208 324 q 218 126 185 194 q 337 58 251 58 q 480 134 423 58 q 564 360 538 211 q 560 587 592 516 q 444 670 521 670 q 300 594 362 670 q 221 396 243 526 "},"╮":{"x_min":-12,"x_max":425,"ha":753,"o":"m 327 -419 l 327 167 q 299 294 327 252 q 217 337 271 337 l -12 337 l -12 454 l 217 454 q 375 363 320 454 q 425 167 425 281 l 425 -419 l 327 -419 "},"Ṕ":{"x_min":-18.984375,"x_max":841.828125,"ha":841,"o":"m 311 516 l 472 516 q 620 570 562 516 q 695 728 677 625 q 675 885 713 831 q 546 940 637 940 l 385 940 l 311 516 m -18 0 l -6 72 l 109 72 l 261 940 l 145 940 l 158 1013 l 589 1013 q 792 935 725 1013 q 836 728 858 858 q 719 520 813 597 q 489 443 625 443 l 298 443 l 233 72 l 374 72 l 362 0 l -18 0 m 632 1293 l 752 1293 l 560 1114 l 489 1114 l 632 1293 "},"̳":{"x_min":-625,"x_max":0,"ha":-1,"o":"m 0 -274 l 0 -328 l -625 -328 l -625 -274 l 0 -274 m 0 -111 l 0 -165 l -625 -165 l -625 -111 l 0 -111 "},"ꜞ":{"x_min":187.859375,"x_max":381.84375,"ha":316,"o":"m 278 980 q 299 1016 282 1001 q 339 1031 316 1031 q 371 1016 359 1031 q 381 980 384 1001 q 359 944 377 959 q 320 930 341 930 q 287 944 299 930 q 278 980 275 959 m 187 453 l 267 765 l 284 861 l 332 861 l 315 765 l 287 453 l 187 453 "},"⡫":{"x_min":174,"x_max":742,"ha":916,"o":"m 174 983 q 202 1063 174 1030 q 275 1096 231 1096 q 346 1063 316 1096 q 376 983 376 1030 q 346 903 376 936 q 275 871 316 871 q 202 903 231 871 q 174 983 174 936 m 174 599 q 202 679 174 646 q 275 712 231 712 q 346 679 316 712 q 376 599 376 646 q 346 519 376 552 q 275 487 316 487 q 202 519 231 487 q 174 599 174 552 m 540 983 q 568 1063 540 1030 q 641 1096 597 1096 q 712 1063 682 1096 q 742 983 742 1030 q 712 903 742 936 q 641 871 682 871 q 568 903 597 871 q 540 983 540 936 m 540 215 q 568 295 540 262 q 641 328 597 328 q 712 295 682 328 q 742 215 742 262 q 712 135 742 168 q 641 103 682 103 q 568 135 597 103 q 540 215 540 168 m 174 -169 q 202 -89 174 -122 q 275 -57 231 -57 q 346 -89 316 -57 q 376 -169 376 -122 q 346 -249 376 -216 q 275 -282 316 -282 q 202 -249 231 -282 q 174 -169 174 -216 "},"e":{"x_min":53,"x_max":684,"ha":740,"o":"m 183 278 q 181 228 181 252 q 202 122 181 164 q 334 47 237 47 q 440 71 405 47 q 516 169 502 113 l 599 169 q 484 22 575 82 q 294 -20 420 -20 q 100 83 168 -20 q 53 261 53 156 q 62 360 53 307 q 195 636 92 531 q 445 741 298 741 q 684 552 684 741 q 559 346 684 414 q 183 278 431 278 m 497 428 q 565 557 565 473 q 426 673 565 673 q 288 605 345 673 q 196 353 231 537 q 497 428 392 353 "},"⊏":{"x_min":132,"x_max":924.765625,"ha":1057,"o":"m 132 0 l 132 871 l 924 871 l 924 762 l 231 762 l 231 109 l 924 109 l 924 0 l 132 0 "},"𝚤":{"x_min":89.515625,"x_max":327.5625,"ha":399,"o":"m 214 72 l 320 72 l 307 0 l 89 0 l 203 649 l 95 649 l 107 722 l 327 722 l 214 72 "},"Ѓ":{"x_min":-18.984375,"x_max":864.671875,"ha":827,"o":"m 233 72 l 379 72 l 366 0 l -18 0 l -6 72 l 109 72 l 261 940 l 145 940 l 158 1013 l 864 1013 l 824 786 l 749 786 l 774 929 l 383 929 l 233 72 m 654 1289 l 775 1289 l 583 1109 l 512 1109 l 654 1289 "},"ò":{"x_min":53,"x_max":699.171875,"ha":752,"o":"m 321 47 q 471 126 411 47 q 558 360 531 206 q 571 486 571 431 q 553 594 571 551 q 430 673 520 673 q 280 594 340 673 q 193 360 220 515 q 181 235 181 290 q 198 126 181 170 q 321 47 231 47 m 309 -20 q 100 83 168 -20 q 53 261 53 156 q 62 360 53 307 q 196 637 92 533 q 442 741 300 741 q 652 637 584 741 q 699 460 699 565 q 689 360 699 413 q 555 84 659 188 q 309 -20 451 -20 m 408 1110 l 521 855 l 450 855 l 287 1110 l 408 1110 "},"⥘":{"x_min":268.515625,"x_max":763,"ha":1046,"o":"m 573 896 l 573 0 l 474 0 l 474 779 l 268 649 l 268 656 l 482 896 l 283 896 l 283 1006 l 763 1006 l 763 896 l 573 896 "},"ℎ":{"x_min":60.6875,"x_max":690.375,"ha":805,"o":"m 60 0 l 232 984 l 125 984 l 138 1056 l 357 1056 l 276 593 q 376 703 320 666 q 498 741 432 741 q 644 672 606 741 q 668 562 668 631 q 657 458 668 516 l 590 72 l 690 72 l 678 0 l 465 0 l 538 419 q 551 536 551 489 q 541 600 551 577 q 446 649 520 649 q 316 585 367 649 q 243 401 264 522 l 172 0 l 60 0 "},"к":{"x_min":88.078125,"x_max":746.59375,"ha":746,"o":"m 88 0 l 201 648 l 94 648 l 107 721 l 326 721 l 269 397 q 304 429 271 397 q 350 475 338 461 l 503 648 q 633 741 583 741 q 746 716 683 741 l 725 602 l 653 602 q 609 655 653 655 q 543 606 585 655 l 393 435 q 344 384 376 415 l 370 375 q 473 337 440 354 q 537 235 527 301 l 556 111 q 603 63 563 63 q 671 160 642 63 l 724 148 q 640 -2 705 36 q 580 -20 611 -20 q 467 26 501 -20 q 439 122 448 56 l 426 213 q 356 312 415 291 l 289 331 l 253 303 l 199 0 l 88 0 "},"𝐻":{"x_min":-18.984375,"x_max":1110.15625,"ha":1090,"o":"m -18 0 l -6 72 l 109 72 l 261 940 l 145 940 l 158 1013 l 514 1013 l 501 940 l 385 940 l 324 590 l 796 590 l 857 940 l 741 940 l 754 1013 l 1110 1013 l 1097 940 l 981 940 l 830 72 l 946 72 l 933 0 l 577 0 l 590 72 l 705 72 l 781 507 l 309 507 l 233 72 l 349 72 l 337 0 l -18 0 "},"￼":{"x_min":0,"x_max":0,"ha":0},"⠆":{"x_min":174,"x_max":376,"ha":916,"o":"m 174 599 q 202 679 174 646 q 275 712 231 712 q 346 679 316 712 q 376 599 376 646 q 346 519 376 552 q 275 487 316 487 q 202 519 231 487 q 174 599 174 552 m 174 215 q 202 295 174 262 q 275 328 231 328 q 346 295 316 328 q 376 215 376 262 q 346 135 376 168 q 275 103 316 103 q 202 135 231 103 q 174 215 174 168 "},"┲":{"x_min":-12.25,"x_max":764.609375,"ha":752,"o":"m 278 -419 l 278 336 l -12 336 l -12 453 l 278 453 l 278 511 l 764 511 l 764 278 l 473 278 l 473 -419 l 278 -419 "},"⁻":{"x_min":83,"x_max":576,"ha":659,"o":"m 83 728 l 576 728 l 576 666 l 83 666 l 83 728 "},"ṉ":{"x_min":86.6875,"x_max":717.375,"ha":805,"o":"m 86 0 l 200 648 l 92 648 l 105 721 l 325 721 l 303 592 q 403 703 347 666 q 525 741 459 741 q 671 672 632 741 q 695 561 695 630 q 684 458 695 515 l 617 72 l 717 72 l 704 0 l 491 0 l 564 418 q 577 535 577 488 q 567 600 577 576 q 472 650 546 650 q 342 586 394 650 q 269 401 290 522 l 199 0 l 86 0 m 144 -105 l 509 -105 l 492 -205 l 127 -205 l 144 -105 "},"ᵒ":{"x_min":39,"x_max":446,"ha":481,"o":"m 131 523 q 208 479 150 479 q 302 523 265 479 q 357 654 340 567 q 365 724 365 694 q 354 785 365 761 q 276 830 333 830 q 182 785 220 830 q 127 654 144 741 q 119 584 119 615 q 131 523 119 547 m 356 500 q 200 442 290 442 q 68 500 111 442 q 39 599 39 540 q 45 654 39 624 q 128 809 63 751 q 284 868 194 868 q 416 809 374 868 q 446 710 446 769 q 439 654 446 684 q 356 500 421 558 "},"ˆ":{"x_min":212.265625,"x_max":601.53125,"ha":625,"o":"m 400 1111 l 503 1111 l 601 856 l 531 856 l 438 1032 l 283 856 l 212 856 l 400 1111 "},"ū":{"x_min":85.265625,"x_max":717.3125,"ha":805,"o":"m 314 1035 l 680 1035 l 662 935 l 297 935 l 314 1035 m 604 721 l 717 721 l 603 72 l 709 72 l 696 0 l 478 0 l 500 127 q 400 17 456 55 q 279 -20 345 -20 q 132 48 172 -20 q 109 159 109 89 q 119 262 109 204 l 186 648 l 85 648 l 98 721 l 312 721 l 239 301 q 227 185 227 231 q 236 120 227 143 q 331 72 256 72 q 461 135 409 72 q 534 320 513 199 l 604 721 "},"𝑣":{"x_min":46.796875,"x_max":693.09375,"ha":706,"o":"m 328 0 l 246 0 l 120 649 l 46 649 l 59 722 l 227 722 l 337 152 q 454 306 406 220 q 586 649 552 486 l 512 649 l 524 722 l 693 722 q 541 285 625 442 q 328 0 468 149 "},"ꙗ":{"x_min":87.53125,"x_max":1010.921875,"ha":1094,"o":"m 509 203 q 634 58 509 58 q 764 126 711 58 q 839 324 816 194 l 897 652 q 847 672 897 672 q 638 569 729 672 q 515 281 548 467 q 509 203 509 237 m 802 112 q 590 -20 721 -20 q 428 60 482 -20 q 390 199 390 118 q 396 272 390 233 q 405 314 400 293 l 254 314 l 199 0 l 87 0 l 200 650 l 92 650 l 105 721 l 325 721 l 268 395 l 427 395 q 588 635 479 546 q 870 741 716 741 q 1010 721 974 741 l 897 72 l 993 72 l 980 0 l 782 0 l 802 112 "},"◸":{"x_min":3,"x_max":957.328125,"ha":961,"o":"m 73 22 l 783 816 l 73 816 l 73 22 m 3 -170 l 3 893 l 957 893 l 3 -170 "},"℧":{"x_min":64.234375,"x_max":1053.203125,"ha":1036,"o":"m 427 920 l 223 920 l 206 827 l 134 827 l 170 1031 l 532 1031 l 510 907 q 317 754 392 860 q 214 492 242 649 q 245 187 181 302 q 444 73 309 73 q 683 187 579 73 q 820 492 787 302 q 810 755 848 650 q 672 907 772 860 l 693 1031 l 1053 1031 l 1017 827 l 946 827 l 962 920 l 758 920 q 929 741 876 860 q 957 476 983 622 q 889 285 939 374 q 759 126 838 196 q 604 32 688 65 q 431 0 520 0 q 271 32 343 0 q 149 126 199 64 q 74 285 94 196 q 72 476 54 375 q 193 741 98 621 q 427 920 289 860 "},"Ν":{"x_min":-25.09375,"x_max":1129.828125,"ha":1093,"o":"m -25 0 l -12 72 l 109 72 l 261 940 l 139 940 l 151 1013 l 385 1013 l 792 213 l 919 940 l 797 940 l 809 1013 l 1129 1013 l 1116 940 l 994 940 l 826 -19 l 752 -19 l 318 833 l 185 72 l 307 72 l 295 0 l -25 0 "},"⟱":{"x_min":85.078125,"x_max":960.921875,"ha":1046,"o":"m 960 262 l 960 254 l 526 -28 l 520 -28 l 85 254 l 85 262 l 199 218 l 199 1005 l 298 1005 l 298 180 l 382 148 l 382 1005 l 481 1005 l 481 110 l 523 94 l 565 110 l 565 1005 l 664 1005 l 664 148 l 748 180 l 748 1005 l 847 1005 l 847 218 l 960 262 "},"ȝ":{"x_min":-46.109375,"x_max":622.78125,"ha":652,"o":"m 260 639 q 154 480 189 594 l 88 480 l 121 664 q 263 714 181 692 q 428 736 345 736 q 573 679 512 736 q 619 538 634 623 q 553 393 604 452 q 427 292 501 334 q 537 222 501 281 q 564 108 573 163 q 452 -85 543 -11 q 209 -215 362 -159 q -46 -294 57 -271 l -33 -226 q 175 -150 66 -197 q 362 -33 284 -103 q 435 90 423 20 q 416 198 447 159 q 263 216 368 258 l 128 161 l 139 229 l 276 287 q 417 390 352 320 q 487 525 475 454 q 462 633 499 596 q 372 670 425 670 q 260 639 308 670 "},"œ":{"x_min":53,"x_max":1180,"ha":1236,"o":"m 321 47 q 471 126 411 47 q 558 360 531 206 q 553 594 585 515 q 430 673 520 673 q 280 594 340 673 q 193 360 220 515 q 199 126 166 206 q 321 47 231 47 m 992 424 q 1061 555 1061 469 q 922 673 1061 673 q 783 605 840 673 q 691 353 727 537 q 992 424 887 353 m 679 278 q 677 228 677 252 q 697 122 677 164 q 830 47 733 47 q 936 71 901 47 q 1012 169 998 113 l 1095 169 q 979 22 1071 82 q 790 -20 916 -20 q 596 83 664 -20 q 580 111 588 97 q 555 83 569 97 q 309 -20 451 -20 q 100 83 168 -20 q 53 261 53 156 q 62 360 53 307 q 196 637 92 533 q 442 741 300 741 q 652 637 584 741 q 667 609 660 624 q 691 636 679 623 q 941 741 794 741 q 1180 552 1180 741 q 1054 346 1180 414 q 679 278 927 278 "},"Ὲ":{"x_min":124.78125,"x_max":1118.296875,"ha":1139,"o":"m 245 1110 l 358 855 l 287 855 l 124 1110 l 245 1110 m 207 0 l 220 72 l 336 72 l 488 940 l 372 940 l 384 1013 l 1118 1013 l 1078 787 l 1003 787 l 1028 929 l 609 929 l 550 590 l 849 590 l 871 716 l 946 716 l 887 380 l 812 380 l 834 507 l 536 507 l 461 83 l 890 83 l 915 225 l 990 225 l 950 0 l 207 0 "},"⇦":{"x_min":46.265625,"x_max":976,"ha":1047,"o":"m 915 561 l 277 561 l 277 607 l 133 449 l 277 290 l 277 337 l 915 337 l 915 561 m 976 629 l 976 269 l 339 269 l 339 165 l 301 165 l 46 445 l 46 452 l 301 732 l 339 732 l 339 629 l 976 629 "},"Ɵ":{"x_min":58.0625,"x_max":967.265625,"ha":1025,"o":"m 421 -20 q 256 13 328 -20 q 136 113 184 47 q 65 286 81 189 q 70 505 48 382 q 141 724 91 627 q 273 897 191 821 q 427 997 345 963 q 604 1031 510 1031 q 899 886 802 1031 q 954 505 996 741 q 882 286 933 383 q 751 113 832 189 q 596 13 679 47 q 421 -20 514 -20 m 433 53 q 679 166 583 53 q 808 470 767 272 l 204 470 q 227 166 174 272 q 433 53 283 53 m 821 553 q 797 843 847 742 q 592 958 741 958 q 345 843 441 958 q 219 553 259 742 l 821 553 "},"ᵛ":{"x_min":-2.03125,"x_max":405.546875,"ha":465,"o":"m 123 453 l 44 816 l -2 816 l 6 857 l 111 857 l 181 538 l 351 816 l 358 857 l 405 857 l 397 816 l 175 453 l 123 453 "},"𝛢":{"x_min":-94.9375,"x_max":839.578125,"ha":903,"o":"m 226 367 l 560 367 l 478 848 l 226 367 m -94 0 l -82 72 l -2 72 l 486 1013 l 589 1013 l 750 72 l 839 72 l 827 0 l 495 0 l 507 72 l 609 72 l 572 294 l 188 294 l 73 72 l 173 72 l 161 0 l -94 0 "},"ș":{"x_min":14.578125,"x_max":599.125,"ha":641,"o":"m 43 208 l 108 208 q 106 170 106 188 q 256 47 106 47 q 430 170 408 47 q 432 204 432 182 q 411 251 432 225 q 303 309 390 276 l 227 340 q 123 408 148 370 q 98 491 98 446 q 100 529 98 508 q 193 684 118 628 q 377 741 268 741 q 599 682 485 741 l 571 525 l 507 525 q 510 554 510 540 q 479 638 510 603 q 376 673 448 673 q 213 562 233 673 q 211 530 211 550 q 230 485 211 509 q 328 433 250 461 l 412 402 q 530 322 498 370 q 553 255 553 288 q 450 39 553 113 q 246 -20 369 -20 q 14 39 123 -20 l 43 208 m 190 -279 q 258 -213 237 -251 q 280 -120 280 -175 l 280 -106 l 374 -106 q 336 -225 374 -175 q 229 -312 300 -275 l 190 -279 "},"◺":{"x_min":3,"x_max":957.328125,"ha":961,"o":"m 73 -94 l 783 -94 l 73 699 l 73 -94 m 3 -171 l 3 892 l 957 -171 l 3 -171 "},"ἱ":{"x_min":96.3125,"x_max":377.078125,"ha":490,"o":"m 300 1153 q 345 1136 327 1153 q 365 1062 373 1109 q 330 998 358 1024 q 274 971 306 974 q 311 863 274 915 l 263 843 q 259 847 261 844 q 201 1051 176 941 l 203 1062 q 227 1115 208 1091 q 300 1153 258 1153 m 124 197 l 203 649 l 96 649 l 109 722 l 328 722 l 236 197 q 261 79 220 102 q 377 112 292 62 l 362 30 q 152 34 224 -48 q 124 197 105 88 "},"Ѵ":{"x_min":89.15625,"x_max":1142.34375,"ha":1074,"o":"m 89 941 l 101 1014 l 433 1014 l 421 941 l 320 941 l 453 163 l 857 941 q 1004 1032 904 1032 q 1069 1022 1041 1032 q 1142 987 1097 1012 l 1115 839 l 1058 839 q 1063 891 1063 864 q 1045 940 1063 918 q 996 963 1028 963 q 925 924 946 963 l 443 0 l 339 0 l 180 941 l 89 941 "},"Ȫ":{"x_min":57.390625,"x_max":966.578125,"ha":1025,"o":"m 542 1496 l 908 1496 l 890 1396 l 525 1396 l 542 1496 m 432 53 q 678 167 582 53 q 813 505 775 281 q 796 843 853 729 q 591 958 740 958 q 344 843 440 958 q 209 505 248 729 q 226 167 170 281 q 432 53 282 53 m 420 -20 q 255 13 327 -20 q 135 113 183 47 q 64 286 80 189 q 69 505 48 382 q 141 724 90 627 q 272 897 191 821 q 427 997 344 963 q 603 1031 509 1031 q 898 886 802 1031 q 954 505 995 741 q 882 286 933 383 q 750 113 832 188 q 596 13 678 47 q 420 -20 513 -20 m 551 1278 q 597 1254 580 1278 q 609 1199 614 1230 q 578 1143 602 1165 q 523 1120 554 1120 q 476 1143 493 1120 q 466 1199 460 1165 q 497 1254 472 1230 q 551 1278 522 1278 m 789 1278 q 834 1254 817 1278 q 846 1199 851 1230 q 815 1143 840 1165 q 761 1120 791 1120 q 714 1143 731 1120 q 703 1199 697 1165 q 734 1254 709 1230 q 789 1278 760 1278 "},"𝑑":{"x_min":24,"x_max":749.375,"ha":799,"o":"m 749 1056 l 564 0 l 452 0 l 472 112 q 370 12 427 44 q 239 -20 314 -20 q 61 85 119 -20 q 24 252 24 155 q 34 360 24 303 q 157 635 63 530 q 372 741 251 741 q 492 708 446 741 q 558 608 537 676 l 624 984 l 518 984 l 531 1056 l 749 1056 m 509 324 l 521 396 q 531 491 531 449 q 511 594 531 553 q 393 663 478 663 q 249 586 306 663 q 166 360 191 510 q 154 239 154 292 q 170 134 154 176 q 288 58 201 58 q 430 126 373 58 q 509 324 487 194 "},"ˈ":{"x_min":88.84375,"x_max":263.8125,"ha":353,"o":"m 88 713 l 149 1055 l 263 1055 l 204 713 l 88 713 "},"ɘ":{"x_min":51,"x_max":686.859375,"ha":739,"o":"m 59 347 q 193 640 96 539 q 436 741 289 741 q 640 636 574 741 q 677 360 707 531 q 542 83 647 188 q 296 -20 438 -20 q 116 39 178 -20 q 51 218 51 99 l 141 218 q 180 90 141 133 q 295 47 220 47 q 454 121 391 47 q 543 341 517 195 l 543 347 l 59 347 m 204 419 l 556 419 q 535 609 568 544 q 424 673 501 673 q 286 609 341 673 q 204 419 230 545 "},"₈":{"x_min":14.703125,"x_max":483.328125,"ha":500,"o":"m 302 60 q 355 153 342 93 q 342 245 368 212 q 257 279 316 279 q 158 245 198 279 q 105 153 118 212 q 118 60 92 93 q 203 27 143 27 q 302 60 262 27 m 351 354 q 396 433 385 382 q 384 512 406 484 q 311 541 362 541 q 226 512 260 541 q 180 433 191 484 q 192 354 169 382 q 265 326 214 326 q 351 354 316 326 m 324 297 q 423 250 391 289 q 442 153 454 212 q 361 32 425 75 q 195 -10 297 -10 q 48 32 94 -10 q 18 153 2 75 q 78 250 31 212 q 198 297 126 289 q 112 350 147 307 q 96 433 86 382 q 170 539 111 500 q 319 578 229 578 q 451 539 408 578 q 479 433 494 500 q 428 350 467 374 q 324 297 373 316 "},"ạ":{"x_min":41,"x_max":661.265625,"ha":745,"o":"m 453 112 q 241 -20 371 -20 q 79 60 133 -20 q 41 199 41 117 q 47 272 41 233 q 239 635 89 512 q 521 741 367 741 q 661 721 625 741 l 547 72 l 644 72 l 631 0 l 434 0 l 453 112 m 160 203 q 286 58 160 58 q 415 126 362 58 q 490 324 467 194 l 548 652 l 548 652 q 498 672 548 672 q 290 570 381 672 q 167 281 200 467 q 160 203 160 238 m 197 -130 q 252 -107 223 -107 q 299 -130 282 -107 q 309 -186 315 -153 q 280 -243 303 -221 q 224 -266 255 -266 q 177 -243 193 -266 q 166 -186 161 -221 q 197 -130 172 -153 "},"⇖":{"x_min":185,"x_max":954.046875,"ha":1047,"o":"m 190 418 l 185 423 l 185 821 l 188 825 l 546 825 l 551 819 l 442 784 l 954 216 l 884 138 l 334 749 l 271 728 l 253 658 l 802 48 l 732 -29 l 222 538 l 190 418 "},"д":{"x_min":53,"x_max":741,"ha":793,"o":"m 181 235 q 321 47 181 47 q 471 126 410 47 q 559 308 511 177 q 607 488 607 439 q 573 598 607 538 q 516 647 561 620 q 431 673 472 673 q 280 594 340 673 q 193 360 220 515 q 181 235 181 290 m 53 261 q 62 360 53 307 q 196 637 92 533 q 438 741 300 741 q 643 600 575 741 q 655 723 655 666 q 625 879 655 814 q 454 985 576 985 q 313 929 376 985 l 276 982 q 449 1056 350 1056 q 702 899 619 1056 q 741 700 741 827 q 674 290 741 500 q 555 83 632 161 q 310 -20 452 -20 q 100 83 168 -20 q 53 261 53 156 "},"ӥ":{"x_min":85.265625,"x_max":717.3125,"ha":805,"o":"m 604 721 l 717 721 l 603 72 l 709 72 l 696 0 l 478 0 l 500 127 q 400 17 456 55 q 279 -20 345 -20 q 132 48 172 -20 q 109 159 109 89 q 119 262 109 204 l 186 648 l 85 648 l 98 721 l 312 721 l 239 301 q 227 185 227 231 q 236 120 227 143 q 331 72 256 72 q 461 135 409 72 q 534 320 513 199 l 604 721 m 376 1064 q 422 1040 405 1064 q 433 984 438 1017 q 403 927 427 949 q 347 905 378 905 q 301 927 317 905 q 291 984 284 949 q 321 1040 296 1017 q 376 1064 347 1064 m 614 1064 q 659 1040 642 1064 q 670 984 675 1017 q 640 927 664 949 q 585 905 616 905 q 538 927 554 905 q 528 984 522 949 q 559 1040 534 1017 q 614 1064 584 1064 "},"ʛ":{"x_min":24.8125,"x_max":979.25,"ha":817,"o":"m 617 492 l 552 492 q 520 630 552 598 q 404 674 477 674 q 255 591 325 674 q 158 347 187 511 q 172 104 130 187 q 353 37 208 37 q 438 57 391 37 q 481 77 472 72 l 514 272 l 393 272 l 402 324 l 609 324 l 562 51 q 429 -5 498 13 q 286 -25 360 -25 q 72 79 141 -25 q 33 355 4 182 q 170 631 64 528 q 422 735 275 735 q 532 720 477 735 l 543 717 l 560 818 q 650 992 579 929 q 825 1056 720 1056 q 907 1045 869 1056 q 979 1011 945 1033 l 952 863 l 895 863 q 881 958 901 927 q 811 988 861 988 q 721 947 755 988 q 672 817 688 907 l 648 677 l 649 676 l 617 492 "},"┆":{"x_min":327,"x_max":425,"ha":753,"o":"m 327 -419 l 327 110 l 425 110 l 425 -419 l 327 -419 m 327 233 l 327 701 l 425 701 l 425 233 l 327 233 m 327 823 l 327 1352 l 425 1352 l 425 823 l 327 823 "},"𝜎":{"x_min":54.78125,"x_max":881.625,"ha":853,"o":"m 322 47 q 473 126 413 47 q 560 360 533 206 q 554 587 584 501 q 430 661 526 661 q 280 587 337 661 q 195 360 221 508 q 200 126 168 206 q 322 47 233 47 m 442 721 q 881 721 691 721 l 868 648 l 645 648 q 691 360 723 544 q 557 84 661 188 q 311 -20 453 -20 q 101 84 169 -20 q 64 360 33 188 q 198 636 94 533 q 442 721 282 721 "},"Ḙ":{"x_min":-18.984375,"x_max":891.796875,"ha":912,"o":"m -18 0 l -6 72 l 109 72 l 261 940 l 145 940 l 158 1013 l 891 1013 l 852 787 l 777 787 l 802 929 l 383 929 l 324 590 l 622 590 l 644 716 l 720 716 l 661 380 l 585 380 l 608 507 l 309 507 l 235 83 l 663 83 l 689 225 l 763 225 l 724 0 l -18 0 m 303 -79 l 406 -79 l 504 -334 l 434 -334 l 341 -157 l 186 -334 l 115 -334 l 303 -79 "},"⠴":{"x_min":174,"x_max":742,"ha":916,"o":"m 174 215 q 202 295 174 262 q 275 328 231 328 q 346 295 316 328 q 376 215 376 262 q 346 135 376 168 q 275 103 316 103 q 202 135 231 103 q 174 215 174 168 m 540 599 q 568 679 540 646 q 641 712 597 712 q 712 679 682 712 q 742 599 742 646 q 712 519 742 552 q 641 487 682 487 q 568 519 597 487 q 540 599 540 552 m 540 215 q 568 295 540 262 q 641 328 597 328 q 712 295 682 328 q 742 215 742 262 q 712 135 742 168 q 641 103 682 103 q 568 135 597 103 q 540 215 540 168 "},"ʐ":{"x_min":14.234375,"x_max":828.71875,"ha":746,"o":"m 14 0 l 24 58 l 533 648 l 212 648 l 190 523 l 125 523 l 160 721 l 691 721 l 680 662 l 170 72 l 589 72 l 564 -70 q 567 -199 548 -159 q 642 -241 587 -241 q 723 -211 692 -241 q 771 -116 754 -180 l 828 -116 l 802 -264 q 718 -297 760 -286 q 633 -309 677 -309 q 480 -245 530 -309 q 451 -70 432 -183 l 463 0 l 14 0 "},"ὂ":{"x_min":53,"x_max":699.171875,"ha":752,"o":"m 532 1110 l 645 855 l 574 855 l 411 1110 l 532 1110 m 311 1152 q 371 1114 353 1152 q 376 1061 381 1091 l 375 1050 q 245 846 360 940 q 240 842 242 844 l 198 863 q 272 971 256 914 q 226 997 242 973 q 214 1061 207 1023 q 260 1135 222 1108 q 311 1152 284 1152 m 321 47 q 471 126 411 47 q 558 360 531 206 q 571 486 571 431 q 553 594 571 551 q 430 673 520 673 q 280 594 340 673 q 193 360 220 515 q 181 235 181 290 q 198 126 181 170 q 321 47 231 47 m 309 -20 q 100 83 168 -20 q 53 261 53 156 q 62 360 53 307 q 196 637 92 533 q 442 741 300 741 q 652 637 584 741 q 699 460 699 565 q 689 360 699 413 q 555 84 659 188 q 309 -20 451 -20 "},"↟":{"x_min":268.515625,"x_max":779,"ha":1048,"o":"m 573 0 l 474 0 l 474 704 l 268 573 l 268 580 l 474 811 l 474 873 l 269 742 l 269 750 l 520 1033 l 526 1033 l 779 750 l 779 742 l 573 873 l 573 811 l 779 580 l 779 573 l 573 704 l 573 0 "},"î":{"x_min":89.515625,"x_max":488.953125,"ha":399,"o":"m 214 72 l 320 72 l 307 0 l 89 0 l 203 649 l 95 649 l 107 722 l 327 722 l 214 72 m 288 1111 l 390 1111 l 488 856 l 418 856 l 325 1032 l 170 856 l 99 856 l 288 1111 "},"ύ":{"x_min":95.625,"x_max":710.421875,"ha":760,"o":"m 533 1111 l 654 1111 l 402 856 l 330 856 l 533 1111 m 513 721 l 581 721 q 698 588 675 667 q 695 345 723 500 q 645 205 682 270 q 550 88 607 137 q 436 20 497 43 q 309 -3 375 -3 q 157 62 210 -3 q 130 237 110 119 l 203 648 l 95 648 l 108 721 l 328 721 l 244 237 q 246 108 228 148 q 322 66 265 66 q 482 155 398 66 q 573 356 550 227 q 589 579 604 539 q 506 680 560 648 l 513 721 "},"ϰ":{"x_min":-1.9375,"x_max":778.921875,"ha":779,"o":"m 493 485 q 571 597 517 535 q 777 716 752 807 q 764 656 783 692 q 641 516 727 587 l 576 455 q 472 171 481 276 q 494 89 467 115 q 526 68 516 68 q 583 87 562 68 q 616 154 604 107 l 673 154 l 649 16 q 586 0 617 5 q 526 -5 554 -5 q 451 26 489 -5 q 404 141 413 58 q 430 354 394 226 q 389 328 415 340 q 286 263 322 295 q 204 139 236 175 q -1 20 23 -70 q 11 80 -4 32 q 139 234 37 158 l 204 291 q 303 565 295 468 q 281 647 308 621 q 249 669 259 669 q 192 649 212 669 q 159 583 171 629 l 102 583 l 126 720 q 189 736 158 731 q 249 742 221 742 q 324 710 286 742 q 371 595 364 677 q 344 392 379 513 q 381 416 367 409 q 493 485 428 440 "},"ɓ":{"x_min":53.578125,"x_max":720.25,"ha":800,"o":"m 271 608 q 374 708 316 675 q 505 741 429 741 q 682 635 625 741 q 710 360 739 530 q 585 85 680 191 q 372 -20 491 -20 q 252 12 297 -20 q 185 112 206 44 l 166 0 l 53 0 l 168 659 l 196 817 q 286 991 216 928 q 461 1055 356 1055 q 543 1044 508 1055 q 615 1010 581 1032 l 589 862 l 531 862 q 517 957 538 927 q 447 988 497 988 q 358 946 391 988 q 309 817 324 906 l 271 608 m 222 324 q 233 125 199 194 q 351 58 265 58 q 494 134 436 58 q 578 360 552 211 q 573 586 604 510 q 456 663 543 663 q 314 594 370 663 q 234 396 257 525 l 222 324 "},"ǫ":{"x_min":53,"x_max":699.171875,"ha":752,"o":"m 321 47 q 471 126 411 47 q 558 360 531 205 q 571 485 571 431 q 553 593 571 550 q 430 673 520 673 q 280 594 340 673 q 193 360 220 515 q 181 235 181 290 q 198 126 181 170 q 321 47 231 47 m 309 -20 q 100 83 168 -20 q 53 260 53 156 q 62 360 53 307 q 196 636 92 532 q 442 740 300 740 q 652 636 584 740 q 699 460 699 564 q 689 360 699 413 q 555 84 659 188 q 309 -20 451 -20 m 284 -11 l 342 -11 l 341 -12 q 268 -127 274 -95 q 280 -178 263 -159 q 331 -197 297 -197 q 366 -192 347 -197 q 404 -179 384 -188 l 388 -265 q 344 -274 365 -271 q 304 -278 324 -278 q 202 -247 235 -278 q 179 -162 170 -217 q 210 -93 185 -129 q 284 -11 234 -57 "},"𝛴":{"x_min":-37.296875,"x_max":889.078125,"ha":884,"o":"m 594 552 l 183 128 l 659 128 l 676 225 l 750 225 l 711 0 l -37 0 l 457 507 l 139 1013 l 889 1013 l 849 788 l 774 788 l 798 930 l 375 930 l 594 552 "},"⢧":{"x_min":174,"x_max":742,"ha":916,"o":"m 174 983 q 202 1063 174 1030 q 275 1096 231 1096 q 346 1063 316 1096 q 376 983 376 1030 q 346 903 376 936 q 275 871 316 871 q 202 903 231 871 q 174 983 174 936 m 174 599 q 202 679 174 646 q 275 712 231 712 q 346 679 316 712 q 376 599 376 646 q 346 519 376 552 q 275 487 316 487 q 202 519 231 487 q 174 599 174 552 m 174 215 q 202 295 174 262 q 275 328 231 328 q 346 295 316 328 q 376 215 376 262 q 346 135 376 168 q 275 103 316 103 q 202 135 231 103 q 174 215 174 168 m 540 215 q 568 295 540 262 q 641 328 597 328 q 712 295 682 328 q 742 215 742 262 q 712 135 742 168 q 641 103 682 103 q 568 135 597 103 q 540 215 540 168 m 540 -169 q 568 -89 540 -122 q 641 -57 597 -57 q 712 -89 682 -57 q 742 -169 742 -122 q 712 -249 742 -216 q 641 -282 682 -282 q 568 -249 597 -282 q 540 -169 540 -216 "},"⠗":{"x_min":174,"x_max":742,"ha":916,"o":"m 174 984 q 202 1064 174 1031 q 275 1097 231 1097 q 346 1064 316 1097 q 376 984 376 1031 q 346 904 376 937 q 275 872 316 872 q 202 904 231 872 q 174 984 174 937 m 174 599 q 202 679 174 646 q 275 712 231 712 q 346 679 316 712 q 376 599 376 646 q 346 519 376 552 q 275 487 316 487 q 202 519 231 487 q 174 599 174 552 m 174 215 q 202 295 174 262 q 275 328 231 328 q 346 295 316 328 q 376 215 376 262 q 346 135 376 168 q 275 103 316 103 q 202 135 231 103 q 174 215 174 168 m 540 599 q 568 679 540 646 q 641 712 597 712 q 712 679 682 712 q 742 599 742 646 q 712 519 742 552 q 641 487 682 487 q 568 519 597 487 q 540 599 540 552 "},"":{"x_min":35,"x_max":910,"ha":1010,"o":"m 681 1040 q 686 1081 686 1070 q 674 1101 686 1095 q 636 1108 663 1108 q 605 1104 618 1108 q 583 1091 592 1100 q 568 1068 574 1083 q 557 1032 561 1054 q 552 1008 553 1018 q 551 992 551 997 q 560 967 551 976 q 592 946 570 959 q 628 965 613 956 q 654 986 644 975 q 670 1011 663 997 q 681 1041 676 1024 l 681 1040 m 503 472 q 436 490 464 476 q 390 526 408 505 q 364 574 372 547 q 356 631 356 601 q 366 704 356 666 q 397 777 377 742 q 446 843 417 812 q 511 897 475 875 q 458 939 477 915 q 439 1003 439 963 q 440 1022 439 1014 q 443 1039 441 1031 q 474 1117 454 1086 q 522 1167 495 1149 q 582 1194 550 1186 q 649 1202 615 1202 q 708 1196 681 1202 q 754 1176 734 1190 q 784 1140 774 1162 q 795 1084 795 1117 q 795 1057 795 1070 q 791 1031 795 1044 q 775 987 785 1005 q 751 954 766 969 q 718 929 736 940 q 676 907 699 918 q 852 791 795 867 q 910 603 910 715 q 905 540 910 573 q 894 476 901 507 q 853 356 880 415 q 791 244 827 297 q 711 146 756 191 q 616 69 667 101 q 508 18 565 36 q 390 0 451 0 q 228 26 295 0 q 118 100 161 52 q 55 212 75 147 q 35 353 35 276 q 40 429 35 388 q 53 507 45 470 q 91 637 70 578 q 141 748 112 697 q 205 846 169 800 q 288 937 241 892 q 245 932 265 932 q 204 940 223 932 q 169 965 185 948 l 203 1116 q 257 1052 225 1074 q 324 1030 289 1030 q 350 1033 337 1030 q 376 1041 364 1036 l 417 1041 l 403 960 q 367 925 385 951 q 332 863 350 899 q 299 783 315 826 q 270 696 283 739 q 246 614 257 653 q 229 545 236 575 q 208 429 216 483 q 201 332 201 375 q 252 164 201 217 q 404 111 304 111 q 522 138 470 111 q 614 218 574 165 q 684 350 654 271 q 740 531 715 429 l 740 531 q 748 607 748 570 q 738 681 748 644 q 708 753 729 719 q 657 813 688 786 q 582 858 625 841 q 529 819 553 840 q 489 774 505 797 q 464 729 473 752 q 455 687 455 707 q 473 641 455 663 q 532 606 492 619 l 503 472 "},"⥼":{"x_min":211,"x_max":852,"ha":1047,"o":"m 425 29 q 273 98 336 29 q 211 266 211 168 q 274 434 211 364 q 288 449 280 442 q 274 463 280 455 q 211 631 211 533 q 273 799 211 729 q 425 869 336 869 l 425 759 q 343 721 377 759 q 310 631 310 684 q 343 541 310 578 q 425 504 377 504 l 852 504 l 852 394 l 425 394 q 343 356 377 394 q 310 266 310 319 q 343 176 310 213 q 425 139 377 139 l 425 29 "},"‸":{"x_min":6.78125,"x_max":417.078125,"ha":423,"o":"m 417 -328 l 326 -328 l 212 -159 l 97 -328 l 6 -328 l 212 -41 l 417 -328 "},"↨":{"x_min":268.515625,"x_max":778.484375,"ha":1047,"o":"m 763 0 l 283 0 l 283 110 l 482 110 l 268 349 l 268 357 l 474 226 l 474 874 l 268 743 l 268 750 l 520 1033 l 526 1033 l 778 750 l 778 743 l 573 874 l 573 226 l 778 357 l 778 349 l 565 110 l 763 110 l 763 0 "},"Ξ":{"x_min":-18.984375,"x_max":891.796875,"ha":879,"o":"m 661 128 l 678 225 l 754 225 l 714 0 l -18 0 l 20 225 l 95 225 l 78 128 l 661 128 m 794 885 l 210 885 l 193 787 l 118 787 l 158 1013 l 891 1013 l 852 787 l 777 787 l 794 885 m 292 507 l 271 380 l 195 380 l 254 716 l 329 716 l 307 590 l 594 590 l 616 716 l 691 716 l 632 380 l 558 380 l 579 507 l 292 507 "},"⥏":{"x_min":474,"x_max":778.484375,"ha":1047,"o":"m 481 -32 l 474 -32 l 474 1037 l 481 1037 l 778 702 l 778 695 l 573 826 l 573 178 l 778 309 l 778 302 l 481 -32 "},"⡉":{"x_min":174,"x_max":742,"ha":916,"o":"m 174 983 q 202 1063 174 1030 q 275 1096 231 1096 q 346 1063 316 1096 q 376 983 376 1030 q 346 903 376 936 q 275 871 316 871 q 202 903 231 871 q 174 983 174 936 m 540 983 q 568 1063 540 1030 q 641 1096 597 1096 q 712 1063 682 1096 q 742 983 742 1030 q 712 903 742 936 q 641 871 682 871 q 568 903 597 871 q 540 983 540 936 m 174 -169 q 202 -89 174 -122 q 275 -57 231 -57 q 346 -89 316 -57 q 376 -169 376 -122 q 346 -249 376 -216 q 275 -282 316 -282 q 202 -249 231 -282 q 174 -169 174 -216 "},"ŵ":{"x_min":70.53125,"x_max":1044.375,"ha":1069,"o":"m 619 1111 l 721 1111 l 819 856 l 749 856 l 656 1032 l 501 856 l 430 856 l 619 1111 m 730 158 q 830 291 811 255 q 963 648 897 427 l 868 648 l 881 721 l 1044 721 l 1031 648 l 1030 648 q 909 274 969 396 q 726 0 821 101 l 632 0 l 566 539 l 311 0 l 221 0 l 143 648 l 70 648 l 83 721 l 250 721 l 318 158 l 584 721 l 663 721 l 730 158 "},"𝑄":{"x_min":75,"x_max":985,"ha":1024,"o":"m 452 -20 q 144 123 243 -20 q 75 371 75 222 q 87 505 75 433 q 159 724 108 627 q 291 897 209 821 q 445 997 362 963 q 622 1031 527 1031 q 917 886 820 1031 q 985 638 985 785 q 972 505 985 576 q 821 167 937 304 q 538 -8 706 31 q 606 -75 563 -53 q 717 -97 650 -97 l 869 -97 l 847 -223 l 776 -223 q 546 -167 613 -223 q 452 -20 481 -111 m 450 53 q 696 167 600 53 q 832 505 793 281 q 848 671 848 597 q 814 843 848 776 q 609 958 758 958 q 362 843 459 958 q 227 505 266 729 q 211 339 211 413 q 244 166 211 234 q 450 53 300 53 "},"⣑":{"x_min":174,"x_max":742,"ha":916,"o":"m 174 983 q 202 1063 174 1030 q 275 1096 231 1096 q 346 1063 316 1096 q 376 983 376 1030 q 346 903 376 936 q 275 871 316 871 q 202 903 231 871 q 174 983 174 936 m 540 599 q 568 679 540 646 q 641 712 597 712 q 712 679 682 712 q 742 599 742 646 q 712 519 742 552 q 641 487 682 487 q 568 519 597 487 q 540 599 540 552 m 174 -169 q 202 -89 174 -122 q 275 -57 231 -57 q 346 -89 316 -57 q 376 -169 376 -122 q 346 -249 376 -216 q 275 -282 316 -282 q 202 -249 231 -282 q 174 -169 174 -216 m 540 -169 q 568 -89 540 -122 q 641 -57 597 -57 q 712 -89 682 -57 q 742 -169 742 -122 q 712 -249 742 -216 q 641 -282 682 -282 q 568 -249 597 -282 q 540 -169 540 -216 "}}}
